<svg width="80" height="80" viewBox="0 0 80 80" fill="none" xmlns="http://www.w3.org/2000/svg">
<path d="M40 0C17.9441 0 0 17.9441 0 40C0 62.0559 17.9441 80 40 80C62.0559 80 80 62.0559 80 40C80 17.9441 62.0559 0 40 0ZM40 77.3333C19.4133 77.3333 2.66672 60.5853 2.66672 40C2.66672 19.4147 19.4133 2.66672 40 2.66672C60.5853 2.66672 77.3333 19.4147 77.3333 40C77.3333 60.5853 60.5853 77.3333 40 77.3333Z" fill="white" fill-opacity="0.9"/>
<path d="M67.3094 23.3106C67.0653 22.9092 66.5908 22.6853 66.1561 22.672C65.6855 22.6773 65.252 22.9306 65.0175 23.3387L56.9375 37.3334L41.56 10.6986C49.968 11.1092 57.832 14.8719 62.9347 21.0186C63.4053 21.5839 64.2441 21.6627 64.812 21.1933C65.3788 20.7227 65.4573 19.8813 64.9867 19.3147C58.9053 11.9906 49.2841 7.73328 39.2027 8.00406C38.732 8.01609 38.3013 8.27469 38.072 8.68406C37.8414 9.09469 37.8441 9.59609 38.0788 10.0041L46.1587 23.9987L15.4041 23.9973C19.9641 16.9214 27.1547 11.9933 35.0294 10.648C35.7547 10.5239 36.2427 9.83469 36.1188 9.10938C35.9961 8.38406 35.3134 7.89344 34.5802 8.01875C25.1961 9.62281 16.7148 15.8561 11.8922 24.692C11.6669 25.1053 11.6763 25.6067 11.9163 26.0106C12.1563 26.4159 12.5922 26.6639 13.063 26.6639L29.223 26.6653L13.8441 53.2986C9.99609 45.8119 9.32266 37.12 12.0947 29.628C12.3494 28.9373 11.9961 28.1706 11.3067 27.9147C10.6134 27.6614 9.84938 28.012 9.59344 28.7027C6.29063 37.6306 7.44797 48.092 12.6906 56.688C12.9319 57.0853 13.3627 57.3266 13.828 57.3266H13.8439C14.3145 57.3213 14.7466 57.068 14.9825 56.6598L23.0625 42.6666L38.4398 69.2998C30.0319 68.8892 22.1666 65.1278 17.0652 58.9813C16.5945 58.4145 15.7531 58.3372 15.1878 58.8066C14.6211 59.2772 14.5425 60.1186 15.0131 60.6852C20.9278 67.8092 30.2105 72.0037 39.9772 72.0037C40.2492 72.0037 40.5239 72.0011 40.7972 71.9944C41.2678 71.9823 41.6972 71.7238 41.9278 71.3144C42.1584 70.9038 42.1558 70.4023 41.9198 69.9944L33.8414 56H48.4455C48.4534 56 48.4602 56.0027 48.4669 56.0027C48.4722 56.0027 48.4789 56 48.4855 56H64.5961C60.0361 63.0759 52.8455 68.0053 44.9708 69.352C44.2455 69.4761 43.7575 70.1653 43.8828 70.8906C43.9934 71.5412 44.5575 72 45.1948 72C45.2695 72 45.3455 71.9947 45.4216 71.9812C54.8042 70.3759 63.2856 64.1413 68.1083 55.3053C68.3336 54.892 68.3242 54.3906 68.0842 53.9867C67.8442 53.5814 67.4083 53.3334 66.9375 53.3334H50.7786L66.1559 26.7002C70.0053 34.1869 70.6773 42.8787 67.9066 50.3708C67.6492 51.0614 68.0025 51.8281 68.6933 52.0841C69.3853 52.3388 70.1506 51.9867 70.4066 51.2961C73.7094 42.368 72.552 31.9067 67.3094 23.3106ZM47.6986 53.3333H32.3013L24.6041 40L32.3027 26.6653H47.6973L55.3973 40L47.6986 53.3333Z" fill="white" fill-opacity="0.9"/>
</svg>
