<svg xmlns="http://www.w3.org/2000/svg" width="286" height="60" fill="none"><path fill="#000" fill-opacity=".9" d="M30 0C13.458 0 0 13.458 0 30s13.458 30 30 30 30-13.458 30-30S46.542 0 30 0m0 58C14.56 58 2 45.439 2 30S14.56 2 30 2s28 12.561 28 28-12.561 28-28 28"/><path fill="#000" fill-opacity=".9" d="M50.482 17.483c-.183-.301-.539-.469-.865-.479a1 1 0 0 0-.854.5L42.703 28 31.17 8.024c6.306.308 12.204 3.13 16.031 7.74a1.001 1.001 0 0 0 1.539-1.278C44.179 8.993 36.963 5.8 29.402 6.003a1 1 0 0 0-.843 1.5L34.62 18l-23.066-.001c3.42-5.307 8.813-9.003 14.719-10.012a1 1 0 0 0-.337-1.972c-7.039 1.202-13.4 5.877-17.016 12.505a1 1 0 0 0 .878 1.479l12.12.001-11.534 19.975C7.497 34.359 6.992 27.84 9.071 22.22a1 1 0 0 0-1.876-.694c-2.477 6.696-1.609 14.542 2.323 20.989.18.298.504.479.853.479h.012a1 1 0 0 0 .854-.5L17.297 32 28.83 51.975c-6.306-.308-12.205-3.13-16.031-7.74a1 1 0 0 0-1.54 1.279c4.437 5.343 11.399 8.489 18.724 8.489q.307 0 .615-.007a1 1 0 0 0 .842-1.5L25.38 42h10.953l.016.002.014-.002h12.083c-3.42 5.307-8.813 9.004-14.719 10.014a1 1 0 0 0 .338 1.972c7.037-1.204 13.398-5.88 17.015-12.507A1 1 0 0 0 50.203 40h-12.12l11.534-19.975c2.887 5.615 3.391 12.134 1.313 17.753a.999.999 0 1 0 1.875.694c2.477-6.696 1.609-14.542-2.323-20.989M35.774 40H24.226l-5.773-10 5.774-10.001h11.546L41.548 30z"/><path fill="#000" d="M90.69 24.307q.08-.16.12-.32l-.48.16-1.28.56h-.04l-.68.16q-.2.039-.24-.12-.04-.16.12-.2l.72-.2.64-.24.6-.28.72-.28a.9.9 0 0 0 .04-.28l-.32.16-.64.2-.72.28-.6.2q-.2.039-.24-.12-.04-.201.12-.24l1.32-.44.64-.24.52-.24a.9.9 0 0 0 .04-.28l-.24.12-.64.2-.6.28-.64.28q-.2.08-.24-.12-.08-.16.08-.2l.64-.28.6-.28v-.04h.04l.64-.16.44-.24v-.16a.35.35 0 0 0 .04-.16l-.28.08-.6.2-.6.28-.72.28q-.16.08-.2-.08-.08-.16.08-.24l.68-.32.64-.24 1.08-.36q.04-.16-.08-.2h-.04l-.64.2-.64.28h-.04l-.68.2q-.2.039-.24-.12-.04-.201.12-.24l.68-.16.64-.32h.04l.64-.2.36-.12q.04-.201 0-.24l-.68.32-.6.28h-.04v.04l-.64.16q-.2.039-.24-.12-.04-.16.12-.2l.64-.2.6-.28.68-.32.32-.16q.04-.28-.08-.36l-.64.16-.72.32-.68.2q-.16.039-.2-.12-.04-.201.12-.24l.64-.2.68-.28h.04l.64-.2.32-.08q.08-.24 0-.32l-.72.32-.68.28-.64.2q-.16.039-.24-.12-.04-.16.16-.24l.6-.16.68-.32.68-.28h.04v-.04l.28-.04q.04-.2.08-.28l-.64.2-.64.32-.72.24q-.16.08-.24-.08-.04-.16.12-.24l.68-.28.64-.28h.04l.84-.32q.08-.24.04-.28l-.68.28-.56.24q-.16.08-.24-.12-.08-.16.12-.2l.56-.24 1.2-.6q.16-.2.4-.4a2.06 2.06 0 0 1 1.04-.48q.56-.08 1.12-.08a16 16 0 0 1 1.6 0q.8 0 1.56.04h.48q.48.04 1 .04h1.04q.08 0 .28-.04t.36-.04.36.12q.96.48 1.08 1.08.16.56-.04 1.48l-.08.4a8 8 0 0 0-.08.36q-.2.92-.44 1.84a59 59 0 0 1-.44 1.8l-.04.08q0 .08-.04.08a7.5 7.5 0 0 0-.8 2.48q-.2 1.32-.44 2.68-.24 1.32-.92 2.4-.48.96-.68 2.04-.16 1.04-.4 2.12a6.4 6.4 0 0 1-.72 2q-.24.72-.56 1.44-.28.68-.52 1.4-.28.72-.52 1.48l-.4 1.44a13 13 0 0 1-.36 1.2q-.2.52-.72.92a2.2 2.2 0 0 1-1.12.4q-.56.08-1.16.08l-.32.12q-.12.04-.2-.04l-.32.12-.68.2q-.16.08-.24-.08v-.12l-.44.12q-.2.08-.24-.12 0-.04-.12 0l-.68.24q-.12.08-.2-.04l-.32.12q-.16.08-.24-.08-.04-.16.12-.24l.68-.28.28-.12h-.04l-.32.08-.68.32-.6.28q-.16.08-.24-.08a.17.17 0 0 1 0-.16l-.56.2q-.16.08-.24-.08a.17.17 0 0 1 0-.16l-.36.08q-.12.04-.2-.04l-.56.16q-.16.08-.24-.12-.04-.08-.12-.08l-.64.2q-.16.08-.24-.08l-.32.12q-.16.08-.24-.08a.17.17 0 0 1 0-.16l-.6.16q-.16.08-.24-.08l-.52.2q-.16.08-.24-.08v-.04l-.28.12q-.12.08-.2-.04-.16.08-.24-.08-.04-.201.12-.24l.76-.24v-.04h.04l.36-.12.24-.12-.16-.08-.16-.16a.27.27 0 0 0-.2-.08l-.6.28h-.04l-.64.2-.72.2q-.16.04-.2-.16-.04-.16.12-.2l.68-.2.64-.16.6-.32h.04l-.24-.24-.16-.32h-.08l-.68.28-.6.24-.64.2q-.16.08-.24-.08-.04-.201.12-.24l1.24-.44.76-.32-.08-.24a.4.4 0 0 0-.16-.2l-.56.16-.6.28-.64.2q-.16.039-.2-.12-.08-.201.12-.24l.6-.16.56-.28h.04l.68-.24a.37.37 0 0 0-.28-.24l-.6.24-.56.32h-.04l-.56.2q-.16.039-.24-.12-.04-.16.12-.24l.56-.16.56-.32.6-.24.24-.12a.5.5 0 0 0-.12-.2q-.04-.08-.2-.16l-.56.28h-.04l-.6.2-.64.24q-.16.08-.2-.12-.08-.16.08-.2l.64-.24.6-.24.56-.24h.04l.2-.08a.45.45 0 0 0-.04-.2q-.04-.12-.2-.2l-.56.2-.64.32h-.04l-.68.2q-.16.08-.24-.12-.04-.16.12-.2l.68-.24.64-.28h.04l.76-.28a.45.45 0 0 0-.04-.2q-.04-.12-.2-.16l-.64.16-1.36.56q-.16.039-.2-.12-.08-.16.08-.24l.68-.28.68-.24h.04l.84-.28a1.1 1.1 0 0 1-.08-.4l-.36.12-.68.2-.56.32h-.04l-.64.2q-.2.039-.24-.12-.04-.201.12-.24l.64-.16.56-.32h.04l.68-.24.4-.12a2.3 2.3 0 0 1-.12-.4l-.36.16-.72.28-.64.2-.64.24q-.16.08-.2-.12-.08-.16.08-.2l1.28-.48.72-.24.4-.16-.16-.4-.32.08-.68.24-.72.24-.68.16q-.2.08-.24-.12-.04-.16.12-.2l.72-.2.68-.24.68-.2.32-.12a5 5 0 0 1-.16-.36l-.28.08-.56.32h-.04l-.6.2-.56.28q-.16.08-.24-.08-.12-.16.04-.24l.6-.28.04-.04.6-.16.56-.32.36-.12a2 2 0 0 1-.12-.44l-.36.12-.56.2-.6.2-.6.32q-.16.08-.24-.08t.08-.24l.64-.32.6-.2.56-.24.36-.12a5 5 0 0 1-.08-.4l-.36.12-.68.28-.56.28-.6.28q-.16.08-.24-.08-.04-.16.12-.24l1.12-.56.04-.04.64-.24h.04l.4-.16a.4.4 0 0 0-.04-.16.8.8 0 0 1-.04-.24l-.4.12-.68.24-.68.28-.64.28q-.16.08-.24-.08t.08-.24l.68-.32.64-.24.04-.04.68-.2.44-.16a2.3 2.3 0 0 0-.12-.4l-.44.2-.6.16-.68.28-.6.24q-.16.08-.24-.08-.04-.16.12-.24l.56-.24v-.04l1.32-.44.48-.2a2.3 2.3 0 0 1-.12-.4l-.48.12-.6.2-.64.32-.6.28q-.16.039-.24-.12-.08-.16.08-.24l.64-.24.6-.32h.04l.6-.24h.04l.44-.12-.16-.32-.28.16h-.04l-.64.2-.6.16-.68.2q-.2.039-.24-.12-.04-.201.16-.24l.68-.16.56-.2.64-.16.32-.2a2.3 2.3 0 0 1-.12-.4l-.28.12-1.2.56v.04l-.6.2q-.2.08-.24-.12-.08-.16.08-.2l.64-.24.56-.28.64-.28.28-.12a6 6 0 0 1-.12-.4l-.24.08-.64.32-.68.28-.6.24q-.16.08-.24-.08t.08-.24l.6-.28.72-.24.6-.32.28-.12a8 8 0 0 1-.16-.44l-.24.08-.68.16-.68.24-.72.24q-.16.039-.2-.12-.08-.201.12-.24l.68-.24.72-.2.64-.2.24-.08a1.6 1.6 0 0 1-.12-.32l-.24.12h-.04l-.56.2-.72.24-.56.24q-.16.039-.24-.12-.04-.16.12-.24l.56-.2.72-.28.56-.16.28-.12q-.12-.28-.32-.32l-.56.28-.72.28-.68.32q-.2.08-.24-.08-.08-.16.08-.24l.68-.32.72-.28.76-.36a.5.5 0 0 0-.12-.2q-.04-.12-.24-.2l-.64.24-.64.28-.56.2q-.16.08-.24-.08t.12-.24l.56-.24.64-.24.84-.32q-.08-.24-.16-.32l-.68.28h-.04l-.6.2-.6.28q-.16.08-.24-.08t.08-.24l.6-.28h.04v-.04l.6-.16.76-.36a.43.43 0 0 0-.08-.24q-.04-.12-.2-.2l-.6.24-.68.2-.64.24q-.16.039-.24-.12-.04-.16.12-.24l.64-.2.68-.24.6-.24h.04l.16-.04q-.08-.24-.24-.32l-.56.32-.64.28-.72.28q-.16.08-.2-.12-.08-.16.08-.2l.68-.28.64-.28.56-.32a.7.7 0 0 0 .2-.08q-.08-.28-.24-.4l-.56.28-.68.2-.64.28q-.16.08-.24-.08t.08-.24l.68-.32h.04l.64-.16.56-.28a.3.3 0 0 0 .12-.04q-.08-.28-.2-.36l-.68.16-.6.32-.6.2q-.16.039-.24-.12-.04-.201.12-.24l.56-.2.64-.28h.04l.68-.2a2 2 0 0 0-.08-.2 2 2 0 0 0-.08-.2l-.56.2-.72.32-.68.28q-.16.039-.24-.12-.08-.16.12-.24l.68-.24.68-.32h.04l.56-.24q.04 0 0 0l-.12-.36-.68.28-.64.24-.72.32q-.16.08-.24-.08-.04-.201.12-.24l.68-.32 1.36-.56q-.04-.12-.12-.4l-.56.16-.56.2-.56.16q-.2.08-.24-.12-.04-.16.12-.2l.56-.2.6-.2.52-.16a1.4 1.4 0 0 0-.12-.4l-.56.2-.64.24-.6.2q-.16.08-.24-.08-.04-.16.12-.24l.6-.24.64-.2.56-.24a1.6 1.6 0 0 0-.12-.32l-1.12.4-.68.2q-.16.039-.2-.12-.04-.201.12-.24l.64-.2.6-.16.52-.24a1.6 1.6 0 0 0-.12-.32l-.52.16-.64.28h-.04l-.68.2q-.2.039-.24-.12-.04-.201.16-.24l.64-.16.68-.32.52-.16-.16-.4-.4.16-.72.28-.56.28q-.16.08-.24-.08t.08-.24l.6-.28.68-.32.44-.16a2.3 2.3 0 0 1-.12-.4l-.48.12-.6.24-.72.28q-.16.08-.24-.08-.04-.16.08-.24l-.04-.04q-.04-.201.12-.24l.6-.24.72-.24.44-.24v-.16l-.32.12-.68.2q-.16.08-.24-.08-.04-.201.12-.24l.72-.24.52-.16q.2-.48 1.04-.92a.7.7 0 0 1 .36-.12q.2 0 .36.04h.32q.72.04 1.44.04h4.8q.56 0 1.12.08.56.039 1.04.36.72.48.96 1.24l.48 1.44q.6 1.08.72 2.4.16 1.32.28 2.64t.68 2.36q.04 0 .04.08l.04.04q.04.16.08.28l.64-.28h.04l.6-.2.64-.24.56-.32h.04q.04-.16.08-.36l-.44.16-1.36.4-.6.16q-.16.08-.2-.08-.08-.201.12-.24l.56-.2.72-.16.64-.24.68-.2.08-.32-.44.16-.72.2-.56.16-.72.32q-.16.08-.2-.12-.08-.16.08-.24l.68-.28h.04l.6-.2.68-.2zm-3.16 5.4q-.04-.04-.04-.08-.04-.081 0-.12a98 98 0 0 0-.32-1.32 6.5 6.5 0 0 0-.36-1.28 6.4 6.4 0 0 1-.68-2.4 83 83 0 0 0-.28-2.68q-.12-1.36-.76-2.36v-.04l-.04-.04a52 52 0 0 0-.36-1.2q-.16-.68-.68-1.04-.36-.24-.76-.24a8 8 0 0 0-.8-.04h-4.88q-.72 0-1.44-.04h-.2q-.32-.08-.4-.04-.48.279-.6.48.04.12-.04.2l.08.08q.04.12-.04.2 0 .08.08.24.04.12.08.2a.5.5 0 0 1 .08.12.17.17 0 0 1 0 .16q.08.2.16.48v.04q.04 0 .04.04.04.04.04.08.44 1.04.72 2.12.32 1.08.72 2.12.48 1.12.72 2.32.24 1.16.72 2.24l.04.04q.68 1.88 1.32 3.8a9.7 9.7 0 0 1 .76 2.64q.2 1.4.76 2.68.44 1.08.6 2.28.16 1.16.52 2.28h.04q.08.36.2.76l.24.72q.12.24.24.44.16.159.32.36l.92.28q1.68-.2 3.6-.2t3.6.16q.16.04.48.04.52.04 1.04.04.56 0 .96-.28a1.27 1.27 0 0 0 .52-.72l.24-.88.4-1.52a34 34 0 0 1 .52-1.52q.28-.72.56-1.4.32-.72.56-1.44v-.08a6.4 6.4 0 0 0 .72-1.96q.24-1.08.44-2.16a7 7 0 0 1 .68-2.04v-.04a5.9 5.9 0 0 0 .88-2.36q.24-1.36.44-2.68a8.2 8.2 0 0 1 .84-2.48q.24-.88.44-1.76.24-.921.44-1.8.04-.201.08-.36l.08-.4q0-.081.04-.24.12-.48.04-.72-.04-.24-.64-.56-.04-.04-.36.04-.16.04-.2.04h-1.04q-.52 0-1.04-.04h-.48a30 30 0 0 0-1.56-.04 15 15 0 0 0-1.52 0h-.2q-.36 0-.76.08a1.16 1.16 0 0 0-.64.28 1.27 1.27 0 0 0-.52.72q-.08.4-.16.88l-.16.72q-.08.36-.12.76a22 22 0 0 0-.44 2.28q-.12 1.12-.44 2.2-.16.72-.36 1.44-.2.68-.44 1.4-.28.92-.56 1.88a32 32 0 0 1-.64 1.88 5 5 0 0 0-.16.36 3 3 0 0 1-.12.36.35.35 0 0 1-.04.16q.08.16.12.28 0 .08-.12 0a1.4 1.4 0 0 1-.12.36q-.08.16-.36.16a.4.4 0 0 1-.2-.08q-.12-.081-.12-.12a13 13 0 0 1-.16-.52v-.04l-.04-.04q-.16 0-.16-.2 0-.081.08-.12a8 8 0 0 1-.16-.56l-.08-.16q-.12.04-.2-.08-.08-.16.12-.28l-.16-.56zm2.64-3.44-.28.16h-.04l-.64.28-.64.16-.64.32q.04.12.08.28l.2-.08.56-.28h.04l.68-.28.6-.28q.04-.16.08-.28m-2.08 1.56v.08l.52-.2.64-.2.6-.2a.35.35 0 0 0 .04-.16.3.3 0 0 0 .04-.12l-.28.16-.72.24-.56.28zm.08.4q.04.12.08.28l.36-.16h.04l.56-.16.44-.12q.04-.201.08-.36l-.36.12-.64.24zm.16.64q.04.16.24.16 0 .039.04 0l.52-.16.28-.08q.04-.201-.12-.24l-.56.16zm.16.6q.04.32.16.48l.48-.32q.12-.28.12-.4l-.52.16zm.2.84q0 .08.12.04a.3.3 0 0 0 .12-.04q.04-.08-.12-.04zm20.391 14.96-.6.28q-.159.08-.24-.08v-.04l-.56.16q-.2.08-.24-.08a.17.17 0 0 1 0-.16l-.64.24q-.16.08-.2-.08-.08-.16.24-.32a.7.7 0 0 0-.16.04l-.64.24q-.16.08-.2-.04l-.32.12q-.159.08-.24-.08-.04-.08-.16-.04l-.72.24q-.16.08-.2-.08a.17.17 0 0 1 0-.16l-.36.08q-.159.08-.24-.12v-.12l-.72.16q-.08.04-.2-.04l-.6.16q-.08.039-.12 0l-.6.2q-.159.08-.24-.08v-.16l-.04-.04q-.08-.16.08-.24l.68-.32h.04l.68-.16.36-.12q-.08-.12-.08-.16h-.04l-.28.08-.6.24-.64.2-.6.2q-.159.08-.24-.08-.08-.201.12-.24l.6-.24h.04l.6-.16.6-.24.28-.08a.5.5 0 0 0-.12-.2q-.04-.081-.2-.12l-.64.32-.6.32h-.04l-.64.16q-.2.08-.24-.12-.039-.16.12-.2l.64-.2.6-.28.88-.44v-.44l-.2.08h-.04l-.6.2-.64.28-.72.28q-.159.08-.24-.12-.039-.16.12-.2l.68-.28.64-.28q0-.04.04-.04l.64-.16.32-.16v-.04q.04-.28.04-.4l-.28.08-.68.28q0 .039 0 0l-.6.2-.64.32q-.159.08-.24-.08t.08-.24l.64-.32h.04l.6-.2.68-.32h.04l.36-.08q0-.24-.16-.28l-.68.32-.64.32-.6.24q-.159.08-.24-.08t.08-.24l.6-.28.64-.28.68-.32.28-.12v-.4l-.2.08-.72.28-1.36.56q-.159.08-.24-.08-.039-.201.12-.24l.64-.28.72-.32.68-.24.36-.16v-.4l-.76.2-.64.24-.68.24q-.159.039-.24-.12-.039-.16.12-.24l.72-.2.6-.24.64-.2.24-.08q0-.2-.12-.28l-.72.28-.56.32h-.04l-.64.16q-.2.08-.24-.12-.039-.16.12-.2l.64-.2.56-.28h.04l.68-.28.24-.12q0-.24-.04-.32h-.04l-.64.24-.6.16-.68.28q-.159.08-.24-.12-.039-.16.12-.2l.68-.28h.04l.56-.2.84-.28q0-.32-.2-.4l-.6.2-.68.24-.64.32q-.159.08-.24-.08t.08-.24l.64-.32h.04l.68-.24.64-.24.24-.08q0-.2-.08-.28l-.04.04-.68.16-.6.28h-.04l-.64.16q-.2.08-.24-.12-.039-.16.12-.2l.64-.2.64-.24v-.04l.68-.16.24-.12a.44.44 0 0 0 .04-.2l-.32.12-.56.16q-.039.039-.24 0l-.6.24q-.159.08-.24-.08-.039-.201.12-.24l.56-.24.64-.28.04-.04.76-.2q.12-.24.32-.44.44-.52 1.04-.56.64-.04 1.28 0h.44q1.12.039 2.24.12t2.24.08h.24q.48-.04.92.04.44.04.8.4.4.4.44.88.04.44.04.92 0 .12-.04.16 0 .6-.04 1.16l-.08 1.16v1.52l.08 1.52v.2q.04.48 0 .96-.04.44-.44.88a1.43 1.43 0 0 1-1 .48 8 8 0 0 1-1.12.08q-.16-.04-.28-.04h-.24a.9.9 0 0 0-.32.08m1-1h.12q.32.039.64 0 .32-.08.52-.28a.65.65 0 0 0 .2-.48 4 4 0 0 0-.04-.6v-.24q-.04-.801-.08-1.56v-1.56l.08-1.16q.04-.56.08-1.16v-.2a2 2 0 0 0 0-.56.74.74 0 0 0-.16-.48.74.74 0 0 0-.48-.16 4 4 0 0 0-.56-.04q-.2.04-.28.04-1.16 0-2.28-.08a63 63 0 0 0-2.24-.12q-.12 0-.4-.04h-.92a.98.98 0 0 0-.72.28q-.24.28-.28.76 0 .44.04.88.04.36.04.52 0 .96.04 1.96.04.96.04 1.96v.24q0 .12-.04.28v.48q0 .24.04.48l.08.32.16.24.36.16q1.32.08 2.64.12 1.36 0 2.72-.04.12 0 .44.04z"/><path fill="#000" d="M120.502 24.027a.17.17 0 0 1 .16 0q1.56-.6 3.12-1.04t2.44-.52q.52-.04 1.64.44 1.12.44 2.48 1.2 1.401.72 2.76 1.56 1.36.84 2.4 1.6 1.041.72 1.44 1.16l.08.12q.08.08.08.12a7.1 7.1 0 0 1 .36 2q.08 1.04.08 2.04v2.32q0 1.16.04 2.28v1.36a47 47 0 0 1 0 3.88v.12q0 .52-.08 1-.04.48-.44.84-.399.4-.84.44-.44.08-.92.12h-.36l-.32.16-1.36.56q-.159.08-.24-.08t.08-.24l.68-.32h.04-.2a3 3 0 0 1-.32.08l-.6.24q-.159.08-.24-.04l-.56.28q-.12.08-.24-.08-.08-.16.08-.24l.32-.16q-.12.039-.32.12h-.04l-.68.24q-.159.08-.24-.08v-.08l-.6.2q-.159.08-.24-.08v-.16l-.44.2q-.159.08-.24-.08-.039-.04 0-.12l-.56.16q-.16.08-.2-.08-.039-.08-.12-.08l-.68.24q-.159.08-.24-.08a.17.17 0 0 1 0-.16l-.24.12q-.159.08-.24-.08t.08-.24l.4-.2-.64.2-.6.2q-.159.08-.24-.08v-.08l-.44.2q-.159.08-.24-.08t.08-.24l.68-.32.68-.2.6-.28a2 2 0 0 1-.12-.44q-.44.36-1 .64a6.4 6.4 0 0 1-1.96.72q-.999.24-2.04.32h-.08l-.32.16q-.12.04-.2-.04l-.4.12h-.12l-.72.24q-.159.08-.24-.08v-.12l-.28.08-.28.16q-.159.08-.24-.08-.039-.04 0-.12 0-.12.12-.16l.28-.12.4-.2-.84.28-.68.24q-.159.08-.24-.08-.039-.12-.12-.12l-.68.28q-.159.039-.24-.12-.039-.16.12-.24l.68-.24.88-.36-.24-.08-.56.16-.64.28h-.04l-.64.2q-.159.039-.24-.12-.04-.12.08-.2l-.52.24q-.159.039-.24-.12-.08-.16.08-.24l.68-.24.56-.32h.04l.28-.12a2 2 0 0 0-.2-.08l-.16-.08-.6.28-.64.28-.72.24q-.159.039-.24-.12-.039-.16.12-.24l.68-.2.68-.32.32-.12-.4-.24-.6.2-.64.2-.56.2q-.159.08-.24-.08t.12-.24l.56-.24q.04 0 0 0l.64-.16.36-.12a.6.6 0 0 0-.16-.12l-.16-.08-.56.2-.72.24-.64.24q-.2.039-.24-.12-.08-.16.12-.24l.64-.24.72-.2.4-.16q-.16-.12-.28-.24-.04-.04-.04-.08l-.64.2-.68.32-.6.32q-.159.08-.24-.08t.08-.24l.6-.32.72-.32.52-.16a2.3 2.3 0 0 1-.2-.44l-.64.2-.56.28-.68.28q-.16.08-.2-.12-.08-.16.08-.2l.64-.28.56-.32h.08l.6-.16a3 3 0 0 1-.12-.52l-.24.08-.64.16-.72.24-.6.24q-.159.08-.24-.08t.08-.24l.64-.28.72-.2v-.04l.68-.16.28-.08q-.04-.24-.08-.52l-.48.16-.68.16-.6.2-.68.28q-.159.08-.24-.08t.12-.24l.64-.28v-.04h.04l.64-.16.68-.2.56-.16v-.48l-.64.16-.56.2h-.04l-.68.2-.6.28q-.159.039-.24-.12-.08-.16.08-.24l.64-.24v-.04l.72-.16.56-.24.72-.2h.04v-.48l-.6.16-.64.32-.6.2-.68.28q-.159.08-.24-.08t.08-.24l.68-.32h.04l.6-.16.6-.32h.04l.6-.2q.08 0 .16.04.04-.321.08-.6h-.04l-.72.32-.68.2-1.36.56q-.2.08-.24-.12-.08-.16.08-.2l.72-.28.64-.32h.04l.68-.16.68-.32q.16-.04.24.08.04-.28.08-.52l-.64.28-.6.28-.64.32h-.04l-.68.16q-.2.08-.24-.12-.04-.16.16-.2l.68-.2.64-.28.56-.28.68-.32q.08-.04.16.04a2 2 0 0 0 .12-.4l-1.2.4-.64.24-.64.28q-.159.08-.24-.08t.08-.24l.64-.28h.04v-.04l.64-.2.72-.28.64-.2h.08q0-.12.04-.2l-.32.08-.68.28-.68.2-.6.28q-.159.08-.24-.08t.08-.24l.64-.32h.04l.64-.2.68-.24.6-.2a.3.3 0 0 0 .04-.12l-.68.16-.68.2-.56.24q-.159.08-.24-.08t.08-.24l.6-.24v-.04q0-.12.16-.16l.52-.16q-.08-.04-.08-.12-.039-.16.12-.2l.72-.2a.5.5 0 0 1-.08-.12q-.039-.16.12-.2l.32-.12v-.04q-.039-.16.12-.24l.72-.16.28-.12q.72-.48 1.52-.84a26 26 0 0 1 1.64-.64q.8-.28 1.64-.48a32 32 0 0 1 1.72-.36h-1.28a1 1 0 0 0-.24.04l-.6.24q-.159.08-.24-.08-.04-.12-.08-.12l-.64.28q-.159.08-.24-.08-.04-.12.08-.24l-.6.16q-.08.039-.12 0l-.6.24q-.16.08-.2-.08-.08-.16.08-.24l.6-.24a.35.35 0 0 0-.16-.04l-.28.12-.6.28q-.159.08-.24-.08-.04-.04-.04-.08l-.52.24q-.159.08-.24-.08l-.08-.16-.68.16q-.16.08-.2-.12l-.56.2q-.159.08-.24-.08l-.4.16q-.159.08-.24-.08t.12-.24l.6-.28-.68.28h-.04l-.64.16q-.2.08-.24-.12-.039-.16.12-.2l.68-.2.68-.24.44-.16q-.32-.28-.44-.64l-.56.28-.6.32-.72.24q-.159.08-.24-.08-.039-.16.12-.24l.68-.28.6-.28.6-.32q0-.2.08-.44l-.52.2-.6.24-.64.2q-.16.08-.2-.08-.08-.201.08-.24l.64-.24.56-.2.72-.28.12-.04q.04-.04.04-.08.04-.12.08-.2l-.4.12-.64.32-.72.32q-.159.039-.24-.12-.08-.16.12-.24l.68-.28.6-.28-.52.16q-.159.039-.24-.12-.039-.201.12-.24l.52-.16q-.04 0-.04-.04-.08-.201.08-.24l.6-.24.64-.28.44-.24a.4.4 0 0 0 .12-.08l-.44.16-.56.28q-.159.08-.24-.08t.08-.24l.44-.24v-.04q-.039-.16.12-.24l.68-.2q-.2.039-.24-.12-.039-.16.12-.24l.72-.16 1.56-.52.32-.16.2-.12a.3.3 0 0 0 .12-.04l.36-.16a.17.17 0 0 1 .16 0 .5.5 0 0 1 .2-.12zm8.28 20.24q.201-.04.24.12v.04h.12l.44-.16q.16-.04.2.12h.24q.12-.04.28-.08.16-.08.24.04h.24a3 3 0 0 1 .32-.08q.12-.04.2.04h.28q.16 0 .32-.04h.12l1.48-.08 1.48-.08h.28q.321 0 .6-.04a.86.86 0 0 0 .52-.24.82.82 0 0 0 .24-.48 2.2 2.2 0 0 0 0-.6v-.24a46 46 0 0 0 0-3.84v-1.32a69 69 0 0 1-.04-2.32v-2.4q0-.88-.04-1.8a7 7 0 0 0-.32-1.8q-.4-.36-1.4-1.04a70 70 0 0 0-2.28-1.48 64 64 0 0 0-2.56-1.52 27 27 0 0 0-2.28-1.16q-1-.44-1.4-.4-.68.04-1.96.4a27 27 0 0 0-2.64.84q-1.359.48-2.52 1.04-1.12.519-1.6.96-.4.44-.8.92-.36.48-.56 1.04a.5.5 0 0 0-.08.16.9.9 0 0 0-.12.28.7.7 0 0 0-.04.16q.12.24.32.44.2.159.4.24.08.039.4 0a1 1 0 0 1 .2-.04h.36q.2-.04.4-.04.68 0 1.36.04t1.36.04q.24.04.48.04h.52q.12-.04.16.04h.28q.12 0 .32-.04.12-.04.2.04h.2q.16 0 .36-.04h.16q.4-.12.84-.36l.24-.16v-.04q-.039-.16.12-.2l.28-.08a1 1 0 0 1 .4-.24q.24-.12.68-.16.16-.08.24.04.4.04.64.2.16-.08.24.08v.12q.28.28.44.92v.32q.04.12.04.28v.28q.081.12 0 .28-.039.16-.24.2a3 3 0 0 1-.52.04q.12.2.36.24h-.08a.5.5 0 0 1-.12-.08.4.4 0 0 1-.2-.16q-.72.12-1.44.2-.72.039-1.48.12-.96.16-1.96.4-.96.2-1.88.52t-1.84.76a6.1 6.1 0 0 0-1.64 1.04q-.399.44-.72 1.52a14 14 0 0 0-.48 2.32q-.12 1.28-.04 2.36.12 1.08.56 1.52l.04.04q.92.88 2.32 1.48 1.4.56 2.6.84h1.28q.96-.081 1.88-.24.92-.2 1.76-.68.52-.28.96-.6-.04-.16.2-.2l.08-.08a1 1 0 0 0 .32-.44q.12-.24.48-.24.36-.04.36.2.04.2 0 .44v.24q0 .08-.04.24v.48q.04.24.2.44.12.12.44.12m-4.92-13.44q.36-.04.76-.08.04-.04.08-.04l.56-.28h.04l.68-.2.6-.2q-.08-.201-.16-.24-.08-.08-.4-.08l-.28.12-.36.12a.7.7 0 0 0-.16.12l-.2.2-.24.16q-.44.24-.92.4m2.12-.2q.4-.04.68-.08v-.16l-.56.2zm-.08 8.48v.04h-.04l-1.08.24h-.16a2 2 0 0 0-.56-.08 1.03 1.03 0 0 1-.52-.24q-.519-.4-.6-.96-.08-.6.36-1.12.16-.2.36-.32l.4-.24q.04-.04.24-.08a5 5 0 0 1 .52-.12q.28-.081.56-.12l.24-.08h.12a.35.35 0 0 0 .16-.04q.12-.04.28-.08a.17.17 0 0 1 .16 0 .35.35 0 0 0 .16-.04q.08-.04.28-.08.04-.04.08-.04 0-.12.04.04h.04q.04-.04.12-.04a3 3 0 0 1 .32-.08q.12-.08.2.04.24.08.2.36 0 .2-.04.44a3 3 0 0 1-.16.96q-.08.2-.2.44-.28.52-.64.76-.32.2-.84.44m.72-1.84-.36.12-1.2.56q-.159.08-.24-.08-.039-.16.12-.24l.56-.28.6-.28q.04 0 .04-.04l.6-.2v-.04q-.2.08-.44.12l-.48.08q-.32.08-.68.12a2 2 0 0 0-.64.2l-.24.12a.4.4 0 0 0-.2.16q-.36.399.08.72.08.08.4.12l.52-.2.68-.32.64-.24a.9.9 0 0 0 .16-.24zm-8.52 7.44-.64.2-.56.32h-.04l.56-.16.68-.28v-.04h.08q-.04-.04-.08-.04"/><path fill="#000" d="m140.145 44.547-.16.04v.04l-.68.16-.6.32h-.04l-.56.2q-.16.08-.24-.08t.12-.24l.56-.24.6-.28h.04v-.04l.76-.2a1 1 0 0 0-.12-.24 1 1 0 0 0-.12-.24v.04l-.64.16-.56.28-.72.28q-.16.08-.24-.08t.12-.24l.68-.32.56-.24h.04l.68-.2v-.44l-.48.2-.68.16-.68.32q-.16.08-.24-.08-.08-.201.12-.24l.68-.32h.04l.64-.2.6-.2h.04v-.44l-.56.28-1.24.48q-.16.039-.24-.12-.04-.16.12-.24l1.24-.44.56-.28v-.04a.7.7 0 0 0 .16-.04v-.28h-.04l-.64.24-.6.2-.6.24q-.16.08-.24-.08-.04-.201.12-.24l.56-.24.64-.24.84-.28v-.32l-.52.24-.56.28h-.04l-.6.2q-.16.039-.24-.12-.04-.201.12-.24l.6-.16 1.28-.64a2 2 0 0 0-.04-.44l-.6.32-1.36.48q-.16.08-.24-.08-.04-.16.12-.24l.64-.28h.04l.68-.2.56-.32.24-.08q0-.28-.08-.36h-.04l-.56.2-.64.16-.6.32q-.16.08-.24-.08t.08-.24l.6-.32h.04l.64-.2.56-.2.28-.08q.04-.28-.08-.4l-.68.16-.56.2-.68.24q-.16.08-.24-.08-.04-.16.12-.24l.64-.28h.04l.56-.16.72-.2.24-.08q0-.24-.16-.24h-.04l-.56.2-.72.16-.64.28q-.16.08-.24-.08-.04-.201.12-.24l.64-.28h.04l.68-.2.56-.16.4-.2v-.4l-.2.12-.68.28-.6.32-.6.24q-.16.039-.24-.12-.04-.16.12-.24l.56-.2.6-.32.68-.32.4-.16q0-.2.04-.44l-.4.16-.72.32-.6.28h-.04l-.64.16q-.2.08-.24-.12-.04-.16.12-.2l.64-.2.64-.24.68-.32.56-.2q0-.24.04-.44l-.36.12-.6.28v.04l-.56.16-.68.32q-.16.08-.24-.08-.08-.201.08-.24l.68-.32h.04l.56-.2.56-.28.04-.04.48-.12v-.36l-.36.16-.6.32-.56.24h-.04l-.6.16q-.16.08-.24-.12-.04-.16.12-.2l.64-.2.52-.2.6-.32.56-.28v-.4l-.48.12-.6.2-.68.16-.6.2q-.16.039-.24-.12-.04-.16.12-.24l.64-.16 1.28-.4.56-.16v-.36l-.4.24-.6.2-.6.32-.6.24q-.16.039-.24-.12-.04-.16.12-.24l.56-.2.6-.32h.04l.56-.24.56-.28v-.36l-.48.2h-.04l-.68.2-.68.24-.6.2q-.16.08-.24-.12-.04-.16.12-.2l1.28-.48.72-.16.6-.28v-.4l-.36.16-.6.28v.04l-.68.16-.64.32q-.16.08-.24-.08t.08-.24l.64-.32.04-.04.68-.16.56-.28v-.04l.48-.16v-.36l-.36.16-.6.24-.68.32-.6.24q-.16.08-.24-.08t.08-.24l.6-.28.72-.28.56-.24.48-.24v-.4l-.32.16-.6.28v.04l-.72.2-.6.24q-.16.039-.24-.12-.04-.16.12-.24l.64-.2.68-.24.56-.28.44-.2a2 2 0 0 0-.04-.4l-.2.12h-.04l-.6.16-.72.24-.68.2q-.2.04-.24-.16-.04-.16.12-.2l.72-.2.68-.2.64-.2.32-.12q0-.24-.04-.44l-.28.08-.6.28-.56.24-.68.28q-.16.08-.24-.08-.04-.201.12-.24l.64-.28.56-.28.6-.24h.04l.4-.12v-.32l-.2.12-.72.28-.56.24-.72.28q-.16.039-.24-.12-.04-.16.12-.24l.68-.24.6-.24.68-.32.36-.16a2.5 2.5 0 0 1-.04-.4l-.2.08-.64.24-.6.2-.64.16q-.2.08-.24-.12-.04-.16.12-.2l.68-.2.56-.2.6-.2.36-.16q0-.24-.2-.32l-.6.24-.6.32-.68.32q-.16.08-.24-.08-.08-.201.08-.24l.68-.32.6-.32.6-.24v-.04h.04l.28-.08v-.2q0-.16-.16-.2l-.68.28-.64.24-.64.28q-.16.08-.24-.08t.08-.24l.64-.28v-.04h.04l.64-.2.68-.28h.04l.2-.08q0-.12.04-.24l-.48.2-.56.16q-.04.04-.16.04l-.56.16q-.16.08-.24-.12-.04-.16.12-.2l.6-.2.32-.08.4-.2h.04l.6-.2q.08-.28.28-.52.4-.52.96-.56.56-.08 1.12-.08h.48a34 34 0 0 1 2.32 0 23 23 0 0 1 2.32.2q.56.039 1.04.12.52.08.96.52.28.28.4.64.12.32.16.68l.44-.12q.4-.32.84-.56.44-.28.92-.52 1.04-.6 2.52-.72a24 24 0 0 1 2.68-.08q.52.039 1 .12.48.039.88.48.36.4.4.88t.04.96q-.04.159-.04.24 0 .56-.04 1.16t-.04 1.2l-.08 1.12q-.04.56-.12 1.12 0 .2-.04.44 0 .2-.08.4a2.5 2.5 0 0 1-.24.56q-.12.24-.36.44-.36.24-.76.32-.4.04-.84.04l-.68.32-1.24.36q-.16.08-.24-.12-.04-.16.12-.2l.64-.2.72-.24h-.08q-.12 0-.32.04l-.64.2-.68.2-.64.24q-.16.08-.2-.08-.04 0-.04-.04l-.32.16q-.2.039-.24-.12-.04-.04-.2-.04l-.6.28q-.16.08-.24-.12v-.08l-.68.2q-.2.04-.24-.16v-.08l-.6.28q-.08.039-.12 0a.9.9 0 0 0-.16.32q-.16.36-.16.76l.08.8v.32q.04.16.04.28.04 1.32.04 2.64.04 1.28.12 2.6v.8q0 .4.04.76v.2q0 .52-.04 1t-.4.88q-.4.48-1 .56-.56.12-1.16.12h-.44l-.04.04-.32.12-.68.28q-.16.08-.24-.08t.2-.28h-.28l-.4.16q-.16.08-.24-.08l-.48.12q-.16.08-.24-.12v-.04h-.12l-.44.2q-.16.08-.24-.08v-.08h-.2l-.32.12q-.16.08-.24-.08v-.08h-.24l-.44.12q-.16.08-.24-.08l-.4.16q-.16.08-.24-.08-.04-.081 0-.12h-.12l-.28.08q-.16.08-.24-.08l-.68.24q-.16.08-.24-.08-.04-.16.12-.24l.44-.28-.44.12-.68.2q-.04.04-.08.04l-.52.24q-.16.08-.24-.08v-.04q-.12-.04-.16-.12-.04-.201.12-.24l.64-.24.6-.2zm1.96-.28q.2-.04.24.12v.08h.12l.4-.16q.16-.08.2.08.04 0 .04.04l.52-.16q.2-.04.24.12v.08l.52-.2q.16-.04.24.12v.08l.52-.2q.16-.04.24.12v.08l.52-.2q.16-.04.24.12v.04h.12l.4-.16q.16-.04.24.12v.04q.16-.04.28-.04l.2-.08q.16-.08.24.04h.24l.32-.08q.16-.04.24.08.28 0 .52-.04.04-.04.08-.04.24-.081.4-.24a.85.85 0 0 0 .2-.56 2.2 2.2 0 0 0 0-.6v-.28a8 8 0 0 1-.04-.76v-.8a91 91 0 0 1-.12-2.6q0-1.32-.04-2.64a1.3 1.3 0 0 0-.04-.32v-.32q-.04-.48-.04-.96t.16-.92q.28-.76.92-1.12t1.36-.56a8 8 0 0 1 2.28-.24q1.24 0 2.36.08.12 0 .36.04.36.04.72.04c.36 0 .44-.054.6-.16q.12-.12.2-.28t.12-.28q.04-.16.04-.32v-.32q.08-.561.12-1.08l.08-1.12q0-.56.04-1.16t.04-1.2q0-.081.04-.24a2.2 2.2 0 0 0 0-.6.7.7 0 0 0-.2-.52.66.66 0 0 0-.44-.24 4 4 0 0 0-.56-.04h-.2a25 25 0 0 0-2.4.04q-1.36.08-2.32.64v.04q-.6.28-1.16.64-.52.32-1 .72-.12.08-.28.28-.12.16-.28.28t-.44.08q-.32 0-.36-.2a1.2 1.2 0 0 1 0-.44q.04-.24 0-.32v-.12l-.04-.04q0-.081.04-.12a4 4 0 0 0-.12-.6.83.83 0 0 0-.24-.48.93.93 0 0 0-.68-.28q-.4-.04-.76-.08a20 20 0 0 0-2.24-.2 32 32 0 0 0-2.24 0h-.44a2.3 2.3 0 0 0-.44-.04q-.24 0-.48.04l-.04.04-.44.2v.04a.7.7 0 0 0-.2.52q0 .32.04.64v.28q.04.8.04 1.6.04.759.08 1.56.2 2.36.12 5.12a49 49 0 0 1-.32 5.08q0 .76-.04 1.52l-.08 1.52-.08.72v.72q.04.12.12.28.08.12.12.24l.52.4q.2-.04.24.12v.04z"/><path fill="#000" d="M160.688 23.467a.35.35 0 0 1 .16.04q.12-.04.36 0h.28a2 2 0 0 1 .28-.04q.04 0 .08-.04l.6-.16.48-.16.32-.12v-.32l-.52.16-.72.2-.64.24q-.16.08-.24-.08-.04-.201.12-.24l.64-.28h.04l.68-.2.64-.2v-.28l-.48.24-.64.28h-.04l-.6.2q-.16.039-.24-.12-.04-.16.12-.24l.6-.16.64-.32.64-.28v-.4l-.48.2-.64.28-.64.24q-.16.039-.24-.12-.04-.16.12-.24l.6-.2.64-.32h.04l.64-.24v-.24l-.6.2-.6.28-.72.32q-.16.08-.24-.12-.08-.16.12-.2l.68-.32.6-.32h.04l.72-.24q0-.16.04-.36l-.72.28-.68.32-.64.24q-.16.039-.24-.12-.04-.16.12-.24l.6-.2.72-.32.84-.36q.04-.32-.04-.4l-.72.28-.56.32h-.04l-.68.2q-.2.04-.24-.16-.04-.16.12-.2l.68-.16.56-.32h.04l.68-.32h.04l.2-.08v-.24l-.64.24-.68.28-.64.28q-.16.08-.24-.08t.08-.24l.64-.28v-.04l.72-.24.8-.32q0-.24-.12-.32h-.04l-.68.24-.72.2-.6.2q-.16.08-.24-.08-.04-.201.12-.24l.6-.24h.04l.68-.16.68-.24.36-.16a.9.9 0 0 1 .12-.32l-.64.28-.6.2-.6.28q-.16.08-.24-.08t.08-.24l.44-.2q0-.04-.04-.04-.04-.201.12-.24l.72-.24.68-.16.4-.16q.36-.4 1.12-.6.28-.08.56-.08h.8q.16 0 .28-.04a31 31 0 0 1 1.56-.04 16 16 0 0 1 1.6 0q.4 0 .76.04h1.04q.16 0 .32.04.16 0 .32.04 1.28.32 1.52 1.6.04.28 0 .56v.48a.8.8 0 0 0-.04.24v.28a38 38 0 0 0-.04 1.76v1.76q-.04.32-.04.72v.04h.76q.72.04 1.4.08.72.04 1.44.04a.7.7 0 0 1 .2.04q.48 0 .92.08t.8.44q.24.2.32.48.12.279.16.6.04.12.04.28v.28q-.04.159-.04.24v1.36q-.04.52-.04 1.04v1.84q-.16.72-.52 1.08-.32.36-1.04.48l-.04.04h-.52a4 4 0 0 0-.52.04l-.68.32-.6.2q-.16.08-.24-.08-.04-.16.12-.24l.68-.28h-.4l-.4.12-.56.2h-.04l-.56.16q-.16.08-.24-.08-.04-.201.12-.24l.44-.16a.7.7 0 0 0 .16-.04h-.32l-.44.12-.36.16v2.28q0 .52.08 1 .04.36.08.76.04.36.4.56.2.16.48.16h.92q.56 0 1.12.04.6.039 1.16.12.56.039 1.04.12.52.08.92.48t.44.88q.08.44.08.96v1.96q.04.88.04 1.76v.2q0 .48-.04.92t-.44.84q-.36.36-.8.4-.44.08-.92.08h-1.32l-.44.16-.68.28q-.12.08-.2-.04l-.44.12q-.16.08-.24-.12l-.52.16q-.16.08-.2-.08v-.04l-.64.24q-.2.08-.24-.08-.08-.16.08-.24l.68-.24-.32.04-.32.16-.6.28q-.16.08-.24-.08t.08-.24h-.04l-.48.24q-.16.08-.24-.08a.17.17 0 0 1 0-.16l-.52.12q-.04.04-.08.04a.6.6 0 0 1-.24-.08q.04 0 0 0l-.6.2q-.2.039-.24-.12-.04-.16.12-.24l.48-.12a.4.4 0 0 1-.16-.04l-.44.16-.68.28q-.16.08-.24-.08a.17.17 0 0 1 0-.16l-.52.16q-.16.08-.2-.12-.08-.16.08-.2l.88-.32q-.04 0-.08-.04h-.08l-.04-.04q-.08-.04-.24.04l-.68.28-.72.2q-.16.039-.2-.12-.04-.201.12-.24l.68-.16.56-.28q-.04 0-.08-.04l-.36.16h-.04l-.6.2-.64.28q-.16.08-.24-.08t.08-.24l.64-.28-.56.12-.68.24q-.16.08-.2-.12-.08-.16.12-.2l.64-.24.64-.2.4-.2-.16-.08a.7.7 0 0 0-.28-.04h-.04l-1.28.4-.72.28q-.16.08-.24-.08-.04-.16.12-.24l.68-.32h.04l.68-.2.6-.16a1.6 1.6 0 0 1-.24-.2l-.48.24-1.28.56-.6.24q-.16.039-.24-.12-.08-.16.12-.24l1.2-.48.68-.32.28-.12-.28-.28-.44.16-.56.2-.68.32-.64.32q-.16.08-.24-.12-.08-.16.08-.2l.64-.32.68-.32.6-.24.24-.08-.32-.24-.48.12-.6.32-1.32.44q-.2.039-.24-.12-.04-.16.12-.24l.6-.16.68-.28.64-.28h.04l.28-.12a3 3 0 0 1-.32-.28l-.44.2-.72.24-1.28.56q-.16.08-.24-.08t.08-.24l.64-.32.68-.24v-.04l.68-.2.36-.16a4 4 0 0 1-.32-.36l-.32.16-1.28.56-.64.32q-.16.08-.24-.08t.08-.24l.68-.32.6-.32.68-.24.2-.12a3 3 0 0 1-.36-.44l-.12.04-.56.28h-.04l-.6.2-.56.28q-.16.08-.24-.08t.04-.24l.6-.28.04-.04.6-.16.56-.28h.04l.08-.04-.08-.16a2 2 0 0 0-.08-.2l-.72.2-.56.28h-.04l-.64.2q-.16.039-.24-.12-.04-.201.12-.24l.68-.16.56-.28.76-.24-.08-.24a.4.4 0 0 0-.16-.2l-.6.28-.64.2-.6.28q-.16.08-.24-.04-.08-.16.08-.28l.6-.28.04-.04.64-.16.56-.32.2-.08-.08-.48-.6.32-.6.2-.68.24q-.16.039-.2-.12-.08-.16.12-.2l.64-.24.56-.24.6-.28h.04l.08-.04q-.04-.28-.12-.36l-.56.24-.68.28-.64.24q-.16.08-.24-.08t.08-.24l.68-.28.64-.24.8-.32v-.24a1 1 0 0 1-.04-.24l-.6.24-.6.28-.6.24q-.16.08-.24-.08t.08-.24l.6-.28.64-.24.72-.28q0-.24-.04-.36l-.68.28-.56.28-.6.32q-.16.08-.24-.08t.08-.24l.6-.32.56-.28.68-.28.16-.08v-.36l-.6.16-.56.24h-.04l-.68.2q-.16.08-.24-.12-.04-.16.12-.2l.68-.24.6-.2v-.04l.68-.2v-.28l-.68.28-.6.32-.64.28q-.16.039-.24-.12-.08-.16.12-.24l.6-.24.6-.32.84-.36q0-.28-.04-.4l-.56.28-.6.24-.64.24q-.16.08-.24-.12-.04-.16.12-.2l.6-.24.64-.24.64-.32.04-.04v-.28l-.68.2-.64.24-.68.28q-.16.08-.24-.08t.08-.24l.68-.28.04-.04.64-.2.76-.28v-.32l-.56.28-.6.16-.56.24q-.16.08-.24-.12-.04-.16.12-.2l.56-.24h.04l.56-.2.68-.32v-.36h-.12l-.4.16-.68.28-.64.2q-.16.08-.24-.08-.04-.201.12-.24l.68-.24h-.24l-.48.24-.64.2q-.16.08-.24-.08v-.04l-.44.12q-.04.039-.12 0l-.6.24q-.16.08-.24-.08t-.04-.16l-.68.24q-.16.08-.24-.08-.04-.16.12-.24l.64-.28.72-.24.24-.12-.12-.12a.5.5 0 0 0-.12-.08v.04l-.68.16-.64.28-.6.2q-.16.08-.24-.08-.08-.201.12-.24l1.2-.48h.04v-.04l.64-.16-.08-.24-.08-.24-.68.2-.56.32-.72.28q-.16.08-.24-.08t.12-.24l.68-.28.56-.32h.04l.84-.28a.55.55 0 0 0-.04-.24l-.64.32-1.16.36q-.16.08-.24-.12-.04-.16.12-.2l.6-.2.56-.2.6-.28.2-.08q0-.24-.04-.32h-.04l-.68.2-.56.28-.64.28q-.16.08-.24-.12-.08-.16.12-.24l.6-.24.56-.32h.04l.88-.24q0-.24-.04-.32l-.6.24-.6.2-.6.24q-.16.08-.24-.08t.08-.24l.6-.24v-.04h.04l.6-.16.56-.28a.7.7 0 0 0 .16-.04q0-.2-.04-.32l-.72.32-.56.24h-.04l-.6.16q-.16.08-.24-.12-.04-.16.12-.2l.64-.2.56-.2.68-.32q.04 0 .2-.04a.3.3 0 0 0-.04-.12v-.16l-.6.28-.68.2-.6.2q-.16.039-.24-.12-.04-.16.12-.24l.64-.16.64-.24.72-.28a1.3 1.3 0 0 0-.04-.32l-.6.2-.68.28-.72.32q-.16.039-.24-.12-.08-.16.12-.24l.68-.28.72-.28.72-.24v-.36l-.48.16-.64.28h-.04l-.68.16q-.2.08-.24-.12-.04-.16.12-.2l.72-.2.64-.24.68-.24q.04-.12.08-.2l-.28.12-.72.28q-.12.08-.2 0l-.44.2q-.16.08-.24-.08t.08-.24l.64-.32h.04l.56-.2.52-.12.28-.12.2-.12a1 1 0 0 1 .4-.24q.28-.08.64-.2m13.16 20.8h.08l.32-.04h.04q.96-.04 1.88-.04.96-.04 1.88-.04h.8a.75.75 0 0 0 .44-.2.66.66 0 0 0 .2-.48q.04-.28 0-.52v-.24q0-.921-.04-1.8v-2.04q0-.28-.04-.56a.7.7 0 0 0-.2-.52.86.86 0 0 0-.52-.24 2 2 0 0 0-.56-.08h-.28a16 16 0 0 0-2.24-.16h-.32a8 8 0 0 1-.8-.04 1.95 1.95 0 0 1-.76-.24q-.56-.36-.72-.88a5.6 5.6 0 0 1-.2-1.16 7 7 0 0 1-.08-1.04v-2.6q-.08-.12 0-.2-.08-.08-.04-.16v-.04a1.3 1.3 0 0 1-.04-.32q0-.16.2-.32.16-.16.32-.16a.7.7 0 0 1 .32.08q.2.04.28.04.2 0 .36.04h.36l1.04.08h1.08q.32.04.64.04h.68q.44-.12.56-.24.12-.16.2-.6.04-.12 0-.4v-1.28q0-.52.04-1.04v-1.32q0-.08.04-.2v-.4l-.08-.32a.6.6 0 0 0-.16-.28.83.83 0 0 0-.48-.24 4 4 0 0 0-.56-.04h-.24q-.72 0-1.44-.04-.68-.04-1.4-.08h-.68q-.12 0-.28.04t-.32.04-.32-.2q-.16-.16-.16-.32a1.3 1.3 0 0 1 .04-.32q.04-.16.04-.28 0-.4.04-.68v-1.8q0-.88.04-1.76 0-.16.04-.48v-.4q.04-.24 0-.48-.08-.44-.24-.56-.12-.16-.56-.28a2 2 0 0 0-.44-.04h-1.04a7 7 0 0 0-.76-.04 15 15 0 0 0-1.52 0q-.76 0-1.52.04a.9.9 0 0 1-.28.04h-.76q-.24 0-.44.04-.48.12-.64.28-.12.16-.24.64l-.08.48v.96q-.12 1.92-.12 3.72v.76q.04.36.04.72a.3.3 0 0 1-.04.12.5.5 0 0 1-.08.12q-.16.16-.32.16t-.36-.04a.64.64 0 0 0-.32 0h-.8q-.4 0-.8.04-.08 0-.24-.04h-.24q-.12 0-.24.04l-.32.08a.6.6 0 0 0-.28.16q-.12.08-.16.28-.04.16-.04.28v.68q.04.32.04.64.04.639.04 1.32.04.64.04 1.28v.2a2.2 2.2 0 0 0-.04.44q.04.24.2.36.12.12.28.16h.32q.16.04.44-.04a.6.6 0 0 0 .24-.04q.4-.04.76-.04.4-.04.76-.04a.9.9 0 0 0 .28-.08q.2-.04.36-.04t.32.16q.2.16.2.32t-.04.32a1.7 1.7 0 0 0-.04.32v.68l.08 2.32q.04 1.119.12 2.28 0 .84.12 1.68.12.8.48 1.6.84 1.08 2.12 2.2t2.48 1.84q.2-.04.24.12v.04q.16.04.36.08l.24-.04q.2-.04.24.12v.04q.16.04.28.08l.28-.12q.16-.04.24.12v.08q.12 0 .28.04l.32-.12q.16-.08.24.08v.08q.12.04.24.04l.32-.16q.16-.08.24.08l.04.04zm-5.4-.04a.5.5 0 0 0-.12-.08l-.56.28z"/><path fill="#000" d="m182.097 21.867.24-.08.04-.04.44-.16-.16-.2-.48.2-.68.32-.68.28-.6.24q-.159.08-.24-.08t.08-.24l.64-.28.64-.24.72-.32.4-.16a1.4 1.4 0 0 0-.08-.2 1.4 1.4 0 0 0-.08-.2l-.28.12-.04.04-.64.16-.72.24-.6.16q-.159.08-.24-.12-.039-.16.12-.2l.64-.2.68-.2.64-.2.28-.16v-.04q-.04-.201-.2-.24l-.56.2-.64.28-.6.28q-.159.08-.24-.08t.08-.24l.6-.28.64-.28.04-.04.6-.16.2-.08q0-.201-.08-.24l-.6.24-1.28.56q-.159.08-.24-.12-.08-.16.12-.24l.6-.24.68-.28.56-.24.24-.12v-.12q-.04-.12-.16-.08l-.64.2-.56.2-.68.28q-.159.08-.24-.08t.08-.24l.68-.28v-.04h.04l.56-.16.6-.24.28-.12a.64.64 0 0 0-.16-.36l-.68.2-.64.28-.68.24q-.159.08-.24-.08-.039-.16.12-.24l.64-.28.68-.24v-.04l.88-.2v-.32l-.68.24-.56.2h-.04l-.6.2q-.159.039-.24-.12-.039-.16.12-.24l.64-.16.56-.24.8-.24a1.4 1.4 0 0 1-.04-.32l-.56.28-1.2.56q-.159.039-.24-.12-.08-.16.08-.24l.6-.24 1.2-.56v-.04h.12v-.28l-.52.28-.64.24-.64.28q-.159.08-.24-.08t.08-.24l.64-.28v-.04h.04l.64-.2.56-.32.08-.04v-.2q-.04 0-.28.08l-.6.24-.64.2q-.159.08-.24-.12-.039-.16.12-.2l.76-.28q0-.08.08-.08l.44-.12.52-.24q.12-.28.36-.48.36-.36.8-.4.44-.08.92-.08h3.24q.76 0 1.52.04h.48q.6 0 1.16.12.561.08.96.56.36.4.36.88.04.44-.04.92v.16a40 40 0 0 0-.12 1.76 20 20 0 0 0 0 1.76v.2q0 .48-.04.92t-.4.84q-.2.24-.48.36a2.2 2.2 0 0 1-.6.16q-.16.04-.32.04a1.3 1.3 0 0 0-.32-.04.6.6 0 0 1-.24-.04q-.36 0-.72-.04a51 51 0 0 0-.68-.08.17.17 0 0 1-.16 0h-.12l-.4.2q-.159.08-.24-.08-.08-.08 0-.16l-.72.24q-.16.08-.2-.08 0-.04-.04-.04l-.4.16q-.159.08-.24-.08t.08-.24l.24-.08a.6.6 0 0 0-.24-.04l-.56.16q-.159.04-.24-.08l-.52.24q-.159.08-.24-.08v-.12l-.44.2q-.2.08-.24-.08-.04-.04-.04-.08l-.44.12q-.16.08-.2-.08v-.08l-.6.2q-.159.08-.24-.08l-.4.2q-.039.04-.36-.04-.159.08-.24-.12-.039-.16.12-.2zm4.44-.6q.12-.04.2.04.16.04.32.04l.24-.08q.16-.04.24.12.08.04.16.04l.32-.16q.201-.04.24.12.04.04.04.08l.48-.2q.16-.04.24.12v.04l.52-.16q.201-.04.24.12v.04l.52-.16q.16-.04.24.12v.04q0-.04.04-.04a.74.74 0 0 0 .16-.48 2 2 0 0 0 0-.56v-.24a22 22 0 0 1 0-1.84q.04-.921.12-1.8 0-.081.04-.24.04-.28.04-.52a.9.9 0 0 0-.16-.52q-.24-.24-.68-.28a9 9 0 0 0-.84-.04h-.44a9 9 0 0 0-1.48-.04h-3.24q-.28 0-.56.04a.75.75 0 0 0-.48.16.83.83 0 0 0-.24.48q0 .24.04.48v.2q0 .68.04 1.32.04.639.08 1.32.04.12.04.44v.4q0 .2.04.4t.12.36q.12.16.2.32l.28.4 1.4.08q.72 0 1.48.04m3.44 23.52-.68.32-.56.28-.72.28q-.159.08-.24-.08t.12-.24l.6-.28-.56.24h-.04l-.64.16q-.159.08-.24-.08l-.56.16q-.159.08-.24-.08v-.04l-.52.28q-.159.08-.24-.08t.08-.24l.6-.28.04-.04.68-.16.32-.16h-.12l-.24.04-1.36.56-.6.24q-.2.08-.24-.08l-.04-.04-.52.24q-.159.08-.24-.08t.08-.24l.72-.32-1.2.4q-.2.08-.24-.08-.039-.08-.12-.08l-.64.16q-.2.08-.24-.12v-.04l-.44.2a.17.17 0 0 1-.16 0l-.48.2q-.159.08-.24-.08-.04-.08.04-.16a.5.5 0 0 1-.08-.12q-.039-.16.12-.2l.64-.2.56-.2.44-.4-.6.2v.04l-.6.16-.72.32-.68.2q-.2.08-.24-.08-.039-.201.12-.24l.68-.24.68-.28h.04l.6-.2.4-.16-.08-.08q-.08-.12-.08-.16l-.08-.16-.2.08-.72.28-.6.32-.64.28q-.159.08-.24-.08t.08-.24l.64-.28.6-.32h.04l.68-.28.24-.08a.8.8 0 0 0-.16-.28h-.04l-.6.2-.56.16-.64.32q-.159.08-.24-.08t.08-.24l.64-.32h.04l.56-.2.76-.24v-.24q0-.16-.08-.24l-.56.2-.56.28-.64.24q-.159.08-.24-.08t.12-.24l.6-.24.56-.28h.04l.56-.24h.04l.2-.04q.04-.24-.08-.36l-.64.2-.56.28-.72.32q-.159.08-.24-.08t.12-.24l.68-.32.56-.28.04-.04.84-.24v-.4l-.68.16-.56.32h-.04l-.64.24q-.159.039-.24-.12-.039-.16.12-.24l.64-.2.56-.32h.04l.76-.2a2 2 0 0 0-.04-.44l-1.2.6-.6.24q-.159.08-.24-.08t.08-.24l.6-.28.56-.24.64-.32a.7.7 0 0 0 .16-.04v-.28l-.64.28-.56.16-.6.28q-.159.08-.24-.08-.08-.201.08-.24l.6-.28h.04l.56-.2.72-.32v-.32l-.48.24-.6.2-.64.28q-.159.08-.24-.08t.08-.24l.64-.28v-.04h.04l.6-.16.6-.32v-.52l-.56.24-1.2.6q-.159.08-.24-.08t.08-.24l1.2-.6h.04v-.04l.56-.2a.3.3 0 0 0 .12-.04v-.32l-.56.28-.68.28h-.04l-.6.2q-.159.039-.24-.12-.039-.201.12-.24l.64-.2.68-.24.56-.28v-.04l.12-.04v-.16q.04-.2.04-.32l-1.12.56-.6.32q-.159.08-.24-.08t.08-.24l.6-.32 1.2-.6q.04 0 .08-.04v-.28l-.48.24v.04l-.68.16-.56.24q-.159.039-.24-.12-.039-.16.12-.24l.56-.2h.04l.64-.2.56-.28.04-.04v-.48l-.6.24-.68.32h-.04l-.64.16q-.2.08-.24-.12-.039-.16.12-.2l.64-.2 1.44-.56q0-.2-.04-.44l-.64.32-.6.2-.72.28q-.159.08-.24-.12-.039-.16.12-.2l.68-.28.64-.24.64-.28q.04-.04.12-.04v-.32l-.48.2-.64.28-.6.24q-.159.08-.24-.08t.08-.24l.6-.24.68-.28.56-.24v-.44l-.44.16-.56.24q0 .039 0 0l-.64.24q-.159.08-.24-.12-.039-.16.12-.2l.6-.24.56-.24.04-.04.56-.2q0-.12-.04-.28l-.4.16-.68.32-.64.32q-.159.08-.24-.08t.08-.24l.64-.32.72-.32.52-.24q0-.24.04-.48l-.44.2-.72.2-.64.2q-.159.08-.24-.08-.039-.201.12-.24l.68-.24.68-.16.56-.28v-.4l-.56.28-.72.2-.6.24q-.159.039-.24-.12-.039-.16.12-.24l.64-.2.68-.24.64-.28.04-.04q0-.16.04-.28l-.56.24-.64.24-.68.24q-.159.039-.24-.12-.039-.201.12-.24l1.32-.44.6-.32.08-.04v-.36l-.56.28-.68.24h-.04l-.64.2q-.2.039-.24-.12-.039-.16.12-.24l.68-.16.68-.28.72-.32v-.36l-.68.28-.56.24h-.04l-.68.2q-.2.039-.24-.12-.039-.201.12-.24l.72-.2.56-.2.8-.36v-.44l-.6.24-.64.24-.72.28q-.159.08-.24-.08t.12-.24l.68-.32h.04l.64-.24.76-.28v-.44l-.56.2-.6.24-.68.24q-.159.039-.24-.12-.039-.16.12-.24l.68-.2.6-.24.56-.24h.12q0-.32-.08-.4l-.56.16-1.28.48q-.159.08-.24-.08t.12-.24l.6-.28h.04l.64-.2.84-.28q.04-.12.12-.24l-.52.16-.6.16q0 .04-.04.04l-.68.2q-.159.08-.24-.12-.039-.16.12-.2l.72-.24.56-.2.72-.2.36-.16q.36-.321.8-.36.48-.08.96-.04h.96q1.2.039 2.36 0 1.2-.08 2.4-.2h.16a6 6 0 0 1 1 0q.48 0 .88.4t.44.88q.04.44 0 .92v.2l-.08 1.48q-.039.72 0 1.48.081 1.56.12 3.16.08 1.56.08 3.08 0 1.32-.08 2.64-.08 1.28-.08 2.6v2.4q0 .48-.08.96-.039.48-.48.84-.36.36-.8.4-.44.08-.92.08m-7-1.36.52.44q1.36-.12 2.68-.08h2.68q.44.04.8.04h.88a.7.7 0 0 0 .52-.2.82.82 0 0 0 .24-.48 2 2 0 0 0 0-.56v-2.48q0-1.32.08-2.6.08-1.32.08-2.64 0-1.52-.08-3.08-.039-1.56-.12-3.12a15 15 0 0 1 0-1.52l.08-1.56q0-.04.04-.24v-.52a.65.65 0 0 0-.2-.48q-.159-.16-.48-.16a2 2 0 0 0-.56 0 1 1 0 0 1-.24.04q-1.2.12-2.44.2-1.2.039-2.4 0h-1.04a2.3 2.3 0 0 0-.6 0 .66.66 0 0 0-.48.2.87.87 0 0 0-.24.52v.8l-.08 1.6v1.56l-.08 1.52q0 .72.04 1.48v.48q.04.24.04.52v.88q.04.44.04.88v.72q0 .36-.04.72 0 .72-.04 1.48 0 .72.08 1.44 0 .56.04 1.12.04.52.04 1.04v.56a2.3 2.3 0 0 0-.04.44q0 .2.04.4l.08.32z"/><path fill="#000" d="M202.467 15.507q.12-.08.2.04.6-.24 1.28-.52h.08q1-.28 2.08-.4 1.12-.16 2.2-.2a9.7 9.7 0 0 1 1.76 0h1.4q.48-.04.92.04.44.04.8.4.24.2.32.48.12.28.2.56.04.16.04.28v1.2q.04.32.04.64v1.04q.04.48.04 1v.12q.04.519-.04.96-.04.44-.44.84-.36.4-.8.44t-.96.04h-.08q-.2 0-.44-.04l-.84.36h-.08 1.12q.48 0 .92.04t.8.44q.4.399.4.84.04.44.04.92a.35.35 0 0 0-.04.16 40 40 0 0 1-.12 1.76l-.08 1.76q0 .56-.08 1.08-.04.48-.44.92-.4.4-.92.52-.48.08-1.04.12l-.6.08q-.28 0-.56.04l-.56.2h-.04l-.68.2q-.16.08-.24-.08l-.32.12v1.08q.04.52.04 1.04l.08 2.32a34 34 0 0 1 .08 2.32v1.32q0 .64-.04 1.28v.52q-.04.48-.04.8v.2q0 .48-.08.96a1.5 1.5 0 0 1-.44.8q-.4.4-.88.44-.44.08-.92.08h-.2q-.2.04-.4.04h-.36l-.48.24-.72.28q-.16.08-.24-.08v-.08l-.4.2q-.16.08-.24-.08t.08-.24l.36-.16-.52.16-.6.16q-.16.08-.24-.12v-.04l-.44.2q-.16.08-.24-.08l-.4.12q-.16.08-.24-.08 0-.12-.08-.08h-.04l-.64.2q-.2.08-.24-.08-.04-.12.04-.2l-.56.12q-.12.04-.2-.08l-.56.24q-.16.08-.24-.08a.17.17 0 0 1 0-.16l-.44.2q-.2.08-.24-.08l-.44.16q-.16.08-.24-.08v-.12a.5.5 0 0 1-.08-.12q-.04-.16.12-.2l.68-.2.6-.16.2-.12-.08-.08a.6.6 0 0 0-.16-.12l-.6.28-.68.28-.56.2q-.16.08-.24-.08t.12-.24l.56-.24.64-.24.64-.28a.5.5 0 0 0-.12-.2 2 2 0 0 0-.12-.2l-.72.32-.6.28h-.04l-.56.16q-.16.08-.24-.08-.04-.201.12-.24l.56-.2.64-.24.68-.32a.7.7 0 0 0 .16-.04v-.36l-.6.32-.6.28-.6.2q-.16.08-.24-.08-.04-.16.12-.24l.56-.24.6-.24.6-.32.16-.08v-.48l-.6.16-.56.32-.72.32q-.16.039-.24-.12-.08-.16.12-.24l.68-.28.56-.32h.04l.72-.2v-.44l-.6.28-.6.24h-.04l-.68.2q-.2.039-.24-.12-.04-.201.12-.24l.72-.16.6-.24.6-.28v-.04h.12v-.44l-.6.28-.64.24h-.04l-.64.2q-.2.039-.24-.12-.04-.16.12-.24l.68-.16.64-.28.56-.24q.04-.04.16-.04v-.4l-.6.24-.56.2-.6.32q-.16.08-.24-.08t.08-.24l.6-.32.6-.24.64-.24h.04l.04-.04v-.36l-.68.24-.64.28-.04.04-.56.16q-.16.08-.24-.12-.04-.16.12-.2l.56-.2.64-.28.04-.04.8-.24v-.52l-.64.2-.64.32-.6.2q-.16.08-.24-.08-.04-.201.12-.24l.56-.24.64-.28h.04v-.04l.76-.2v-.4l-.6.24-.64.32h-.04l-.68.2q-.16.08-.24-.08-.04-.201.12-.24l.68-.24.64-.28h.04l.56-.24q.04 0 .2-.04 0-.24-.04-.32h-.04l-.56.16-.72.24-.68.24q-.16.039-.24-.12-.04-.201.12-.24l.72-.24.68-.2.56-.2.24-.08q0-.28-.04-.36h-.04l-.6.16-.6.28h-.04l-.6.2q-.16.039-.24-.12-.04-.201.12-.24l.6-.16.64-.28.84-.28v-.48l-.68.28v.04l-.72.16-.64.24q-.16.039-.24-.12-.04-.16.12-.24l1.36-.4.64-.28v-.04a.7.7 0 0 0 .16-.04v-.28l-.72.28-.56.16-.72.32q-.16.08-.24-.12-.08-.16.12-.2l.68-.32h.04l.56-.2.88-.36q0-.12-.04-.28 0-.08-.08-.08l-.72.28-.64.28-.68.32q-.16.08-.24-.08t.08-.24l1.32-.64h.04l.68-.24.24-.12q0-.28-.08-.36h-.04l-.64.24-.72.28-.68.2q-.16.08-.24-.12-.04-.16.12-.2l.68-.24.72-.28.64-.2.2-.12v-.4l-.72.28-.68.32h-.04l-.68.2q-.16.08-.24-.12-.04-.16.12-.2l.68-.24.72-.28.8-.32v-.36q0-.04-.08-.08l-.68.24-.64.2-.56.2q-.16.08-.24-.08l-.48.16q-.16.08-.24-.08v-.04l-.32.12q-.12.04-.2-.04l-.36.16q-.16.08-.2-.08-.04-.04-.04-.08l-.6.28q-.16.08-.24-.08t.08-.24l.64-.32.64-.28.72-.36a.9.9 0 0 1-.32-.16l-.36.12-.6.24-.68.2-.56.24q-.16.08-.24-.08t.08-.24l.6-.28h.04l.64-.16.8-.32a1.3 1.3 0 0 1-.2-.16.6.6 0 0 0-.24-.2l-.64.28-.64.24-.6.2q-.16.08-.24-.08-.04-.16.12-.24l.6-.24.64-.2.6-.28a.7.7 0 0 0 .2-.08q0-.081-.04-.24l-.56.28-.68.24-.64.24q-.16.08-.24-.12-.04-.16.12-.2l.64-.24.68-.28.64-.28v-.36l-.68.24v.04l-.68.16-.68.32q-.16.08-.24-.12-.08-.16.12-.2l.68-.32h.04l.64-.2.64-.24v-.04h.12v-.32l-.64.16-.6.32-.64.24q-.16.08-.24-.08t.12-.24l.6-.24.6-.32h.04l.72-.2v-.32l-.44.12-.64.32-.64.24q-.16.08-.24-.08t.12-.24l.6-.28.64-.28h.04v-.04l.52-.12v-.36l-.52.24-.56.24-.64.28q-.16.08-.24-.08-.08-.201.12-.24l1.2-.56.64-.24v-.24l-.44.12-.56.24h-.04l-.6.2q-.16.039-.24-.12-.04-.201.12-.24l.64-.16.56-.24.56-.16v-.36l-.48.16-.6.28h-.04l-.68.2q-.16.08-.24-.08-.04-.201.12-.24l.68-.24 1.28-.48v-.24q0-.04.04-.08l-.32.08-.56.24-.04.04-.64.2q-.16.08-.24-.12-.04-.16.12-.2l.72-.28.08-.04.6-.28.44-.16q.16-.24.36-.44t.48-.28q.32-.081.6-.12h.24q0-.12.12-.2l.6-.24.64-.32h.04l.56-.2.24-.12q0-.24.04-.44l-.68.2-1.4.36q-.16.039-.2-.12-.08-.16.12-.24l.68-.16.72-.2.8-.24q.04-.24.08-.44l-.56.2-.72.32-.72.24q-.16.039-.2-.12-.08-.201.12-.24l.68-.2.68-.32.84-.28.08-.4-.56.24-.68.32-.6.32q-.16.08-.24-.08t.08-.24l1.28-.64.72-.32.16-.04a2 2 0 0 0 .08-.2l-.32.16h-.04l-.72.2-.6.2q-.16.039-.24-.12-.04-.201.12-.24l.64-.2.68-.16.56-.28v-.04l.12-.04.16-.24-.44.16-.64.16-.64.2q-.2.039-.24-.12-.04-.16.12-.24l.52-.12a.26.26 0 0 1-.12-.12q-.04-.16.12-.24l.6-.2.64-.28.24-.12-.64.2q-.16.039-.2-.12-.08-.201.12-.24l.44-.12q.04-.12.12-.16l.52-.2.08-.08.68-.28.04-.04.44-.12.4-.16.64-.28.48-.2a.3.3 0 0 1 .12-.04zm5.32 14.96q.12-.04.2.12h.16a3 3 0 0 1 .32-.08q.16-.08.24.04h.24a3 3 0 0 1 .32-.08.35.35 0 0 1 .16.04q.28-.04.56-.04l.64-.08q.32-.04.68-.04a.93.93 0 0 0 .64-.32.83.83 0 0 0 .24-.48 5 5 0 0 0 .04-.64v-.24l.08-1.76q.08-.88.12-1.8 0-.04.04-.2.04-.28 0-.52 0-.28-.16-.44a.53.53 0 0 0-.44-.2 1.7 1.7 0 0 0-.52 0h-3.24q-.12 0-.32.04-.16 0-.32.04-.12 0-.32-.12a.5.5 0 0 1-.2-.28v-.36q-.04-.16.08-.24v-.12q0-.08.04-.16-.12-.04-.12-.16-.04-.16.24-.24a.5.5 0 0 1 .08-.12q.32-.44.76-.52.48-.12.96-.12.4 0 .8.04h.76l.48.08h1.2a.53.53 0 0 0 .44-.2q.2-.2.2-.44.04-.28.04-.56a.7.7 0 0 1-.04-.2q0-.52-.04-1v-1.04q-.04-.64-.04-1.36v-.56l-.08-.32a.4.4 0 0 0-.16-.24.65.65 0 0 0-.48-.2 4 4 0 0 0-.56-.04q-.16.04-.24.04h-1.16a9.7 9.7 0 0 0-1.76 0q-1.04.04-2.08.2-1 .12-2 .36-1.2.44-2.6 1.12-1.36.68-2.28 1.64a5.7 5.7 0 0 0-.76 1.8 9.6 9.6 0 0 0-.28 1.92q-.04.24-.04.48v.48q0 .08.04.24v.32q0 .16-.2.28-.16.16-.32.16l-.32-.08a1.2 1.2 0 0 1-.28-.08h-.04q-.36-.04-.72-.04c-.36 0-.48-.027-.72-.08h-.2q-.28-.08-.44-.04-.12 0-.32.04a.9.9 0 0 0-.28.12q-.08.12-.16.28a.8.8 0 0 0-.04.24 5 5 0 0 0-.04.64v1.76l.08 1.12q0 .12.04.24v.24q0 .28.04.56a.8.8 0 0 0 .24.44q.2.16.44.2.28.039.56 0h1.84q.16-.04.32-.04t.32.16q.16.2.16.36v.36a1.7 1.7 0 0 0-.04.32q.04.6.04 1.24.04.6.04 1.2.04.68 0 1.36 0 .68-.04 1.36-.04.36-.04.72c0 .36-.013.48-.04.72v5.64a1.6 1.6 0 0 0 .12.32q.08.12.16.28l.36.24h3.08q1.28 0 2.52-.04h.4q.2 0 .4-.04h.28q.28.039.56 0a.86.86 0 0 0 .52-.24.66.66 0 0 0 .2-.48q.04-.28.04-.56v-.28q0-.32.04-.76v-.56q.04-.64.04-1.24v-1.28q0-1.2-.08-2.36l-.08-2.32q0-.56-.04-1.16v-1.16q0-.12-.04-.32a.7.7 0 0 1-.08-.32q0-.201.16-.36.16-.2.32-.2t.32.04h.04a1.3 1.3 0 0 1 .32-.08m-9.08-12.4a.7.7 0 0 1 .12-.16l-.4.16-.6.28.64-.24zm-3 5.08h.16v.04q.28 0 .48.04h.44l.56-.2v-.56l-.6.2-.64.32zm13.64-.48-.44.12h.36q0-.081.08-.12"/><path fill="#000" d="M219.682 24.027a.17.17 0 0 1 .16 0q1.56-.6 3.12-1.04t2.44-.52q.52-.04 1.64.44 1.12.44 2.48 1.2 1.4.72 2.76 1.56t2.4 1.6q1.04.72 1.44 1.16l.08.12q.08.08.08.12.32.96.36 2 .08 1.04.08 2.04v2.32q0 1.16.04 2.28v1.36a47 47 0 0 1 0 3.88v.12q0 .52-.08 1-.04.48-.44.84-.4.4-.84.44-.44.08-.92.12h-.36l-.32.16-1.36.56q-.16.08-.24-.08t.08-.24l.68-.32h.04-.2q-.12.04-.32.08l-.6.24q-.16.08-.24-.04l-.56.28q-.12.08-.24-.08-.08-.16.08-.24l.32-.16a6 6 0 0 0-.32.12h-.04l-.68.24q-.16.08-.24-.08v-.08l-.6.2q-.16.08-.24-.08v-.16l-.44.2q-.16.08-.24-.08-.04-.04 0-.12l-.56.16q-.16.08-.2-.08-.04-.08-.12-.08l-.68.24q-.16.08-.24-.08a.17.17 0 0 1 0-.16l-.24.12q-.16.08-.24-.08t.08-.24l.4-.2-.64.2-.6.2q-.16.08-.24-.08v-.08l-.44.2q-.16.08-.24-.08t.08-.24l.68-.32.68-.2.6-.28a2 2 0 0 1-.12-.44q-.44.36-1 .64a6.4 6.4 0 0 1-1.96.72 13 13 0 0 1-2.04.32h-.08l-.32.16q-.12.04-.2-.04l-.4.12h-.12l-.72.24q-.16.08-.24-.08v-.12l-.28.08-.28.16q-.16.08-.24-.08-.04-.04 0-.12 0-.12.12-.16l.28-.12.4-.2-.84.28-.68.24q-.16.08-.24-.08-.04-.12-.12-.12l-.68.28q-.16.039-.24-.12-.04-.16.12-.24l.68-.24.88-.36-.24-.08-.56.16-.64.28h-.04l-.64.2q-.16.039-.24-.12-.04-.12.08-.2l-.52.24q-.16.039-.24-.12-.08-.16.08-.24l.68-.24.56-.32h.04l.28-.12a2 2 0 0 0-.2-.08l-.16-.08-.6.28-.64.28-.72.24q-.16.039-.24-.12-.04-.16.12-.24l.68-.2.68-.32.32-.12-.4-.24-.6.2-.64.2-.56.2q-.16.08-.24-.08t.12-.24l.56-.24q.04 0 0 0l.64-.16.36-.12a.6.6 0 0 0-.16-.12l-.16-.08-.56.2-.72.24-.64.24q-.2.039-.24-.12-.08-.16.12-.24l.64-.24.72-.2.4-.16q-.16-.12-.28-.24-.04-.04-.04-.08l-.64.2-.68.32-.6.32q-.16.08-.24-.08t.08-.24l.6-.32.72-.32.52-.16a2.2 2.2 0 0 1-.2-.44l-.64.2-.56.28-.68.28q-.16.08-.2-.12-.08-.16.08-.2l.64-.28.56-.32h.08l.6-.16a3 3 0 0 1-.12-.52l-.24.08-.64.16-.72.24-.6.24q-.16.08-.24-.08t.08-.24l.64-.28.72-.2v-.04l.68-.16.28-.08q-.04-.24-.08-.52l-.48.16-.68.16-.6.2-.68.28q-.16.08-.24-.08t.12-.24l.64-.28v-.04h.04l.64-.16.68-.2.56-.16v-.48l-.64.16-.56.2h-.04l-.68.2-.6.28q-.16.039-.24-.12-.08-.16.08-.24l.64-.24v-.04l.72-.16.56-.24.72-.2h.04v-.48l-.6.16-.64.32-.6.2-.68.28q-.16.08-.24-.08t.08-.24l.68-.32h.04l.6-.16.6-.32h.04l.6-.2a.35.35 0 0 1 .16.04q.04-.321.08-.6h-.04l-.72.32-.68.2-1.36.56q-.2.08-.24-.12-.08-.16.08-.2l.72-.28.64-.32h.04l.68-.16.68-.32q.16-.04.24.08.04-.28.08-.52l-.64.28-.6.28-.64.32h-.04l-.68.16q-.2.08-.24-.12-.04-.16.16-.2l.68-.2.64-.28.56-.28.68-.32q.08-.04.16.04.08-.2.12-.4l-1.2.4-.64.24-.64.28q-.16.08-.24-.08t.08-.24l.64-.28h.04v-.04l.64-.2.72-.28.64-.2h.08a.44.44 0 0 1 .04-.2l-.32.08-.68.28-.68.2-.6.28q-.16.08-.24-.08t.08-.24l.64-.32h.04l.64-.2.68-.24.6-.2a.3.3 0 0 0 .04-.12l-.68.16-.68.2-.56.24q-.16.08-.24-.08t.08-.24l.6-.24v-.04q0-.12.16-.16l.52-.16q-.08-.04-.08-.12-.04-.16.12-.2l.72-.2a.5.5 0 0 1-.08-.12q-.04-.16.12-.2l.32-.12v-.04q-.04-.16.12-.24l.72-.16.28-.12q.72-.48 1.52-.84a26 26 0 0 1 1.64-.64q.8-.28 1.64-.48.84-.201 1.72-.36h-1.28a1 1 0 0 0-.24.04l-.6.24q-.16.08-.24-.08-.04-.12-.08-.12l-.64.28q-.16.08-.24-.08-.04-.12.08-.24l-.6.16q-.08.039-.12 0l-.6.24q-.16.08-.2-.08-.08-.16.08-.24l.6-.24a.4.4 0 0 0-.16-.04l-.28.12-.6.28q-.16.08-.24-.08-.04-.04-.04-.08l-.52.24q-.16.08-.24-.08l-.08-.16-.68.16q-.16.08-.2-.12l-.56.2q-.16.08-.24-.08l-.4.16q-.16.08-.24-.08t.12-.24l.6-.28-.68.28h-.04l-.64.16q-.2.08-.24-.12-.04-.16.12-.2l.68-.2.68-.24.44-.16q-.32-.28-.44-.64l-.56.28-.6.32-.72.24q-.16.08-.24-.08-.04-.16.12-.24l.68-.28.6-.28.6-.32q0-.2.08-.44l-.52.2-.6.24-.64.2q-.16.08-.2-.08-.08-.201.08-.24l.64-.24.56-.2.72-.28.12-.04q.04-.04.04-.08.04-.12.08-.2l-.4.12-.64.32-.72.32q-.16.039-.24-.12-.08-.16.12-.24l.68-.28.6-.28-.52.16q-.16.039-.24-.12-.04-.201.12-.24l.52-.16q-.04 0-.04-.04-.08-.201.08-.24l.6-.24.64-.28.44-.24a.5.5 0 0 0 .12-.08l-.44.16-.56.28q-.16.08-.24-.08t.08-.24l.44-.24v-.04q-.04-.16.12-.24l.68-.2q-.2.039-.24-.12-.04-.16.12-.24l.72-.16 1.56-.52.32-.16.2-.12a.3.3 0 0 0 .12-.04l.36-.16a.17.17 0 0 1 .16 0 .5.5 0 0 1 .2-.12zm8.28 20.24q.2-.04.24.12v.04h.12l.44-.16q.16-.04.2.12h.24a3 3 0 0 1 .28-.08q.16-.08.24.04h.24a3 3 0 0 1 .32-.08q.12-.04.2.04h.28q.16 0 .32-.04h.12l1.48-.08 1.48-.08h.28q.32 0 .6-.04a.86.86 0 0 0 .52-.24.83.83 0 0 0 .24-.48 2.2 2.2 0 0 0 0-.6v-.24a46 46 0 0 0 0-3.84v-1.32a67 67 0 0 1-.04-2.32v-2.4q0-.88-.04-1.8a7 7 0 0 0-.32-1.8q-.4-.36-1.4-1.04a72 72 0 0 0-4.84-3 27 27 0 0 0-2.28-1.16q-1-.44-1.4-.4-.68.04-1.96.4-1.24.32-2.64.84-1.36.48-2.52 1.04-1.12.519-1.6.96-.4.44-.8.92-.36.48-.56 1.04a.4.4 0 0 0-.08.16.9.9 0 0 0-.12.28.6.6 0 0 0-.04.16q.12.24.32.44.2.159.4.24.08.039.4 0a1 1 0 0 1 .2-.04h.36a2 2 0 0 1 .4-.04q.68 0 1.36.04t1.36.04q.24.04.48.04h.52q.12-.04.16.04h.28q.12 0 .32-.04.12-.04.2.04h.2q.16 0 .36-.04h.16q.4-.12.84-.36l.24-.16v-.04q-.04-.16.12-.2l.28-.08a1 1 0 0 1 .4-.24q.24-.12.68-.16.16-.08.24.04.4.04.64.2.16-.08.24.08v.12q.28.28.44.92v.32q.04.12.04.28v.28q.08.12 0 .28-.04.16-.24.2a3 3 0 0 1-.52.04q.12.2.36.24h-.08a.5.5 0 0 1-.12-.08.4.4 0 0 1-.2-.16q-.72.12-1.44.2-.72.039-1.48.12-.96.16-1.96.4a15 15 0 0 0-1.88.52 18 18 0 0 0-1.84.76 6.1 6.1 0 0 0-1.64 1.04q-.4.44-.72 1.52a14 14 0 0 0-.48 2.32q-.12 1.28-.04 2.36.12 1.08.56 1.52l.04.04q.92.88 2.32 1.48 1.4.56 2.6.84h1.28q.96-.081 1.88-.24.92-.2 1.76-.68.52-.28.96-.6-.04-.16.2-.2l.08-.08a1 1 0 0 0 .32-.44q.12-.24.48-.24.36-.04.36.2.04.2 0 .44v.24q0 .08-.04.24v.48q.04.24.2.44.12.12.44.12m-4.92-13.44q.36-.04.76-.08.04-.04.08-.04l.56-.28h.04l.68-.2.6-.2q-.08-.201-.16-.24-.08-.08-.4-.08l-.28.12-.36.12a.6.6 0 0 0-.16.12l-.2.2-.24.16q-.44.24-.92.4m2.12-.2q.4-.04.68-.08v-.16l-.56.2zm-.08 8.48v.04h-.04l-1.08.24h-.16a2 2 0 0 0-.56-.08 1.03 1.03 0 0 1-.52-.24q-.52-.4-.6-.96-.08-.6.36-1.12.16-.2.36-.32l.4-.24q.04-.04.24-.08a5 5 0 0 1 .52-.12q.28-.081.56-.12l.24-.08h.12a.4.4 0 0 0 .16-.04 3 3 0 0 1 .28-.08.17.17 0 0 1 .16 0 .4.4 0 0 0 .16-.04q.08-.04.28-.08.04-.04.08-.04 0-.12.04.04h.04q.04-.04.12-.04a3 3 0 0 1 .32-.08q.12-.08.2.04.24.08.2.36 0 .2-.04.44 0 .24-.04.48a3 3 0 0 1-.12.48q-.08.2-.2.44-.28.52-.64.76-.32.2-.84.44m.72-1.84-.36.12-1.2.56q-.16.08-.24-.08-.04-.16.12-.24l.56-.28.6-.28q.04 0 .04-.04l.6-.2v-.04q-.2.08-.44.12l-.48.08q-.32.08-.68.12a2 2 0 0 0-.64.2l-.24.12a.4.4 0 0 0-.2.16q-.36.399.08.72.08.08.4.12l.52-.2.68-.32.64-.24a1 1 0 0 0 .16-.24zm-8.52 7.44-.64.2-.56.32h-.04l.56-.16.68-.28v-.04h.08q-.04-.04-.08-.04"/><path fill="#000" d="M245.325 23.827q.159-.04.24.12v.04a31 31 0 0 1 3.72-.76q2-.32 3.6-.32 1.599 0 2.16.44a57 57 0 0 1 3.52 2.32 22 22 0 0 1 3.24 2.64l.04.08q.04.04.08.04.2.399.36.84.2.399.28.84.04.039.04.12.08.24.12.48.039.2 0 .44-.08.72-.52 1.16-.2.2-.52.32a4 4 0 0 1-.56.12q-.28.08-.56.08t-.6-.04h-.8l-.4.16-.64.24q-.16.08-.24-.08v-.08l-.56.2q-.201.08-.24-.08 0-.04-.04-.04l-.4.16q-.16.08-.24-.08-.081-.16.12-.24l-.56.2q-.201.08-.24-.08-.081-.16.24-.28l-.28.08-.64.2q-.16.08-.24-.08v-.04l-.48.12q-.16.08-.2-.12-.04-.04-.08 0l-.6.24q-.16.08-.24-.08l-.4.16q-.201.08-.24-.08-.04-.04-.04-.08l-.48.12q-.16.08-.24-.12-.04-.16.12-.2l.6-.2.32-.12q-.04 0-.24.04l-.64.24-.6.2q-.16.08-.24-.04l-.68.24q-.16.08-.24-.08-.04-.16.12-.24l.64-.28.6-.2.6-.32h.04a3 3 0 0 0-.32-.28 3 3 0 0 0-.28-.32l-1.08.48-.68.32h-.04l-.64.2q-.16.08-.24-.08-.04.24-.08.52v.48q0 .24-.04.48v1.4q0 .28.08.76.12.48.32.88.24.399.64.36.12 0 .4-.08.159-.12.12-.2-.16.08-.24-.08-.081-.16.12-.24l.6-.24a.6.6 0 0 1 .12-.16 4.9 4.9 0 0 1 1.44-.96 1 1 0 0 1 .36-.08h.4q.2.04.32.04h.8a9 9 0 0 1 .84-.04q1 0 1.96.04 1 0 2 .04.4 0 .8.04.4 0 .8.04h.12q.72.2 1.16.6.44.36.52 1.16 0 .24-.04.52a3 3 0 0 1-.12.48.3.3 0 0 0-.04.12q-.2.72-.56 1.36-.321.6-.72 1.2l-.04.04-.04.04q-.88.879-2.32 1.8a36 36 0 0 1-3 1.64q-1.52.72-2.68 1.08h-.08l-.04.04q-.4.04-.88.04a.17.17 0 0 1-.16 0h-.36a5 5 0 0 1-.44.08q-.081.039-.12 0l-.72.24q-.16.04-.2-.08l-.56.24q-.16.08-.24-.08t.08-.24l.36-.2-.52.24-.6.28q-.16.08-.24-.08-.04-.12-.16-.08l-.28.12-.32.08q-.16.08-.24-.08-.04-.16.12-.24l.6-.24.28-.12v-.04l.12-.04h-.08l-.48.12-.64.24-.68.2a.35.35 0 0 1-.16-.04l-.4.12q-.16.039-.2-.12-.081-.16.12-.24l.56-.16.72-.32a1.2 1.2 0 0 0-.28-.04l-.6.24-.72.28-.56.2q-.201.039-.24-.12-.081-.16.12-.24l.56-.16.68-.32a.3.3 0 0 0 .12-.04h-.12l-.56.16-.56.32-.68.28q-.16.039-.24-.12-.04-.16.12-.24l.64-.24.56-.32h.08a7 7 0 0 1-.36-.08l-.44.16-.6.2-.68.24q-.16.08-.24-.08-.081-.16.12-.24l.68-.28.56-.16a2 2 0 0 0-.2-.08l-.44.2-.64.2-.6.28q-.16.08-.24-.08t.08-.24l.64-.28q0-.04.04-.04l.64-.2a2 2 0 0 1-.28-.12l-.4.2h-.04l-.6.24-.64.28q-.16.08-.24-.08t.08-.24l.64-.32h.04l.68-.24a5 5 0 0 0-.36-.16l-.32.08-.6.24-.6.32q-.16.08-.24-.08t.08-.24l.64-.32.56-.24h.08a4 4 0 0 1-.36-.24l-.36.16-.72.28-.68.32q-.16.039-.24-.12-.08-.16.08-.24l.72-.28.88-.36-.24-.24-.36.16-.68.28h-.04l-.64.2q-.16.039-.24-.12-.04-.16.12-.24l.68-.16.68-.32.2-.08-.32-.4-.36.12-.64.24-.64.32q-.16.08-.24-.12-.08-.16.08-.24l.64-.28h.04l.64-.24.24-.08q-.12-.16-.24-.28l-.48.12-.68.24-.6.28q-.16.08-.24-.08t.08-.24l.6-.32h.04l.68-.24h.04l.32-.08a4 4 0 0 0-.24-.36l-.52.2-.56.28h-.04l-.64.16q-.201.08-.24-.12-.04-.16.12-.2l.64-.2.56-.24h.04l.44-.2-.24-.4-.52.24-.64.24-.68.2q-.16.08-.24-.12-.04-.16.12-.2l1.32-.44.44-.24-.24-.48-.48.16-.64.24-.64.32q-.16.08-.24-.08t.08-.24l.64-.32.68-.24v-.04l.44-.12a5 5 0 0 0-.16-.36l-.28.08-.72.28-.6.2q-.16.08-.24-.08-.04-.16.12-.24l.6-.24.72-.24.24-.12a3 3 0 0 1-.2-.52v-.12l-.36.12-.64.28-.6.2q-.16.039-.2-.12-.081-.16.12-.2l.56-.2.6-.28v-.04h.04l.4-.12q-.04-.201-.2-.24l-1.28.56q-.16.08-.24-.08t.08-.24l.64-.28v-.04l.68-.24.24-.12a3 3 0 0 1-.04-.48l-.28.12-.64.32h-.04l-.64.2q-.16.08-.24-.08-.04-.201.12-.24l.64-.24.64-.28.4-.2v-.48l-.2.08-.6.32-.6.24q-.16.039-.2-.12-.08-.16.08-.24l.56-.2.6-.32.36-.16v-.32l-.24.08-.56.24-.56.28q-.16.12-.24-.04-.12-.16.04-.24l.6-.32h.04l.56-.24.36-.16v-.48l-.32.12-.68.24-.56.28q-.16.08-.24-.08t.08-.24l.56-.28h.04v-.04l.68-.2.48-.16q0-.24-.2-.24l-.68.32h-.04l-.56.16q-.16.08-.24-.08-.04-.201.12-.24l.56-.2.68-.28.4-.2a4 4 0 0 1 .04-.6l-.24.08-.72.16-.6.2q-.16.039-.24-.12-.04-.16.12-.24l.64-.16.72-.2.4-.12v-.04l.16-.4-.44.16-.72.28-.6.24q-.16.08-.24-.08t.08-.24l.64-.28.68-.24.76-.28q.08-.201.16-.36l-.44.12-.64.16-.56.24q-.16.08-.24-.12-.08-.16.08-.2l.6-.24.68-.2.72-.2q.04-.12.08-.2l.08-.24-.64.32-.6.24-.64.24q-.16.08-.2-.12-.08-.16.08-.2l.64-.24.56-.28.64-.28h.04v-.04l.36-.08q.08-.12.12-.24l-.64.24-.64.16-.6.32q-.16.08-.24-.08t.08-.24l.64-.32h.04l.6-.2.64-.24.4-.12a1 1 0 0 1 .12-.24l-.56.16-1.32.44q-.201.039-.24-.12-.04-.201.12-.24l.64-.2.68-.2.64-.2.32-.12.12-.12-.64.2-.72.28-.64.16q-.16.08-.2-.12-.081-.16.12-.2l.64-.2-.04-.04q-.08-.16.08-.24l.48-.24q-.04-.16.12-.24l.68-.32q-.04 0-.04-.04-.08-.16.08-.24l.44-.2q-.04-.12.12-.2l.64-.28q-.04-.12.12-.2l.64-.24.56-.32a.7.7 0 0 0 .16-.04h.04l.52-.2.64-.28.68-.28h.04zm6.4 20.8q.12-.081.2 0h.4l.24-.12q.12-.04.2.04.04 0 .08-.04 1.119-.32 2.52-1 1.44-.72 2.76-1.56t2.12-1.64q.36-.48.64-1.04a5 5 0 0 0 .48-1.16.6.6 0 0 1 .04-.16l.08-.32q.04-.16.04-.32-.08-.441-.28-.6-.2-.2-.64-.28a8 8 0 0 0-.8-.04 7 7 0 0 0-.76-.04q-1-.04-1.96-.04-.96-.04-1.96-.04a9 9 0 0 0-.84.04h-.8a1 1 0 0 1-.24-.04q-.36-.04-.48 0-.44.159-.8.48.039.159-.12.24l-.24.08q-.48.48-.68.84-.16.32-1 .4-.76.08-1.2-.4a3.2 3.2 0 0 1-.64-1.2 6.5 6.5 0 0 1-.24-1.32v-1.48q.04-.28.04-.52t.04-.48q.04-.28.04-.52.08-.6.32-1.28.24-.72.68-1.2.48-.48 1.2-.4.68.04 1.12.4l.04.04q.44.44.84.88l.88.8q.12.04.44.04h.24q.2 0 .4.04h.44q1.119.12 2.28.12h3.08q.28.04.52.04t.48-.04l.32-.08a.6.6 0 0 0 .32-.16q.16-.16.2-.56a.38.38 0 0 0 0-.24 4 4 0 0 0-.08-.28.6.6 0 0 1-.04-.16 4 4 0 0 0-.24-.72q-.16-.36-.32-.68a20.7 20.7 0 0 0-3.16-2.56 62 62 0 0 0-3.4-2.24l-.04-.04h-.04q-.32-.32-1.52-.28-1.2 0-2.88.28-1.64.24-3.28.64a31 31 0 0 0-2.88.76q-1.24.4-1.56.76-1 .999-1.92 2.64-.92 1.64-1.36 3 0 .2-.04.4l.08.08q.039.159-.12.24a2.2 2.2 0 0 0-.04.44.27.27 0 0 1 .12.12q.08.159-.12.24a3 3 0 0 0-.04.44q.12.039.16.12.08.16-.16.28v.4q.12 0 .16.16.08.159-.16.24v.44q.16 0 .2.12.04.159-.2.24.04.279.04.48.16-.04.2.12.08.16-.16.28.039.28.12.44.16-.04.2.12.08.159-.2.24v.08q.08.24.16.4.159-.08.24.08.08.159-.12.24.12.24.2.44.159-.04.24.12.04.12-.08.2.12.2.24.44.12 0 .16.12.08.08 0 .16.16.24.28.44.12 0 .16.12.039.08 0 .12.16.24.32.44.12-.04.2.08.039.12 0 .2.2.24.32.36.2-.08.24.08.04.12-.04.2.2.24.4.28.159-.08.24.08.08.159-.04.24a.6.6 0 0 0 .16.12q.12.04.32.08.2-.08.24.08.08.12 0 .2.24.12.48.16.159-.08.24.08.04.04.04.08.24.12.52.2a.4.4 0 0 1 .16.04q1.28.4 2.68.64t2.36.44l.76.04zm-1.2-14.08a1.2 1.2 0 0 0-.44-.08.37.37 0 0 0-.24 0q-.28.12-.52.56l.64-.16zm-1.56 1.72q.04-.04.08-.04l.64-.24.72-.28.68-.32.24-.08q-.12-.12-.28-.24a.9.9 0 0 0-.36-.2l-.56.32h-.04l-.64.16-.32.16q-.12.36-.16.76"/><path fill="#000" d="M264.048 23.467a.4.4 0 0 1 .16.04q.12-.04.36 0h.28q.2-.04.28-.04.04 0 .08-.04l.599-.16.481-.16.319-.12v-.32l-.52.16-.719.2-.641.24q-.16.08-.239-.08-.04-.201.119-.24l.64-.28h.041l.679-.2.64-.2v-.28l-.479.24-.64.28h-.041l-.599.2q-.16.039-.241-.12-.039-.16.12-.24l.6-.16.64-.32.64-.28v-.4l-.479.2-.64.28-.64.24q-.16.039-.241-.12-.039-.16.12-.24l.6-.2.64-.32h.041l.64-.24v-.24l-.6.2-.601.28-.72.32q-.16.08-.239-.12-.08-.16.119-.2l.681-.32.599-.32h.041l.72-.24q0-.16.04-.36l-.721.28-.679.32-.64.24q-.16.039-.24-.12-.04-.16.119-.24l.601-.2.72-.32.84-.36q.04-.32-.04-.4l-.72.28-.56.32h-.041l-.679.2q-.201.04-.24-.16-.04-.16.119-.2l.681-.16.56-.32h.039l.681-.32h.039l.2-.08v-.24l-.64.24-.679.28-.64.28q-.16.08-.241-.08t.08-.24l.64-.28v-.04l.72-.24.801-.32q0-.24-.12-.32h-.041l-.679.24-.72.2-.601.2q-.159.08-.24-.08-.04-.201.121-.24l.599-.24h.041l.679-.16.681-.24.36-.16a.9.9 0 0 1 .119-.32l-.64.28-.6.2-.599.28q-.16.08-.241-.08t.08-.24l.441-.2q0-.04-.04-.04-.04-.201.12-.24l.72-.24.679-.16.401-.16q.36-.4 1.12-.6.28-.08.559-.08h.801q.16 0 .28-.04.8-.04 1.559-.04a16 16 0 0 1 1.601 0q.399 0 .759.04h1.041q.16 0 .319.04.16 0 .321.04 1.28.32 1.519 1.6.04.28 0 .56v.48a.8.8 0 0 0-.039.24v.28a38 38 0 0 0-.041 1.76v1.76a6 6 0 0 0-.039.72v.04h.759q.72.04 1.401.08.72.04 1.44.04a.7.7 0 0 1 .2.04q.48 0 .92.08t.8.44q.24.2.319.48.12.279.161.6.039.12.039.28v.28a1 1 0 0 0-.039.24v1.36q-.04.52-.04 1.04v1.84q-.16.72-.52 1.08-.321.36-1.041.48l-.039.04h-.521q-.2 0-.519.04l-.68.32-.601.2q-.16.08-.239-.08-.04-.16.119-.24l.681-.28h-.401l-.399.12-.56.2h-.041l-.559.16q-.16.08-.241-.08-.04-.201.121-.24l.44-.16a.7.7 0 0 0 .159-.04h-.319l-.44.12-.36.16v2.28q0 .52.08 1 .04.36.08.76.039.36.399.56a.75.75 0 0 0 .48.16h.921q.56 0 1.12.04.6.039 1.16.12.56.039 1.039.12.52.08.92.48t.441.88q.08.44.08.96v1.96q.039.88.039 1.76v.2q0 .48-.039.92-.04.44-.441.84-.36.36-.8.4-.44.08-.92.08h-1.319l-.44.16-.681.28q-.12.08-.2-.04l-.44.12q-.16.08-.239-.12l-.52.16q-.16.08-.2-.08v-.04l-.64.24q-.201.08-.24-.08-.08-.16.08-.24l.679-.24-.319.04-.321.16-.599.28q-.16.08-.241-.08t.081-.24h-.04l-.481.24q-.16.08-.239-.08a.17.17 0 0 1 0-.16l-.52.12q-.04.04-.08.04a.6.6 0 0 1-.241-.08q.04 0 0 0l-.599.2q-.2.039-.241-.12-.04-.16.121-.24l.48-.12a.35.35 0 0 1-.16-.04l-.441.16-.679.28q-.16.08-.24-.08a.17.17 0 0 1 0-.16l-.521.16q-.16.08-.2-.12-.08-.16.081-.2l.88-.32q-.04 0-.08-.04h-.08l-.04-.04q-.081-.04-.24.04l-.681.28-.72.2q-.16.039-.2-.12-.04-.201.121-.24l.68-.16.559-.28q-.04 0-.08-.04l-.36.16h-.039l-.601.2-.64.28q-.16.08-.239-.08-.08-.16.08-.24l.64-.28-.561.12-.679.24q-.16.08-.2-.12-.081-.16.12-.2l.639-.24.64-.2.401-.2-.16-.08a.7.7 0 0 0-.28-.04h-.041l-1.28.4-.72.28q-.16.08-.239-.08-.04-.16.12-.24l.679-.32h.041l.679-.2.601-.16a1.6 1.6 0 0 1-.241-.2l-.479.24-1.28.56-.601.24q-.16.039-.239-.12-.081-.16.12-.24l1.199-.48.681-.32.28-.12-.28-.28-.44.16-.56.2-.681.32-.64.32q-.159.08-.24-.12-.08-.16.08-.2l.64-.32.681-.32.6-.24.239-.08-.319-.24-.481.12-.599.32-1.321.44q-.2.039-.239-.12-.04-.16.12-.24l.599-.16.681-.28.64-.28h.039l.281-.12a3 3 0 0 1-.32-.28l-.441.2-.72.24-1.28.56q-.16.08-.239-.08-.08-.16.079-.24l.64-.32.681-.24v-.04l.679-.2.36-.16a4 4 0 0 1-.319-.36l-.321.16-1.28.56-.64.32q-.16.08-.239-.08-.08-.16.079-.24l.681-.32.6-.32.68-.24.199-.12a3 3 0 0 1-.36-.44l-.119.04-.56.28h-.041l-.599.2-.56.28q-.16.08-.24-.08-.081-.16.039-.24l.601-.28.039-.04.601-.16.559-.28h.041l.079-.04-.079-.16a2 2 0 0 0-.08-.2l-.72.2-.56.28h-.041l-.64.2q-.16.039-.239-.12-.04-.201.12-.24l.679-.16.56-.28.761-.24-.08-.24a.4.4 0 0 0-.161-.2l-.599.28-.64.2-.6.28q-.16.08-.241-.04-.08-.16.08-.28l.601-.28.039-.04.64-.16.56-.32.201-.08-.08-.48-.601.32-.599.2-.681.24q-.16.039-.199-.12-.08-.16.119-.2l.64-.24.56-.24.601-.28h.039l.08-.04q-.04-.28-.119-.36l-.56.24-.681.28-.64.24q-.16.08-.239-.08-.08-.16.08-.24l.679-.28.64-.24.801-.32v-.24a1 1 0 0 1-.041-.24l-.599.24-.601.28-.599.24q-.16.08-.24-.08t.08-.24l.6-.28.64-.24.719-.28q0-.24-.039-.36l-.68.28-.561.28-.599.32q-.16.08-.241-.08t.081-.24l.6-.32.56-.28.679-.28.161-.08v-.36l-.601.16-.56.24h-.039l-.681.2q-.16.08-.239-.12-.04-.16.12-.2l.68-.24.599-.2v-.04l.681-.2v-.28l-.681.28-.599.32-.641.28q-.16.039-.239-.12-.08-.16.119-.24l.601-.24.599-.32.841-.36q0-.28-.041-.4l-.559.28-.601.24-.64.24q-.16.08-.239-.12-.04-.16.12-.2l.6-.24.64-.24.64-.32.039-.04v-.28l-.679.2-.64.24-.681.28q-.159.08-.24-.08t.08-.24l.681-.28.039-.04.64-.2.761-.28v-.32l-.56.28-.6.16-.56.24q-.16.08-.241-.12-.039-.16.12-.2l.561-.24h.039l.56-.2.681-.32v-.36h-.121l-.399.16-.68.28-.641.2q-.16.08-.239-.08-.04-.201.119-.24l.681-.24h-.24l-.48.24-.64.2q-.16.08-.24-.08v-.04l-.441.12q-.04.039-.119 0l-.601.24q-.16.08-.239-.08-.08-.16-.041-.16l-.679.24q-.16.08-.241-.08-.039-.16.12-.24l.64-.28.72-.24.241-.12-.12-.12a.5.5 0 0 0-.121-.08v.04l-.679.16-.64.28-.601.2q-.16.08-.239-.08-.081-.201.12-.24l1.199-.48h.041v-.04l.64-.16-.08-.24-.08-.24-.681.2-.56.32-.72.28q-.16.08-.239-.08-.081-.16.12-.24l.679-.28.561-.32h.04l.839-.28a.6.6 0 0 0-.039-.24l-.64.32-1.16.36q-.16.08-.241-.12-.04-.16.121-.2l.599-.2.56-.2.6-.28.2-.08q0-.24-.039-.32h-.041l-.679.2-.56.28-.64.28q-.16.08-.241-.12-.08-.16.12-.24l.601-.24.559-.32h.041l.879-.24q0-.24-.039-.32l-.601.24-.599.2-.6.24q-.16.08-.241-.08t.08-.24l.601-.24v-.04h.039l.601-.16.559-.28a.7.7 0 0 0 .161-.04q0-.2-.041-.32l-.72.32-.56.24h-.039l-.601.16q-.16.08-.239-.12-.04-.16.12-.2l.64-.2.559-.2.681-.32q.04 0 .2-.04a.3.3 0 0 0-.041-.12v-.16l-.599.28-.681.2-.599.2q-.16.039-.241-.12-.039-.16.12-.24l.64-.16.64-.24.72-.28a1.3 1.3 0 0 0-.039-.32l-.601.2-.679.28-.72.32q-.16.039-.241-.12-.08-.16.121-.24l.679-.28.721-.28.72-.24v-.36l-.48.16-.64.28h-.041l-.679.16q-.2.08-.241-.12-.039-.16.12-.2l.72-.2.64-.24.681-.24q.04-.12.08-.2l-.28.12-.72.28q-.12.08-.201 0l-.439.2q-.16.08-.24-.08t.08-.24l.64-.32h.039l.561-.2.519-.12.28-.12.201-.12a1 1 0 0 1 .4-.24q.28-.08.64-.2m13.16 20.8h.08l.319-.04h.041a45 45 0 0 1 1.879-.04 45 45 0 0 1 1.881-.04h.8a.76.76 0 0 0 .44-.2.66.66 0 0 0 .2-.48 1.7 1.7 0 0 0 0-.52v-.24q0-.921-.041-1.8v-2.04q0-.28-.039-.56a.7.7 0 0 0-.2-.52.87.87 0 0 0-.52-.24 2 2 0 0 0-.56-.08h-.28a16 16 0 0 0-2.241-.16h-.319a8 8 0 0 1-.8-.04 1.95 1.95 0 0 1-.761-.24q-.56-.36-.719-.88a5.6 5.6 0 0 1-.201-1.16 7 7 0 0 1-.08-1.04v-2.6q-.08-.12 0-.2-.08-.08-.039-.16v-.04a1.3 1.3 0 0 1-.04-.32q0-.16.2-.32.16-.16.319-.16.16 0 .321.08.2.04.28.04.2 0 .36.04h.36l1.039.08h1.08a5 5 0 0 0 .64.04h.681q.44-.12.56-.24.12-.16.2-.6.039-.12 0-.4v-1.28q0-.52.039-1.04v-1.32a.7.7 0 0 1 .041-.2v-.4l-.08-.32a.6.6 0 0 0-.161-.28.83.83 0 0 0-.479-.24 4 4 0 0 0-.56-.04h-.241q-.72 0-1.44-.04-.68-.04-1.399-.08h-.681q-.12 0-.28.04a1.3 1.3 0 0 1-.319.04q-.16 0-.321-.2-.159-.16-.159-.32a1.3 1.3 0 0 1 .04-.32q.039-.16.039-.28 0-.4.041-.68v-1.8q0-.88.039-1.76 0-.16.041-.48v-.4q.039-.24 0-.48-.08-.44-.241-.56-.12-.16-.559-.28a2 2 0 0 0-.441-.04h-1.039a7 7 0 0 0-.761-.04 15 15 0 0 0-1.519 0q-.76 0-1.52.04a.9.9 0 0 1-.28.04h-.761q-.24 0-.439.04-.48.12-.64.28-.12.16-.24.64l-.08.48v.96q-.12 1.92-.12 3.72v.76q.039.36.039.72a.3.3 0 0 1-.039.12.5.5 0 0 1-.08.12q-.16.16-.321.16-.159 0-.36-.04a.64.64 0 0 0-.319 0h-.8q-.4 0-.801.04-.08 0-.239-.04h-.24a.8.8 0 0 0-.241.04l-.319.08a.6.6 0 0 0-.28.16q-.12.08-.16.28a1.2 1.2 0 0 0-.041.28v.68q.04.32.041.64.039.639.039 1.32.04.64.041 1.28v.2a2.2 2.2 0 0 0-.041.44.54.54 0 0 0 .201.36q.12.12.28.16h.319q.16.04.441-.04a.6.6 0 0 0 .24-.04q.399-.04.76-.04.399-.04.759-.04a.9.9 0 0 0 .28-.08 2 2 0 0 1 .36-.04q.16 0 .321.16.2.16.199.32 0 .16-.039.32a1.7 1.7 0 0 0-.041.32v.68l.08 2.32q.04 1.119.12 2.28 0 .84.121 1.68.12.8.479 1.6.84 1.08 2.12 2.2t2.481 1.84q.2-.04.239.12v.04q.16.04.36.08l.241-.04q.2-.04.24.12v.04q.16.04.28.08l.28-.12q.16-.04.239.12v.08q.12 0 .28.04l.321-.12q.159-.08.24.08v.08q.12.04.239.04l.321-.16q.16-.08.239.08l.041.04zm-5.401-.04a.5.5 0 0 0-.119-.08l-.56.28z"/></svg>