<svg xmlns="http://www.w3.org/2000/svg" width="344" height="80" fill="none"><path fill="#000" fill-opacity=".9" d="M111.683 33.168q.096-.192.144-.384l-.576.192-.768.336-.768.336h-.048l-.816.192q-.24.048-.288-.144t.144-.24l.864-.24.768-.288.72-.336.864-.336q.048-.144.048-.336l-.384.192-.768.24-.864.336-.72.24q-.24.048-.288-.144-.048-.24.144-.288l.72-.24.864-.288.768-.288.624-.288q.048-.144.048-.336l-.288.144-.768.24-.72.336-.768.336q-.24.096-.288-.144-.096-.192.096-.24l.768-.336.72-.336v-.048h.048l.768-.192.528-.288v-.192q.048-.096.048-.192l-.336.096-.72.24-.72.336-.864.336q-.192.096-.24-.096-.096-.192.096-.288l.816-.384.768-.288.72-.24.576-.192q.048-.192-.096-.24h-.048l-.768.24-.768.336h-.048l-.816.24q-.24.048-.288-.144-.048-.24.144-.288l.816-.192.768-.384h.048l.768-.24.432-.144q.048-.24 0-.288l-.816.384-.72.336h-.048v.048l-.768.192q-.24.048-.288-.144t.144-.24l.768-.24.72-.336.816-.384.384-.192q.048-.336-.096-.432l-.768.192-.864.384-.816.24q-.192.048-.24-.144-.048-.24.144-.288l.768-.24.816-.336h.048l.768-.24.384-.096q.096-.288 0-.384l-.864.384-.816.336-.768.24q-.192.048-.288-.144-.048-.192.192-.288l.72-.192.816-.384.816-.336h.048v-.048l.336-.048q.048-.24.096-.336l-.768.24-.768.384-.864.288q-.192.096-.288-.096-.048-.192.144-.288l.816-.336.768-.336h.048l1.008-.384q.096-.288.048-.336l-.816.336-.672.288q-.192.096-.288-.144-.096-.192.144-.24l.672-.288.768-.384.672-.336q.192-.24.48-.48.576-.48 1.248-.576t1.344-.096q.96-.048 1.92 0 .96 0 1.872.048h.576q.576.048 1.2.048h1.248q.096 0 .336-.048t.432-.048.432.144q1.152.576 1.296 1.296.192.672-.048 1.776l-.096.48q-.048.192-.096.432-.24 1.104-.528 2.208-.24 1.056-.528 2.16l-.048.096q0 .096-.048.096-.72 1.344-.96 2.976-.24 1.584-.528 3.216-.288 1.584-1.104 2.88-.576 1.152-.816 2.448-.192 1.248-.48 2.544-.24 1.296-.864 2.4-.288.864-.672 1.728-.336.816-.624 1.68-.336.864-.624 1.776l-.48 1.728q-.192.768-.432 1.44-.24.624-.864 1.104-.624.432-1.344.48-.672.096-1.392.096l-.384.144q-.144.048-.24-.048l-.384.144-.816.24q-.192.096-.288-.096v-.144l-.528.144q-.24.096-.288-.144 0-.048-.144 0l-.816.288q-.144.096-.24-.048l-.384.144q-.192.096-.288-.096-.048-.192.144-.288l.816-.336.336-.144h-.048l-.384.096-.816.384-.72.336q-.192.096-.288-.096-.048-.096 0-.192l-.672.24q-.192.096-.288-.096-.048-.096 0-.192l-.432.096q-.144.048-.24-.048l-.672.192q-.192.096-.288-.144-.048-.096-.144-.096l-.768.24q-.192.096-.288-.096l-.384.144q-.192.096-.288-.096-.048-.096 0-.192l-.72.192q-.192.096-.288-.096l-.624.24q-.192.096-.288-.096v-.048l-.336.144q-.144.096-.24-.048-.192.096-.288-.096-.048-.24.144-.288l.912-.288v-.048h.048l.432-.144.288-.144-.192-.096-.192-.192q-.096-.096-.24-.096l-.72.336h-.048l-.768.24-.864.24q-.192.048-.24-.192-.048-.192.144-.24l.816-.24.768-.192.72-.384h.048l-.288-.288-.192-.384h-.096l-.816.336-.72.288-.768.24q-.192.096-.288-.096-.048-.24.144-.288l1.488-.528.912-.384-.096-.288q-.048-.144-.192-.24l-.672.192-.72.336-.768.24q-.192.048-.24-.144-.096-.24.144-.288l.72-.192.672-.336h.048l.816-.288q-.096-.24-.336-.288l-.72.288-.672.384h-.048l-.672.24q-.192.048-.288-.144-.048-.192.144-.288l.672-.192.672-.384.72-.288.288-.144q-.048-.144-.144-.24-.048-.096-.24-.192l-.672.336h-.048l-.72.24-.768.288q-.192.096-.24-.144-.096-.192.096-.24l.768-.288.72-.288.672-.288h.048l.24-.096q0-.144-.048-.24-.048-.144-.24-.24l-.672.24-.768.384h-.048l-.816.24q-.192.096-.288-.144-.048-.192.144-.24l.816-.288.768-.336h.048l.912-.336q0-.144-.048-.24-.048-.144-.24-.192l-.768.192-.816.336-.816.336q-.192.048-.24-.144-.096-.192.096-.288l.816-.336.816-.288h.048l.72-.24.288-.096q-.096-.24-.096-.48l-.432.144-.816.24-.672.384h-.048l-.768.24q-.24.048-.288-.144-.048-.24.144-.288l.768-.192.672-.384h.048l.816-.288.48-.144q-.096-.24-.144-.48l-.432.192-.864.336-.768.24-.768.288q-.192.096-.24-.144-.096-.192.096-.24l.768-.288.768-.288.864-.288.48-.192-.192-.48-.384.096-.816.288-.864.288-.816.192q-.24.096-.288-.144-.048-.192.144-.24l.864-.24.816-.288.816-.24.384-.144q-.096-.192-.192-.432l-.336.096-.672.384h-.048l-.72.24-.672.336q-.192.096-.288-.096-.144-.192.048-.288l.72-.336.048-.048.72-.192.672-.384.432-.144q-.096-.24-.144-.528l-.432.144-.672.24-.72.24-.72.384q-.192.096-.288-.096t.096-.288l.768-.384.72-.24.672-.288.432-.144q-.048-.192-.096-.48l-.432.144-.816.336-.672.336-.72.336q-.192.096-.288-.096-.048-.192.144-.288l.672-.336.672-.336.048-.048.768-.288h.048l.48-.192q0-.096-.048-.192-.048-.144-.048-.288l-.48.144-.816.288-.816.336-.768.336q-.192.096-.288-.096t.096-.288l.816-.384.768-.288.048-.048.816-.24.528-.192q-.048-.24-.144-.48l-.528.24-.72.192-.816.336-.72.288q-.192.096-.288-.096-.048-.192.144-.288l.672-.288v-.048l.864-.288.72-.24.576-.24q-.096-.24-.144-.48l-.576.144-.72.24-.768.384-.72.336q-.192.048-.288-.144t.096-.288l.768-.288.72-.384h.048l.72-.288h.048l.528-.144-.192-.384-.336.192h-.048l-.768.24-.72.192-.816.24q-.24.048-.288-.144-.048-.24.192-.288l.816-.192.672-.24.768-.192.384-.24q-.096-.24-.144-.48l-.336.144-.72.336-.72.336v.048l-.72.24q-.24.096-.288-.144-.096-.192.096-.24l.768-.288.672-.336.768-.336.336-.144q-.096-.288-.144-.48l-.288.096-.768.384-.816.336-.72.288q-.192.096-.288-.096t.096-.288l.72-.336.864-.288.72-.384.336-.144q-.096-.24-.192-.528l-.288.096-.816.192-.816.288-.864.288q-.192.048-.24-.144-.096-.24.144-.288l.816-.288.864-.24.768-.24.288-.096q-.096-.192-.144-.384l-.288.144h-.048l-.672.24-.864.288-.672.288q-.192.048-.288-.144-.048-.192.144-.288l.672-.24.864-.336.672-.192.336-.144q-.144-.336-.384-.384l-.672.336-.864.336-.816.384q-.24.096-.288-.096-.096-.192.096-.288l.816-.384.864-.336.912-.432q-.048-.144-.144-.24-.048-.144-.288-.24l-.768.288-.768.336-.672.24q-.192.096-.288-.096t.144-.288l.672-.288.768-.288 1.008-.384q-.096-.288-.192-.384l-.816.336h-.048l-.72.24-.72.336q-.192.096-.288-.096t.096-.288l.72-.336h.048v-.048l.72-.192.912-.432q0-.144-.096-.288-.048-.144-.24-.24l-.72.288-.816.24-.768.288q-.192.048-.288-.144-.048-.192.144-.288l.768-.24.816-.288.72-.288h.048l.192-.048q-.096-.288-.288-.384l-.672.384-.768.336-.864.336q-.192.096-.24-.144-.096-.192.096-.24l.816-.336.768-.336.672-.384q.048 0 .24-.096-.096-.336-.288-.48l-.672.336-.816.24-.768.336q-.192.096-.288-.096t.096-.288l.816-.384h.048l.768-.192.672-.336q.048 0 .144-.048-.096-.336-.24-.432l-.816.192-.72.384-.72.24q-.192.048-.288-.144-.048-.24.144-.288l.672-.24.768-.336h.048l.816-.24q-.048-.144-.096-.24-.048-.144-.096-.24l-.672.24-.864.384-.816.336q-.192.048-.288-.144t.144-.288l.816-.288.816-.384h.048l.672-.288q.048 0 0 0l-.144-.432-.816.336-.768.288-.864.384q-.192.096-.288-.096-.048-.24.144-.288l.816-.384.816-.336.816-.336q-.048-.144-.144-.48l-.672.192-.672.24-.672.192q-.24.096-.288-.144-.048-.192.144-.24l.672-.24.72-.24.624-.192q-.048-.288-.144-.48l-.672.24-.768.288-.72.24q-.192.096-.288-.096-.048-.192.144-.288l.72-.288.768-.24.672-.288q-.048-.192-.144-.384l-.672.24-.672.24-.816.24q-.192.048-.24-.144-.048-.24.144-.288l.768-.24.72-.192.624-.288q-.048-.192-.144-.384l-.624.192-.768.336H90.9l-.816.24q-.24.048-.288-.144-.048-.24.192-.288l.768-.192.816-.384.624-.192-.192-.48-.48.192-.864.336-.672.336q-.192.096-.288-.096t.096-.288l.72-.336.816-.384.528-.192q-.096-.24-.144-.48l-.576.144-.72.288-.864.336q-.192.096-.288-.096-.048-.192.096-.288l-.048-.048q-.048-.24.144-.288l.72-.288.864-.288.528-.288v-.192l-.384.144-.816.24q-.192.096-.288-.096-.048-.24.144-.288l.864-.288.624-.192q.24-.576 1.248-1.104.24-.144.432-.144.24 0 .432.048h.384q.864.048 1.728.048h5.76q.672 0 1.344.096.672.048 1.248.432.864.576 1.152 1.488l.576 1.728q.72 1.296.864 2.88.192 1.584.336 3.168t.816 2.832q.048 0 .048.096l.048.048q.048.192.096.336l.768-.336h.048l.72-.24.768-.288.672-.384h.048q.048-.192.096-.432l-.528.192-.816.24-.816.24-.72.192q-.192.096-.24-.096-.096-.24.144-.288l.672-.24.864-.192.768-.288.816-.24.096-.384-.528.192-.864.24-.672.192-.864.384q-.192.096-.24-.144-.096-.192.096-.288l.816-.336h.048l.72-.24.816-.24zm-3.792 6.48q-.048-.048-.048-.096-.048-.096 0-.144-.192-.816-.384-1.584-.144-.816-.432-1.536-.672-1.296-.816-2.88-.144-1.632-.336-3.216-.144-1.632-.912-2.832v-.048l-.048-.048q-.192-.672-.432-1.44-.192-.816-.816-1.248-.432-.288-.912-.288-.48-.048-.96-.048H95.94q-.864 0-1.728-.048h-.24q-.384-.096-.48-.048-.576.336-.72.576.048.144-.048.24l.096.096q.048.144-.048.24 0 .096.096.288.048.144.096.24.048.048.096.144t0 .192q.096.24.192.576v.048q.048 0 .048.048.048.048.048.096.528 1.248.864 2.544.384 1.296.864 2.544.576 1.344.864 2.784.288 1.392.864 2.688l.048.048q.816 2.256 1.584 4.56.672 1.488.912 3.168t.912 3.216q.528 1.296.72 2.736.192 1.392.624 2.736h.048q.096.432.24.912l.288.864q.144.288.288.528.192.192.384.432l1.104.336q2.016-.24 4.32-.24t4.32.192q.192.048.576.048.624.048 1.248.048.672 0 1.152-.336t.624-.864l.288-1.056.48-1.824q.288-.912.624-1.824.336-.864.672-1.68.384-.864.672-1.728v-.096q.624-1.104.864-2.352.288-1.296.528-2.592.24-1.344.816-2.448v-.048q.816-1.248 1.056-2.832.288-1.632.528-3.216.288-1.632 1.008-2.976.288-1.056.528-2.112.288-1.104.528-2.16.048-.24.096-.432l.096-.48q0-.096.048-.288.144-.576.048-.864-.048-.288-.768-.672-.048-.048-.432.048-.192.048-.24.048h-1.248q-.624 0-1.248-.048h-.576q-.912-.048-1.872-.048-.912-.048-1.824 0h-.24q-.432 0-.912.096-.432.048-.768.336-.48.336-.624.864-.096.48-.192 1.056l-.192.864q-.096.432-.144.912-.336 1.344-.528 2.736-.144 1.344-.528 2.64-.192.864-.432 1.728-.24.816-.528 1.68-.336 1.104-.672 2.256-.336 1.104-.768 2.256-.096.192-.192.432-.048.192-.144.432 0 .096-.048.192.096.192.144.336 0 .096-.144 0-.048.24-.144.432t-.432.192q-.096 0-.24-.096t-.144-.144q-.096-.288-.192-.624v-.048l-.048-.048q-.192 0-.192-.24 0-.096.096-.144-.096-.288-.192-.672l-.096-.192q-.144.048-.24-.096-.096-.192.144-.336l-.192-.672-.192-.672zm3.168-4.128-.336.192h-.048l-.768.336-.768.192-.768.384q.048.144.096.336l.24-.096.672-.336h.048l.816-.336.72-.336q.048-.192.096-.336m-2.496 1.872v.096l.624-.24.768-.24.72-.24q.048-.096.048-.192.048-.096.048-.144l-.336.192-.864.288-.672.336zm.096.48q.048.144.096.336l.432-.192h.048l.672-.192.528-.144q.048-.24.096-.432l-.432.144-.768.288zm.192.768q.048.192.288.192 0 .048.048 0l.624-.192.336-.096q.048-.24-.144-.288l-.672.192zm.192.72q.048.384.192.576l.576-.384q.144-.336.144-.48l-.624.192zm.24 1.008q0 .096.144.048.048 0 .144-.048.048-.096-.144-.048zm24.48 17.952-.72.336q-.192.096-.288-.096v-.048l-.672.192q-.24.096-.288-.096-.048-.096 0-.192l-.768.288q-.192.096-.24-.096-.096-.192.288-.384-.048 0-.192.048l-.768.288q-.192.096-.24-.048l-.384.144q-.192.096-.288-.096-.048-.096-.192-.048l-.864.288q-.192.096-.24-.096-.048-.096 0-.192l-.432.096q-.192.096-.288-.144v-.144l-.864.192q-.096.048-.24-.048l-.72.192q-.096.048-.144 0l-.72.24q-.192.096-.288-.096v-.192l-.048-.048q-.096-.192.096-.288l.816-.384h.048l.816-.192.432-.144q-.096-.144-.096-.192h-.048l-.336.096-.72.288-.768.24-.72.24q-.192.096-.288-.096-.096-.24.144-.288l.72-.288h.048l.72-.192.72-.288.336-.096q-.048-.144-.144-.24-.048-.096-.24-.144l-.768.384-.72.384h-.048l-.768.192q-.24.096-.288-.144-.048-.192.144-.24l.768-.24.72-.336.768-.384.288-.144v-.528l-.24.096h-.048l-.72.24-.768.336-.864.336q-.192.096-.288-.144-.048-.192.144-.24l.816-.336.768-.336q0-.048.048-.048l.768-.192.384-.192v-.048q.048-.336.048-.48l-.336.096-.816.336q0 .048 0 0l-.72.24-.768.384q-.192.096-.288-.096t.096-.288l.769-.384h.047l.72-.24.817-.384h.047l.433-.096q0-.288-.192-.336l-.816.384-.768.384-.72.288q-.192.096-.288-.096t.096-.288l.72-.336.768-.336.816-.384.336-.144v-.48l-.24.096-.864.336-.816.336-.816.336q-.192.096-.288-.096-.048-.24.144-.288l.768-.336.864-.384.816-.288.432-.192v-.48l-.912.24-.768.288-.816.288q-.192.048-.288-.144-.048-.192.144-.288l.864-.24.72-.288.768-.24.288-.096q0-.24-.144-.336l-.864.336-.672.384h-.048l-.768.192q-.24.096-.288-.144-.048-.192.144-.24l.768-.24.672-.336h.048l.816-.336.288-.144q0-.288-.048-.384h-.048l-.768.288-.72.192-.816.336q-.192.096-.288-.144-.048-.192.144-.24l.816-.336h.048l.672-.24 1.008-.336q0-.384-.24-.48l-.72.24-.816.288-.768.384q-.192.096-.288-.096t.096-.288l.768-.384h.048l.816-.288.768-.288.288-.096q0-.24-.096-.336l-.048.048-.816.192-.72.336h-.048l-.768.192q-.24.096-.288-.144-.048-.192.144-.24l.768-.24.768-.288v-.048l.816-.192.288-.144q.048-.096.048-.24l-.384.144-.672.192q-.048.048-.288 0l-.72.288q-.192.096-.288-.096-.048-.24.144-.288l.672-.288.768-.336.048-.048.912-.24q.144-.288.384-.528.528-.624 1.248-.672.768-.048 1.536 0h.528q1.344.048 2.688.144t2.688.096h.288q.576-.048 1.104.048.528.048.96.48.48.48.528 1.056.048.528.048 1.104 0 .144-.048.192 0 .72-.048 1.392t-.096 1.392v1.824l.096 1.824v.24q.048.576 0 1.152-.048.528-.528 1.056t-1.2.576q-.672.096-1.344.096-.192-.048-.336-.048h-.288q-.144 0-.384.096zm1.2-1.2h.144q.384.048.768 0 .384-.096.624-.336t.24-.576q0-.384-.048-.72V55.2q-.048-.96-.096-1.872v-1.872q.048-.72.096-1.392t.096-1.392v-.24q.048-.336 0-.672 0-.336-.192-.576-.24-.192-.576-.192-.336-.048-.672-.048-.24.048-.336.048-1.392 0-2.736-.096t-2.688-.144q-.143 0-.48-.048h-1.103q-.528 0-.864.336-.289.336-.337.912 0 .528.049 1.056.047.432.047.624 0 1.152.049 2.352.048 1.152.048 2.352v.288q0 .144-.048.336v.576q0 .288.048.576l.096.384.192.288.431.192q1.585.096 3.169.144 1.632 0 3.264-.048.144 0 .528.048h.288zm12.529-24.288q.096-.048.192 0 1.872-.72 3.744-1.248t2.928-.624q.624-.048 1.968.528 1.344.528 2.976 1.44 1.68.864 3.312 1.872t2.88 1.92q1.248.864 1.728 1.392l.096.144q.096.096.096.144.384 1.152.432 2.4.096 1.248.096 2.448v2.784q0 1.392.048 2.736V50.4q.048 1.152.048 2.352 0 1.152-.048 2.304v.144q0 .624-.096 1.2-.048.576-.528 1.008-.48.48-1.008.528-.528.096-1.104.144h-.432l-.384.192-.816.336-.816.336q-.192.096-.288-.096t.096-.288l.816-.384h.048-.24q-.144.048-.384.096l-.72.288q-.192.096-.288-.048l-.672.336q-.144.096-.288-.096-.096-.192.096-.288l.384-.192q-.144.048-.384.144h-.048l-.816.288q-.192.096-.288-.096v-.096l-.72.24q-.192.096-.288-.096v-.192l-.528.24q-.192.096-.288-.096-.048-.048 0-.144l-.672.192q-.192.096-.24-.096-.048-.096-.144-.096l-.816.288q-.192.096-.288-.096-.048-.096 0-.192l-.288.144q-.192.096-.288-.096t.096-.288l.48-.24-.768.24-.72.24q-.192.096-.288-.096v-.096l-.528.24q-.192.096-.288-.096t.096-.288l.816-.384.816-.24.72-.336q-.096-.24-.144-.528-.528.432-1.2.768-1.104.624-2.352.864-1.2.288-2.448.384h-.096l-.384.192q-.144.048-.24-.048l-.48.144h-.144l-.864.288q-.192.096-.288-.096v-.144l-.336.096-.336.192q-.192.096-.288-.096-.048-.048 0-.144 0-.144.144-.192l.336-.144.48-.24-.288.096-.72.24-.816.288q-.192.096-.288-.096-.048-.144-.144-.144l-.816.336q-.192.048-.288-.144-.048-.192.144-.288l.816-.288 1.056-.432-.288-.096-.672.192-.768.336h-.048l-.768.24q-.192.048-.288-.144-.048-.144.096-.24l-.624.288q-.192.048-.288-.144t.096-.288l.816-.288.672-.384h.048l.336-.144q-.096-.048-.24-.096l-.192-.096-.72.336-.768.336-.864.288q-.192.048-.288-.144-.048-.192.144-.288l.816-.24.816-.384.384-.144-.48-.288-.72.24-.768.24-.672.24q-.192.096-.288-.096t.144-.288l.672-.288q.048 0 0 0l.768-.192.432-.144q-.096-.096-.192-.144l-.192-.096-.672.24-.864.288-.768.288q-.24.048-.288-.144-.096-.192.144-.288l.768-.288.864-.24.48-.192q-.192-.144-.336-.288-.048-.048-.048-.096l-.768.24-.816.384-.72.384q-.192.096-.288-.096t.096-.288l.72-.384.864-.384.624-.192q-.144-.24-.24-.528l-.768.24-.672.336-.816.336q-.192.096-.24-.144-.096-.192.096-.24l.768-.336.672-.384h.096l.72-.192q-.096-.288-.144-.624l-.288.096-.768.192-.864.288-.72.288q-.192.096-.288-.096t.096-.288l.768-.336.864-.24v-.048l.816-.192.336-.096q-.048-.288-.096-.624l-.576.192-.816.192-.72.24-.816.336q-.192.096-.288-.096t.144-.288l.768-.336v-.048h.048l.768-.192.816-.24.672-.192v-.576l-.768.192-.672.24h-.048l-.816.24-.72.336q-.192.048-.288-.144t.096-.288l.768-.288v-.048l.864-.192.672-.288.864-.24h.048V50.4l-.72.192-.768.384-.72.24-.816.336q-.192.096-.288-.096t.096-.288l.816-.384h.048l.72-.192.72-.384h.048l.72-.24q.096 0 .192.048.048-.384.096-.72h-.048l-.864.384-.816.24-.816.336-.816.336q-.24.096-.288-.144-.096-.192.096-.24l.864-.336.768-.384h.048l.816-.192.816-.384q.192-.048.288.096.048-.336.096-.624l-.768.336-.72.336-.768.384h-.048l-.816.192q-.24.096-.288-.144-.048-.192.192-.24l.816-.24.768-.336.672-.336.816-.384q.096-.048.192.048.096-.24.144-.48l-.576.192-.864.288-.768.288-.768.336q-.192.096-.288-.096t.096-.288l.768-.336h.048v-.048l.768-.24.864-.336.768-.24h.096q0-.144.048-.24l-.384.096-.816.336-.816.24-.72.336q-.192.096-.288-.096t.096-.288l.768-.384h.048l.768-.24.816-.288.72-.24q.048-.096.048-.144l-.816.192-.816.24-.672.288q-.192.096-.288-.096t.096-.288l.72-.288v-.048q0-.144.192-.192l.624-.192q-.096-.048-.096-.144-.048-.192.144-.24l.864-.24q-.048-.048-.096-.144-.048-.192.144-.24l.384-.144v-.048q-.048-.192.144-.288l.864-.192.336-.144q.864-.576 1.824-1.008 1.008-.432 1.968-.768t1.968-.576 2.064-.432h-1.536q-.096 0-.288.048l-.72.288q-.192.096-.288-.096-.048-.144-.096-.144l-.768.336q-.192.096-.288-.096-.048-.144.096-.288l-.72.192q-.096.048-.144 0l-.72.288q-.192.096-.24-.096-.096-.192.096-.288l.72-.288q-.096-.048-.192-.048l-.336.144-.72.336q-.192.096-.288-.096-.048-.048-.048-.096l-.624.288q-.192.096-.288-.096l-.096-.192-.816.192q-.192.096-.24-.144l-.672.24q-.192.096-.288-.096l-.48.192q-.192.096-.288-.096t.144-.288l.72-.336-.816.336h-.048l-.768.192q-.24.096-.288-.144-.048-.192.144-.24l.816-.24.816-.288.528-.192q-.384-.336-.528-.768l-.672.336-.72.384-.864.288q-.192.096-.288-.096-.048-.192.144-.288l.816-.336.72-.336.72-.384q0-.24.096-.528l-.624.24-.72.288-.768.24q-.192.096-.24-.096-.096-.24.096-.288l.768-.288.672-.24.864-.336.144-.048q.048-.048.048-.096.048-.144.096-.24l-.48.144-.768.384-.864.384q-.192.048-.288-.144t.144-.288l.816-.336.72-.336-.624.192q-.192.048-.288-.144-.048-.24.144-.288l.624-.192q-.048 0-.048-.048-.096-.24.096-.288l.72-.288.768-.336.528-.288q.096-.048.144-.096l-.528.192-.672.336q-.192.096-.288-.096t.096-.288l.528-.288v-.048q-.048-.192.144-.288l.816-.24q-.24.048-.288-.144t.144-.288l.864-.192.72-.24.72-.24.432-.144.384-.192.24-.144q.048 0 .144-.048l.432-.192q.096-.048.192 0 .096-.096.24-.144zm9.936 24.288q.24-.048.288.144v.048h.144l.528-.192q.192-.048.24.144h.288q.144-.048.336-.096.192-.096.288.048h.288q.144-.048.384-.096.144-.048.24.048h.336q.192 0 .384-.048h.144q.912-.048 1.776-.096.912-.048 1.776-.096h.336q.384 0 .72-.048.384-.048.624-.288t.288-.576q.048-.384 0-.72v-.288q.048-1.152.048-2.304t-.048-2.304v-1.584q-.048-1.392-.048-2.784v-2.88q0-1.056-.048-2.16t-.384-2.16q-.48-.432-1.68-1.248t-2.736-1.776-3.072-1.824-2.736-1.392-1.68-.48q-.816.048-2.352.48-1.488.384-3.168 1.008-1.632.576-3.024 1.248-1.344.624-1.92 1.152-.48.528-.96 1.104-.432.576-.672 1.248-.048.048-.096.192-.096.144-.144.336-.048.144-.048.192.144.288.384.528.24.192.48.288.096.048.48 0 .192-.048.24-.048h.432q.24-.048.48-.048.816 0 1.632.048t1.632.048q.288.048.576.048h.624q.144-.048.192.048h.336q.144 0 .384-.048.144-.048.24.048h.24q.192 0 .432-.048h.192q.48-.144 1.008-.432l.288-.192v-.048q-.048-.192.144-.24l.336-.096q.192-.192.48-.288.288-.144.816-.192.192-.096.288.048.48.048.768.24.192-.096.288.096v.144q.336.336.528 1.104v.384q.048.144.048.336v.336q.096.144 0 .336-.048.192-.288.24-.288.048-.624.048.144.24.432.288h-.096q-.096-.048-.144-.096-.144-.048-.24-.192-.864.144-1.728.24-.864.048-1.776.144-1.152.192-2.352.48-1.152.24-2.256.624t-2.208.912q-1.104.48-1.968 1.248-.48.528-.864 1.824-.384 1.248-.576 2.784-.144 1.536-.048 2.832.144 1.296.672 1.824l.048.048q1.104 1.056 2.784 1.776 1.68.672 3.12 1.008h1.536q1.152-.096 2.256-.288 1.104-.24 2.112-.816.624-.336 1.152-.72-.048-.192.24-.24l.096-.096q.288-.24.384-.528.144-.288.576-.288.432-.048.432.24.048.24 0 .528v.288q0 .096-.048.288v.576q.048.288.24.528.144.144.528.144m-5.904-16.128q.432-.048.912-.096.048-.048.096-.048l.672-.336h.048l.816-.24.72-.24q-.096-.24-.192-.288-.096-.096-.48-.096l-.336.144-.432.144q-.096.048-.192.144l-.24.24-.288.192q-.528.288-1.104.48m2.544-.24q.48-.048.816-.096v-.192l-.672.24zm-.096 10.176v.048h-.048l-1.296.288h-.192q-.336-.096-.672-.096-.336-.048-.624-.288-.624-.48-.72-1.152-.096-.72.432-1.344.192-.24.432-.384l.48-.288q.048-.048.288-.096.336-.096.624-.144.336-.096.672-.144l.288-.096h.144q.096 0 .192-.048.144-.048.336-.096.096-.048.192 0 .096 0 .192-.048t.336-.096q.048-.048.096-.048 0-.144.048.048h.048q.048-.048.144-.048.144-.048.384-.096.144-.096.24.048.288.096.24.432 0 .24-.048.528 0 .288-.048.576t-.144.576q-.096.24-.24.528-.336.624-.768.912-.384.24-1.008.528m.864-2.208-.432.144-.72.336-.72.336q-.192.096-.288-.096-.048-.192.144-.288l.672-.336.72-.336q.048 0 .048-.048l.72-.24v-.048q-.24.096-.528.144l-.576.096q-.384.096-.816.144-.384.048-.768.24l-.288.144q-.144.048-.24.192-.432.48.096.864.096.096.48.144l.624-.24.816-.384.768-.288q.096-.096.192-.288zm-10.224 8.928-.768.24-.672.384h-.048l.672-.192.816-.336v-.048h.096q-.048-.048-.096-.048m26.448-.192-.192.048v.048l-.816.192-.72.384h-.048l-.672.24q-.192.096-.288-.096-.097-.192.143-.288l.672-.288.72-.336h.048v-.048l.912-.24q-.047-.144-.143-.288-.048-.144-.144-.288v.048l-.769.192-.672.336-.864.336q-.192.096-.288-.096t.144-.288l.816-.384.672-.288h.048l.816-.24v-.528l-.576.24-.816.192-.816.384q-.192.096-.288-.096-.096-.24.144-.288l.816-.384h.048l.768-.24.72-.24h.048v-.528l-.672.336-1.488.576q-.192.048-.288-.144-.048-.192.144-.288l1.488-.528.672-.336v-.048q.048 0 .192-.048v-.336h-.048l-.768.288-.72.24-.72.288q-.192.096-.288-.096-.048-.24.144-.288l.672-.288.768-.288 1.008-.336v-.384l-.624.288-.672.336h-.047l-.72.24q-.192.048-.288-.144-.049-.24.143-.288l.72-.192.672-.336.864-.432q0-.336-.048-.528l-.72.384-.816.288-.816.288q-.192.096-.288-.096-.048-.192.144-.288l.768-.336h.048l.816-.24.672-.384.288-.096q0-.336-.096-.432h-.048l-.672.24-.768.192-.72.384q-.192.096-.288-.096t.096-.288l.72-.384h.048l.768-.24.672-.24.336-.096q.048-.336-.096-.48l-.816.192-.672.24-.816.288q-.192.096-.288-.096-.048-.192.144-.288l.768-.336h.048l.672-.192.864-.24.288-.096q0-.288-.191-.288h-.048l-.673.24-.864.192-.768.336q-.192.096-.288-.096-.048-.24.144-.288l.768-.336h.048l.816-.24.672-.192.48-.24v-.48l-.24.144-.816.336-.72.384-.72.288q-.192.048-.288-.144-.048-.192.144-.288l.672-.24.72-.384.816-.384.48-.192q0-.24.048-.528l-.48.192-.864.384-.72.336h-.048l-.768.192q-.24.096-.288-.144-.048-.192.144-.24l.768-.24.768-.288.816-.384.672-.24q0-.288.048-.528l-.432.144-.72.336v.048l-.672.192-.816.384q-.192.096-.288-.096-.096-.24.096-.288l.816-.384h.048l.672-.24.672-.336.048-.048.576-.144v-.432l-.432.192-.72.384-.672.288h-.048l-.72.192q-.192.096-.288-.144-.048-.192.144-.24l.768-.24.624-.24.72-.384.672-.336v-.48l-.576.144-.72.24-.816.192-.72.24q-.192.048-.288-.144-.048-.192.144-.288l.768-.192.768-.24.768-.24.672-.192v-.432l-.48.288-.72.24-.72.384-.72.288q-.192.048-.288-.144-.048-.192.144-.288l.672-.24.72-.384h.048l.672-.288.672-.336v-.432l-.576.24h-.048l-.816.24-.816.288-.72.24q-.192.096-.288-.144-.048-.192.144-.24l.768-.288.768-.288.864-.192.72-.336v-.48l-.432.192-.72.336V42l-.816.192-.768.384q-.192.096-.288-.096t.096-.288l.768-.384.048-.048.816-.192.672-.336v-.048l.576-.192v-.432l-.432.192-.72.288-.816.384-.72.288q-.192.096-.288-.096t.096-.288l.72-.336.864-.336.672-.288.576-.288v-.48l-.384.192-.72.336v.048l-.864.24-.72.288q-.192.048-.288-.144-.048-.192.144-.288l.768-.24.816-.288.672-.336.528-.24q0-.24-.048-.48l-.24.144h-.048l-.72.192-.864.288-.816.24q-.24.048-.288-.192-.048-.192.144-.24l.864-.24.816-.24.768-.24.384-.144q0-.288-.048-.528l-.336.096-.72.336-.672.288-.816.336q-.192.096-.288-.096-.048-.24.144-.288l.768-.336.672-.336.72-.288h.048l.48-.144v-.384l-.24.144-.864.336-.672.288-.864.336q-.192.048-.288-.144-.048-.192.144-.288l.816-.288.72-.288.816-.384.432-.192q-.048-.288-.048-.48l-.24.096-.768.288-.72.24-.768.192q-.24.096-.288-.144-.048-.192.144-.24l.816-.24.672-.24.72-.24.432-.192q0-.288-.24-.384l-.72.288-.72.384-.816.384q-.192.096-.288-.096-.096-.24.096-.288l.816-.384.72-.384.72-.288v-.048h.048l.336-.096v-.24q0-.192-.192-.24l-.816.336-.768.288-.768.336q-.192.096-.288-.096t.096-.288l.768-.336v-.048h.048l.768-.24.816-.336h.048l.24-.096q0-.144.048-.288l-.576.24-.672.192q-.048.048-.192.048l-.672.192q-.192.096-.288-.144-.048-.192.144-.24l.72-.24.384-.096.48-.24h.048l.72-.24q.096-.336.336-.624.48-.624 1.152-.672.672-.096 1.344-.096h.576q1.392-.048 2.784 0t2.784.24q.672.048 1.248.144.624.096 1.152.624.336.336.48.768.144.384.192.816l.528-.144q.48-.384 1.008-.672.528-.336 1.104-.624 1.248-.72 3.024-.864t3.216-.096q.624.048 1.2.144.576.048 1.056.576.432.48.48 1.056t.048 1.152q-.048.192-.048.288 0 .672-.048 1.392t-.048 1.44l-.096 1.344q-.048.672-.144 1.344 0 .24-.048.528 0 .24-.096.48-.096.336-.288.672-.144.288-.432.528-.432.288-.912.384-.48.048-1.008.048l-.816.384-1.488.432q-.192.096-.288-.144-.048-.192.144-.24l.768-.24.864-.288h-.096q-.144 0-.384.048l-.768.24-.816.24-.768.288q-.192.096-.24-.096-.048 0-.048-.048l-.384.192q-.24.048-.288-.144-.048-.048-.24-.048l-.72.336q-.192.096-.288-.144v-.096l-.816.24q-.24.048-.288-.192v-.096l-.72.336q-.096.048-.144 0-.144.192-.192.384-.192.432-.192.912l.096.96v.384q.048.192.048.336.048 1.584.048 3.168.048 1.536.144 3.12v.96q0 .48.048.912v.24q0 .624-.048 1.2t-.48 1.056q-.48.576-1.2.672-.672.144-1.392.144h-.528l-.048.048-.384.144-.816.336q-.192.096-.288-.096t.24-.336h-.336l-.48.192q-.192.096-.288-.096l-.576.144q-.192.096-.288-.144v-.048h-.144l-.528.24q-.192.096-.288-.096v-.096h-.24l-.384.144q-.192.096-.288-.096v-.096h-.288l-.528.144q-.192.096-.288-.096l-.48.192q-.192.096-.288-.096-.048-.096 0-.144h-.144l-.336.096q-.192.096-.288-.096l-.816.288q-.192.096-.288-.096-.048-.192.144-.288l.528-.336-.528.144-.816.24q-.048.048-.096.048l-.624.288q-.192.096-.288-.096v-.048q-.144-.048-.192-.144-.048-.24.144-.288l.768-.288.72-.24zm2.352-.336q.24-.048.288.144v.096h.144l.48-.192q.192-.096.24.096.048 0 .048.048l.624-.192q.24-.048.288.144v.096l.624-.24q.192-.048.288.144v.096l.624-.24q.192-.048.288.144v.096l.624-.24q.192-.048.288.144v.048h.144l.48-.192q.192-.048.288.144v.048q.192-.048.336-.048l.24-.096q.192-.096.288.048h.288l.384-.096q.192-.048.288.096.336 0 .624-.048.048-.048.096-.048.288-.096.48-.288.24-.288.24-.672.048-.384 0-.72v-.336q-.048-.48-.048-.912v-.96q-.096-1.584-.144-3.12 0-1.584-.048-3.168 0-.192-.048-.384v-.384q-.048-.576-.048-1.152t.192-1.104q.336-.912 1.104-1.344t1.632-.672q1.296-.336 2.736-.288 1.488 0 2.832.096.144 0 .432.048.432.048.864.048t.72-.192q.144-.144.24-.336t.144-.336q.048-.192.048-.384v-.384q.096-.672.144-1.296l.096-1.344q0-.672.048-1.392t.048-1.44q0-.096.048-.288.048-.336 0-.72 0-.384-.24-.624-.192-.24-.528-.288t-.672-.048h-.24q-1.248-.048-2.88.048t-2.784.768v.048q-.72.336-1.392.768-.624.384-1.2.864-.144.096-.336.336-.144.192-.336.336t-.528.096q-.384 0-.432-.24-.048-.288 0-.528.048-.288 0-.384v-.144l-.048-.048q0-.096.048-.144-.048-.384-.144-.72-.048-.336-.288-.576-.336-.336-.816-.336-.48-.048-.912-.096-1.296-.192-2.688-.24-1.344-.048-2.688 0h-.528q-.24-.048-.528-.048t-.576.048l-.048.048-.528.24v.048q-.24.24-.24.624t.048.768v.336q.048.96.048 1.92.048.912.096 1.872.24 2.832.144 6.144-.048 3.264-.384 6.096 0 .912-.048 1.824l-.096 1.824-.096.864v.864q.048.144.144.336.096.144.144.288l.624.48q.24-.048.288.144v.048zm22.32-24.96q.095 0 .191.048.144-.048.432 0h.336q.24-.048.336-.048.048 0 .096-.048l.72-.192.576-.192.384-.144V31.2l-.624.192-.864.24-.768.288q-.192.096-.288-.096-.048-.24.144-.288l.768-.336h.048l.816-.24.768-.24v-.336l-.576.288-.768.336h-.048l-.72.24q-.192.048-.288-.144-.048-.192.144-.288l.72-.192.768-.384.768-.336v-.48l-.576.24-.768.336-.768.288q-.192.048-.288-.144-.048-.192.144-.288l.72-.24.768-.384h.048l.768-.288v-.288l-.72.24-.72.336-.864.384q-.192.096-.288-.144-.096-.192.144-.24l.816-.384.72-.384h.048l.864-.288q0-.192.048-.432l-.864.336-.816.384-.768.288q-.192.048-.288-.144-.048-.192.144-.288l.72-.24.864-.384 1.008-.432q.048-.384-.048-.48l-.864.336-.672.384h-.048l-.816.24q-.24.048-.288-.192-.048-.192.144-.24l.816-.192.672-.384h.048l.816-.384h.048l.24-.096v-.288l-.768.288-.816.336-.768.336q-.192.096-.288-.096t.096-.288l.768-.336v-.048l.864-.288.96-.384q0-.288-.144-.384h-.048l-.816.288-.864.24-.72.24q-.192.096-.288-.096-.048-.24.144-.288l.72-.288h.048l.816-.192.816-.288.432-.192q.048-.24.144-.384l-.768.336-.72.24-.72.336q-.192.096-.288-.096t.096-.288l.528-.24q0-.048-.048-.048-.048-.24.144-.288l.864-.288.816-.192.48-.192q.432-.48 1.344-.72.336-.096.672-.096h.96q.192 0 .336-.048.96-.048 1.872-.048.96-.048 1.92 0 .48 0 .912.048h1.248q.192 0 .384.048.192 0 .384.048 1.536.384 1.824 1.92.048.336 0 .672v.576q-.048.144-.048.288v.336q-.048 1.056-.048 2.112v2.112q-.048.384-.048.864v.048h.912q.864.048 1.68.096.864.048 1.728.048.096 0 .24.048.576 0 1.104.096t.96.528q.288.24.384.576.144.336.192.72.048.144.048.336v.336q-.048.192-.048.288v1.632q-.048.624-.048 1.248v2.208q-.192.864-.624 1.296-.384.432-1.248.576l-.048.048h-.624q-.24 0-.624.048l-.816.384-.72.24q-.192.096-.288-.096-.048-.192.144-.288l.816-.336h-.48l-.48.144-.672.24h-.048l-.672.192q-.192.096-.288-.096-.048-.24.144-.288l.528-.192q.048 0 .192-.048h-.384l-.528.144-.432.192v2.736q0 .624.096 1.2.048.432.096.912.048.432.48.672.24.192.576.192h1.104q.672 0 1.344.048.72.048 1.392.144.672.048 1.248.144.624.096 1.104.576t.528 1.056q.096.528.096 1.152v2.352q.048 1.056.048 2.112v.24q0 .576-.048 1.104t-.528 1.008q-.432.432-.96.48-.528.096-1.104.096h-1.584l-.528.192-.816.336q-.144.096-.24-.048l-.528.144q-.192.096-.288-.144l-.624.192q-.192.096-.24-.096v-.048l-.768.288q-.24.096-.288-.096-.096-.192.096-.288l.816-.288-.384.048-.384.192-.72.336q-.192.096-.288-.096t.096-.288h-.048l-.576.288q-.192.096-.288-.096-.048-.096 0-.192l-.624.144q-.048.048-.096.048-.096 0-.288-.096.048 0 0 0l-.72.24q-.24.048-.288-.144t.144-.288l.576-.144q-.096 0-.192-.048l-.528.192-.816.336q-.192.096-.288-.096-.048-.096 0-.192l-.624.192q-.192.096-.24-.144-.096-.192.096-.24l1.056-.384q-.048 0-.096-.048h-.096l-.048-.048q-.096-.048-.288.048l-.816.336-.864.24q-.192.048-.24-.144-.048-.24.144-.288l.816-.192.672-.336q-.048 0-.096-.048l-.432.192h-.048l-.72.24-.768.336q-.192.096-.288-.096t.096-.288l.768-.336-.672.144-.816.288q-.192.096-.24-.144-.096-.192.144-.24l.768-.288.768-.24.48-.24-.192-.096q-.096-.048-.336-.048h-.048l-.768.24-.768.24-.864.336q-.192.096-.288-.096-.048-.192.144-.288l.816-.384h.048l.816-.24.72-.192q-.144-.096-.288-.24l-.576.288-.768.336-.768.336-.72.288q-.192.048-.288-.144t.144-.288l.72-.288.72-.288.816-.384.336-.144-.336-.336-.528.192-.672.24-.816.384-.768.384q-.192.096-.288-.144-.096-.192.096-.24l.768-.384.816-.384.72-.288.288-.096-.384-.288-.576.144-.72.384-.864.288-.72.24q-.24.048-.288-.144t.144-.288l.72-.192.816-.336.768-.336h.048l.336-.144q-.192-.144-.384-.336l-.528.24-.864.288-.768.336-.768.336q-.192.096-.288-.096t.096-.288l.768-.384.816-.288v-.048l.816-.24.432-.192q-.192-.192-.384-.432l-.384.192-.768.336-.768.336-.768.384q-.192.096-.288-.096t.096-.288l.816-.384.72-.384.816-.288.24-.144q-.24-.24-.432-.528l-.144.048-.672.336h-.048l-.72.24-.672.336q-.192.096-.288-.096t.048-.288l.72-.336.048-.048.72-.192.672-.336h.048l.096-.048-.096-.192q-.048-.144-.096-.24l-.864.24-.672.336h-.048l-.768.24q-.192.048-.288-.144-.048-.24.144-.288l.816-.192.672-.336.912-.288-.096-.288q-.048-.144-.192-.24l-.72.336-.768.24-.72.336q-.192.096-.288-.048-.096-.192.096-.336l.72-.336.048-.048.768-.192.672-.384.24-.096-.096-.576-.72.384-.72.24-.816.288q-.192.048-.24-.144-.096-.192.144-.24l.768-.288.672-.288.72-.336h.048l.096-.048q-.048-.336-.144-.432l-.672.288-.816.336-.768.288q-.192.096-.288-.096t.096-.288l.816-.336.768-.288.72-.288.24-.096v-.288q-.048-.192-.048-.288l-.72.288-.72.336-.72.288q-.192.096-.288-.096t.096-.288l.72-.336.768-.288.864-.336q0-.288-.048-.432l-.816.336-.672.336-.72.384q-.192.096-.288-.096t.096-.288l.72-.384.672-.336.816-.336.192-.096v-.432l-.72.192-.672.288h-.048l-.816.24q-.192.096-.288-.144-.048-.192.144-.24l.816-.288.72-.24v-.048l.816-.24v-.336l-.816.336-.72.384-.768.336q-.192.048-.288-.144t.144-.288l.72-.288.72-.384 1.008-.432q0-.336-.048-.48l-.672.336-.72.288-.768.288q-.192.096-.288-.144-.048-.192.144-.24l.72-.288.768-.288.768-.384.048-.048v-.336l-.816.24-.768.288-.816.336q-.192.096-.288-.096t.096-.288l.816-.336.048-.048.768-.24.912-.336v-.384l-.672.336-.72.192-.672.288q-.192.096-.288-.144-.048-.192.144-.24l.672-.288h.048l.672-.24.816-.384v-.432h-.144l-.48.192-.816.336-.768.24q-.192.096-.288-.096-.048-.24.144-.288l.816-.288h-.288l-.576.288-.768.24q-.192.096-.288-.096v-.048l-.528.144q-.048.048-.144 0l-.72.288q-.192.096-.288-.096t-.048-.192l-.816.288q-.192.096-.288-.096-.048-.192.144-.288l.768-.336.864-.288.288-.144-.144-.144q-.048-.048-.144-.096v.048l-.816.192-.768.336-.72.24q-.192.096-.288-.096-.096-.24.144-.288l.72-.288.72-.288h.048v-.048l.768-.192-.096-.288-.096-.288-.816.24-.672.384-.864.336q-.192.096-.288-.096t.144-.288l.816-.336.672-.384h.048l1.008-.336q0-.192-.048-.288l-.768.384-1.392.432q-.192.096-.288-.144-.048-.192.144-.24l.72-.24.672-.24.72-.336.24-.096q0-.288-.048-.384h-.048l-.816.24-.672.336-.768.336q-.192.096-.288-.144-.096-.192.144-.288l.72-.288.672-.384h.048l1.056-.288q0-.288-.048-.384l-.72.288-.72.24-.72.288q-.192.096-.288-.096t.096-.288l.72-.288v-.048h.048l.72-.192.672-.336q.048 0 .192-.048 0-.24-.048-.384l-.864.384-.672.288h-.048l-.72.192q-.192.096-.288-.144-.048-.192.144-.24l.768-.24.672-.24.816-.384q.048 0 .24-.048 0-.048-.048-.144v-.192l-.72.336-.816.24-.72.24q-.192.048-.288-.144-.048-.192.144-.288l.768-.192.768-.288.864-.336q0-.192-.048-.384l-.72.24-.816.336-.864.384q-.192.048-.288-.144t.144-.288l.816-.336.864-.336.864-.288v-.432l-.576.192-.768.336h-.048l-.816.192q-.24.096-.288-.144-.048-.192.144-.24l.864-.24.768-.288.816-.288q.048-.144.096-.24l-.336.144-.864.336q-.144.096-.24 0l-.528.24q-.192.096-.288-.096t.096-.288l.768-.384h.048l.672-.24.624-.144.336-.144.24-.144q.192-.192.48-.288.336-.096.768-.24zm15.791 24.96h.096l.384-.048h.048q1.152-.048 2.256-.048 1.152-.048 2.256-.048h.96q.336-.048.528-.24.24-.24.24-.576.048-.336 0-.624v-.288q0-1.104-.048-2.16V50.64q0-.336-.048-.672 0-.384-.24-.624t-.624-.288q-.336-.096-.672-.096h-.336q-.672-.096-1.344-.144t-1.344-.048h-.384q-.48 0-.96-.048t-.912-.288q-.672-.432-.864-1.056-.192-.672-.24-1.392-.096-.624-.096-1.248v-3.12q-.096-.144 0-.24-.096-.096-.048-.192v-.048q-.048-.192-.048-.384t.24-.384q.192-.192.384-.192t.384.096q.24.048.336.048.24 0 .432.048h.432l1.248.096h1.296q.384.048.768.048h.816q.528-.144.672-.288.144-.192.24-.72.048-.144 0-.48v-1.536q0-.624.048-1.248v-1.584q0-.096.048-.24v-.48l-.096-.384q-.048-.192-.192-.336-.24-.24-.576-.288t-.672-.048h-.288q-.864 0-1.728-.048-.816-.048-1.68-.096h-.816q-.144 0-.336.048t-.384.048-.384-.24q-.192-.192-.192-.384t.048-.384.048-.336q0-.48.048-.816v-2.16q0-1.056.048-2.112 0-.192.048-.576v-.48q.048-.288 0-.576-.096-.528-.288-.672-.144-.192-.672-.336-.192-.048-.528-.048h-1.248q-.432-.048-.912-.048-.912-.048-1.824 0-.912 0-1.824.048-.144.048-.336.048h-.911q-.288 0-.528.048-.576.144-.768.336-.144.192-.288.768l-.096.576v1.152q-.144 2.304-.144 4.464v.912q.048.432.048.864 0 .048-.048.144t-.096.144q-.192.192-.384.192t-.432-.048-.384 0h-.96q-.48 0-.96.048-.096 0-.288-.048h-.288q-.144 0-.288.048l-.384.096q-.192.048-.336.192-.144.096-.192.336-.048.192-.048.336v.816q.048.384.048.768.048.768.048 1.584.048.768.048 1.536v.24q-.048.24-.048.528.048.288.24.432.144.144.336.192h.384q.192.048.528-.048.192 0 .288-.048.48-.048.912-.048.48-.048.912-.048.096 0 .336-.096.24-.048.432-.048t.384.192q.24.192.24.384t-.048.384-.048.384v.816l.096 2.784q.048 1.344.144 2.736 0 1.008.144 2.016.144.96.576 1.92 1.008 1.296 2.544 2.64t2.976 2.208q.24-.048.288.144v.048q.192.048.432.096l.288-.048q.24-.048.288.144v.048q.192.048.336.096l.336-.144q.192-.048.288.144v.096q.144 0 .336.048l.384-.144q.192-.096.288.096v.096q.144.048.288.048l.384-.192q.192-.096.288.096l.048.048zm-16.56-15.744-.384.192zm10.08 15.696q-.048-.048-.144-.096l-.672.336zm16.368-26.832.288-.096.048-.048.528-.192-.192-.24-.576.24-.816.384-.816.336-.72.288q-.192.096-.288-.096t.096-.288l.768-.336.768-.288.864-.384.48-.192q-.048-.144-.096-.24-.048-.144-.096-.24l-.336.144-.048.048-.768.192-.864.288-.72.192q-.192.096-.288-.144-.048-.192.144-.24l.768-.24.816-.24.768-.24.336-.192v-.048q-.048-.24-.24-.288l-.672.24-.768.336-.72.336q-.192.096-.288-.096t.096-.288l.72-.336.768-.336.048-.048.72-.192.24-.096q0-.24-.096-.288l-.72.288-.768.336-.768.336q-.192.096-.288-.144-.096-.192.144-.288l.72-.288.816-.336.672-.288.288-.144v-.144q-.048-.144-.192-.096l-.768.24-.672.24-.816.336q-.192.096-.288-.096t.096-.288l.816-.336v-.048h.048l.672-.192.72-.288.336-.144q-.048-.288-.192-.432l-.816.24-.768.336-.816.288q-.192.096-.288-.096-.048-.192.144-.288l.768-.336.816-.288v-.048l1.056-.24v-.384l-.816.288-.672.24h-.048l-.72.24q-.192.048-.288-.144-.048-.192.144-.288l.768-.192.672-.288.96-.288q-.048-.192-.048-.384l-.672.336-.72.336-.72.336q-.192.048-.288-.144t.096-.288l.72-.288.72-.336.72-.336v-.048h.144v-.336l-.624.336-.768.288-.768.336q-.192.096-.288-.096t.096-.288l.768-.336v-.048h.048l.768-.24.672-.384.096-.048v-.24q-.048 0-.336.096l-.72.288-.768.24q-.192.096-.288-.144-.048-.192.144-.24l.912-.336q0-.096.096-.096l.528-.144.624-.288q.144-.336.432-.576.432-.432.96-.48.528-.096 1.104-.096h3.888q.912 0 1.824.048h.576q.72 0 1.392.144.672.096 1.152.672.432.48.432 1.056.048.528-.048 1.104v.192q-.096 1.056-.144 2.112t0 2.112v.24q0 .576-.048 1.104t-.48 1.008q-.24.288-.576.432t-.72.192q-.192.048-.384.048-.192-.048-.384-.048t-.288-.048q-.432 0-.864-.048-.384-.048-.816-.096-.096.048-.192 0h-.144l-.48.24q-.192.096-.288-.096-.096-.096 0-.192l-.864.288q-.192.096-.24-.096 0-.048-.048-.048l-.48.192q-.192.096-.288-.096t.096-.288l.288-.096q-.096-.048-.288-.048l-.672.192q-.192.048-.288-.096l-.624.288q-.192.096-.288-.096v-.144l-.528.24q-.24.096-.288-.096-.048-.048-.048-.096l-.528.144q-.192.096-.24-.096v-.096l-.72.24q-.192.096-.288-.096l-.48.24q-.048.048-.432-.048-.192.096-.288-.144-.048-.192.144-.24l.768-.24zm5.328-.72q.144-.048.24.048.192.048.384.048l.288-.096q.192-.048.288.144.096.048.192.048l.384-.192q.24-.048.288.144.048.048.048.096l.576-.24q.192-.048.288.144v.048l.624-.192q.24-.048.288.144v.048l.624-.192q.192-.048.288.144v.048q0-.048.048-.048.192-.24.192-.576.048-.336 0-.672v-.288q-.048-1.104 0-2.208t.144-2.16q0-.096.048-.288.048-.336.048-.624 0-.336-.192-.624-.288-.288-.816-.336-.48-.048-1.008-.048h-.528q-.864-.096-1.776-.048h-3.888q-.336 0-.672.048-.336 0-.576.192-.24.24-.288.576 0 .288.048.576v.24q0 .816.048 1.584t.096 1.584q.048.144.048.528v.48q0 .24.048.48t.144.432q.144.192.24.384l.336.48q.816.048 1.68.096.864 0 1.776.048m4.128 28.224-.816.384-.672.336-.864.336q-.192.096-.288-.096t.144-.288l.72-.336-.672.288h-.048l-.768.192q-.192.096-.288-.096l-.672.192q-.192.096-.288-.096v-.048l-.624.336q-.192.096-.288-.096t.096-.288l.72-.336.048-.048.816-.192.384-.192h-.144l-.288.048-.816.336-.816.336-.72.288q-.24.096-.288-.096l-.048-.048-.624.288q-.192.096-.288-.096t.096-.288l.864-.384-.72.24-.72.24q-.24.096-.288-.096-.048-.096-.144-.096l-.768.192q-.24.096-.288-.144v-.048l-.528.24q-.096.048-.192 0l-.576.24q-.192.096-.288-.096-.048-.096.048-.192-.048-.048-.096-.144-.048-.192.144-.24l.768-.24.672-.24.528-.48-.72.24v.048l-.72.192-.864.384-.816.24q-.24.096-.288-.096-.048-.24.144-.288l.816-.288.816-.336h.048l.72-.24.48-.192-.096-.096q-.096-.144-.096-.192l-.096-.192-.24.096-.864.336-.72.384-.768.336q-.192.096-.288-.096t.096-.288l.768-.336.72-.384h.048l.816-.336.288-.096q-.096-.24-.192-.336h-.048l-.72.24-.672.192-.768.384q-.192.096-.288-.096t.096-.288l.768-.384h.048l.672-.24.912-.288v-.288q0-.192-.096-.288l-.672.24-.672.336-.768.288q-.192.096-.288-.096t.144-.288l.72-.288.672-.336h.048l.672-.288h.048l.24-.048q.048-.288-.096-.432l-.768.24-.672.336-.864.384q-.192.096-.288-.096t.144-.288l.816-.384.672-.336.048-.048 1.008-.288v-.48l-.816.192-.672.384h-.048l-.768.288q-.192.048-.288-.144-.048-.192.144-.288l.768-.24.672-.384h.048l.912-.24q0-.336-.048-.528l-.768.384-.672.336-.72.288q-.192.096-.288-.096t.096-.288l.72-.336.672-.288.768-.384q.048 0 .192-.048v-.336l-.768.336-.672.192-.72.336q-.192.096-.288-.096-.096-.24.096-.288l.72-.336h.048l.672-.24.864-.384v-.384l-.576.288-.72.24-.768.336q-.192.096-.288-.096t.096-.288l.768-.336v-.048h.048l.72-.192.72-.384v-.624l-.672.288-.672.336-.768.384q-.192.096-.288-.096t.096-.288l.768-.384.672-.336h.048v-.048l.672-.24q.048 0 .144-.048v-.384l-.672.336-.816.336h-.048l-.72.24q-.192.048-.288-.144-.048-.24.144-.288l.768-.24.816-.288.672-.336v-.048l.144-.048v-.192q.048-.24.048-.384l-.672.336-.672.336-.72.384q-.192.096-.288-.096t.096-.288l.72-.384.672-.336.768-.384q.048 0 .096-.048v-.336l-.576.288v.048l-.816.192-.672.288q-.192.048-.288-.144-.048-.192.144-.288l.672-.24h.048l.768-.24.672-.336.048-.048v-.576l-.72.288-.816.384h-.048l-.768.192q-.24.096-.288-.144-.048-.192.144-.24l.768-.24.864-.336.864-.336q0-.24-.048-.528l-.768.384-.72.24-.864.336q-.192.096-.288-.144-.048-.192.144-.24l.816-.336.768-.288.768-.336q.048-.048.144-.048v-.384l-.576.24-.768.336-.72.288q-.192.096-.288-.096t.096-.288l.72-.288.816-.336.672-.288v-.528l-.528.192-.672.288q0 .048 0 0l-.768.288q-.192.096-.288-.144-.048-.192.144-.24l.72-.288.672-.288.048-.048.672-.24q0-.144-.048-.336l-.48.192-.816.384-.768.384q-.192.096-.288-.096t.096-.288l.768-.384.864-.384.624-.288q0-.288.048-.576l-.528.24-.864.24-.768.24q-.192.096-.288-.096-.048-.24.144-.288l.816-.288.816-.192.672-.336v-.48l-.672.336-.864.24-.72.288q-.192.048-.288-.144-.048-.192.144-.288l.768-.24.816-.288.768-.336.048-.048q0-.192.048-.336l-.672.288-.768.288-.816.288q-.192.048-.288-.144-.048-.24.144-.288l.864-.288.72-.24.72-.384.096-.048v-.432l-.672.336-.816.288h-.048l-.768.24q-.24.048-.288-.144t.144-.288l.816-.192.816-.336.864-.384v-.432l-.816.336-.672.288h-.048l-.816.24q-.24.048-.288-.144-.048-.24.144-.288l.864-.24.672-.24.96-.432v-.528l-.72.288-.768.288-.864.336q-.192.096-.288-.096t.144-.288l.816-.384h.048l.768-.288.912-.336v-.528l-.672.24-.72.288-.816.288q-.192.048-.288-.144-.048-.192.144-.288l.816-.24.72-.288.672-.288h.145q0-.384-.096-.48l-.672.192-.768.288-.768.288q-.192.096-.288-.096t.144-.288l.72-.336h.048l.768-.24.72-.24.288-.096q.048-.144.144-.288l-.624.192-.72.192q0 .048-.048.048l-.816.24q-.192.096-.288-.144-.048-.192.144-.24l.864-.288.672-.24.864-.24.432-.192q.432-.384.96-.432.576-.096 1.152-.048h1.152q1.44.048 2.832 0 1.44-.096 2.88-.24h.192q.624-.048 1.2 0 .576 0 1.056.48t.528 1.056q.048.528 0 1.104v.24q-.048.864-.096 1.776-.048.864 0 1.776.096 1.872.144 3.792.096 1.872.096 3.696 0 1.584-.096 3.168-.096 1.536-.096 3.12v2.88q0 .576-.096 1.152-.048.576-.576 1.008-.432.432-.96.48-.528.096-1.104.096zm-8.4-1.632.624.528q1.632-.144 3.216-.096h3.216q.528.048.96.048h1.056q.384 0 .624-.24t.288-.576 0-.672v-2.976q0-1.584.096-3.12.096-1.584.096-3.168 0-1.824-.096-3.696-.048-1.872-.144-3.744-.048-.912 0-1.824.048-.96.096-1.872 0-.048.048-.288v-.624q0-.336-.24-.576-.192-.192-.576-.192-.336-.048-.672 0-.192.048-.288.048-1.44.144-2.928.24-1.44.048-2.88 0h-1.248q-.336-.048-.72 0-.336 0-.576.24t-.288.624v.96l-.096 1.92v1.872l-.096 1.824q0 .864.048 1.776v.576q.048.288.048.624v1.056q.048.528.048 1.056v.864q0 .432-.048.864 0 .864-.048 1.776 0 .864.096 1.728 0 .672.048 1.344.048.624.048 1.248v.672q-.048.24-.048.528 0 .24.048.48l.096.384zm23.376-33.504q.144-.096.24.048.72-.288 1.536-.624h.096q1.2-.336 2.496-.48 1.344-.192 2.64-.24.528-.048 1.056-.048t1.056.048h1.68q.576-.048 1.104.048.528.048.96.48.288.24.384.576.144.336.24.672.048.192.048.336v1.44q.048.384.048.768v1.248q.048.576.048 1.2v.144q.048.624-.048 1.152-.048.528-.528 1.008-.432.48-.96.528t-1.152.048h-.096q-.24 0-.528-.048l-.336.144-.672.288h-.096 1.344q.576 0 1.104.048t.96.528q.48.48.48 1.008.048.528.048 1.104-.048.096-.048.192-.048 1.056-.144 2.112l-.096 2.112q0 .672-.096 1.296-.048.576-.528 1.104-.48.48-1.104.624-.576.096-1.248.144-.336.048-.72.096-.336 0-.672.048l-.672.24h-.048l-.816.24q-.192.096-.288-.096l-.384.144v1.296q.048.624.048 1.248l.096 2.784q.096 1.392.096 2.784v1.584q0 .768-.048 1.536v.624q-.048.576-.048.96v.24q0 .576-.096 1.152-.096.528-.528.96-.48.48-1.056.528-.528.096-1.104.096h-.24q-.24.048-.48.048h-.432l-.576.288-.864.336q-.192.096-.288-.096v-.096l-.48.24q-.192.096-.288-.096t.096-.288l.432-.192-.624.192-.72.192q-.192.096-.288-.144v-.048l-.528.24q-.192.096-.288-.096l-.48.144q-.192.096-.288-.096 0-.144-.096-.096h-.048l-.768.24q-.24.096-.288-.096-.048-.144.048-.24l-.672.144q-.144.048-.24-.096l-.672.288q-.192.096-.288-.096-.048-.096 0-.192l-.528.24q-.24.096-.288-.096l-.528.192q-.192.096-.288-.096v-.144q-.048-.048-.096-.144-.048-.192.144-.24l.816-.24.72-.192.24-.144-.096-.096q-.096-.096-.192-.144l-.72.336-.816.336-.672.24q-.192.096-.288-.096t.144-.288l.672-.288.768-.288.768-.336q-.048-.144-.144-.24-.048-.096-.144-.24l-.864.384-.72.336h-.048l-.672.192q-.192.096-.288-.096-.048-.24.144-.288l.672-.24.768-.288.816-.384q.048 0 .192-.048v-.432l-.72.384-.72.336-.72.24q-.192.096-.288-.096-.048-.192.144-.288l.672-.288.72-.288.72-.384.192-.096v-.576l-.72.192-.672.384-.864.384q-.192.048-.288-.144t.144-.288l.816-.336.672-.384h.048l.864-.24v-.528l-.72.336-.72.288h-.048l-.816.24q-.24.048-.288-.144-.048-.24.144-.288l.864-.192.72-.288.72-.336v-.048h.144v-.528l-.72.336-.768.288h-.048l-.768.24q-.24.048-.288-.144t.144-.288l.816-.192.768-.336.672-.288q.048-.048.192-.048v-.48l-.72.288-.672.24-.72.384q-.192.096-.288-.096t.096-.288l.72-.384.72-.288.768-.288h.048l.048-.048v-.432l-.816.288-.768.336-.048.048-.672.192q-.192.096-.288-.144-.048-.192.144-.24l.672-.24.768-.336.048-.048.96-.288v-.624l-.768.24-.768.384-.72.24q-.192.096-.288-.096-.048-.24.144-.288l.672-.288.768-.336h.048v-.048l.912-.24v-.48l-.72.288-.768.384h-.048l-.816.24q-.192.096-.288-.096-.048-.24.144-.288l.816-.288.768-.336h.048l.672-.288q.048 0 .24-.048 0-.288-.048-.384h-.048l-.672.192-.864.288-.816.288q-.192.048-.288-.144-.048-.24.144-.288l.864-.288.816-.24.672-.24.288-.096q0-.336-.048-.432h-.048l-.72.192-.72.336h-.048l-.72.24q-.192.048-.288-.144-.048-.24.144-.288l.72-.192.768-.336.72-.24.288-.096v-.576l-.816.336v.048l-.864.192-.768.288q-.192.048-.288-.144-.048-.192.144-.288l.816-.24.816-.24.768-.336v-.048q.048 0 .192-.048v-.336l-.864.336-.672.192-.864.384q-.192.096-.288-.144-.096-.192.144-.24l.816-.384h.048l.672-.24 1.056-.432q0-.144-.048-.336 0-.096-.096-.096l-.864.336-.768.336-.816.384q-.192.096-.288-.096t.096-.288l1.584-.768h.048l.816-.288.288-.144q0-.336-.096-.432h-.048l-.768.288-.864.336-.816.24q-.192.096-.288-.144-.048-.192.144-.24l.816-.288.864-.336.768-.24.24-.144v-.48l-.864.336-.816.384h-.048l-.816.24q-.192.096-.288-.144-.048-.192.144-.24l.816-.288.864-.336.96-.384v-.432q0-.048-.096-.096l-.816.288-.768.24-.672.24q-.192.096-.288-.096l-.576.192q-.192.096-.288-.096V42l-.384.144q-.144.048-.24-.048l-.432.192q-.192.096-.24-.096-.048-.048-.048-.096l-.72.336q-.192.096-.288-.096t.096-.288l.768-.384.768-.336.864-.432q-.192-.048-.384-.192l-.432.144-.72.288-.816.24-.672.288q-.192.096-.288-.096t.096-.288l.72-.336h.048l.768-.192.96-.384q-.144-.096-.24-.192-.096-.144-.288-.24l-.768.336-.768.288-.72.24q-.192.096-.288-.096-.048-.192.144-.288l.72-.288.768-.24.72-.336q.048 0 .24-.096 0-.096-.048-.288l-.672.336-.816.288-.768.288q-.192.096-.288-.144-.048-.192.144-.24l.768-.288.816-.336.768-.336v-.432l-.816.288v.048l-.816.192-.816.384q-.192.096-.288-.144-.096-.192.144-.24l.816-.384h.048l.768-.24.768-.288v-.048h.144v-.384l-.768.192-.72.384-.768.288q-.192.096-.288-.096t.144-.288l.72-.288.72-.384h.048l.864-.24v-.384l-.528.144-.768.384-.768.288q-.192.096-.288-.096t.144-.288l.72-.336.768-.336h.048v-.048l.624-.144v-.432l-.624.288-.672.288-.768.336q-.192.096-.288-.096-.096-.24.144-.288l.72-.336.72-.336.768-.288v-.288l-.528.144-.672.288h-.048l-.72.24q-.192.048-.288-.144-.048-.24.144-.288l.768-.192.672-.288.672-.192v-.432l-.576.192-.72.336h-.048l-.816.24q-.192.096-.288-.096-.048-.24.144-.288l.816-.288.768-.288.768-.288v-.288q0-.048.048-.096l-.384.096-.672.288-.048.048-.768.24q-.192.096-.288-.144-.048-.192.144-.24l.864-.336.096-.048.72-.336.528-.192q.192-.288.432-.528t.576-.336q.384-.096.72-.144h.288q0-.144.144-.24l.72-.288.768-.384h.048l.672-.24.288-.144q0-.288.048-.528l-.816.24-1.68.432q-.192.048-.24-.144-.096-.192.144-.288l.816-.192.864-.24.96-.288q.048-.288.096-.528l-.672.24-.864.384-.864.288q-.192.048-.24-.144-.096-.24.144-.288l.816-.24.816-.384 1.008-.336.096-.48-.672.288-.816.384-.72.384q-.192.096-.288-.096t.096-.288l.768-.384.768-.384.864-.384.192-.048q.048-.096.096-.24l-.384.192h-.048l-.864.24-.72.24q-.192.048-.288-.144-.048-.24.144-.288l.768-.24.816-.192.672-.336v-.048l.144-.048.192-.288-.528.192-.768.192-.768.24q-.24.048-.288-.144t.144-.288l.624-.144q-.096-.048-.144-.144-.048-.192.144-.288l.72-.24.768-.336.288-.144-.768.24q-.192.048-.24-.144-.096-.24.144-.288l.528-.144q.048-.144.144-.192l.624-.24.096-.096.816-.336.048-.048.528-.144.48-.192.768-.336.576-.24q.096-.048.144-.048zm6.384 17.952q.144-.048.24.144h.192q.144-.048.384-.096.192-.096.288.048h.288q.144-.048.384-.096.096 0 .192.048.336-.048.672-.048l.768-.096q.384-.048.816-.048.48-.048.768-.384.24-.24.288-.576.048-.384.048-.768V38.4l.096-2.112q.096-1.056.144-2.16 0-.048.048-.24.048-.336 0-.624 0-.336-.192-.528-.192-.24-.528-.24-.336-.048-.624 0h-3.888q-.144 0-.384.048-.192 0-.384.048-.144 0-.384-.144-.192-.144-.24-.336v-.432q-.048-.192.096-.288v-.144q0-.096.048-.192-.144-.048-.144-.192-.048-.192.288-.288.048-.096.096-.144.384-.528.912-.624.576-.144 1.152-.144.48 0 .96.048h.912l.576.096h1.44q.336 0 .528-.24.24-.24.24-.528.048-.336.048-.672-.048-.144-.048-.24 0-.624-.048-1.2V25.68q-.048-.768-.048-1.632v-.672l-.096-.384q-.048-.192-.192-.288-.24-.24-.576-.24-.336-.048-.672-.048-.192.048-.288.048h-1.392q-.528-.048-1.056-.048t-1.056.048q-1.248.048-2.496.24-1.2.144-2.4.432-1.44.528-3.12 1.344-1.632.816-2.736 1.968-.624.96-.912 2.16-.288 1.152-.336 2.304-.048.288-.048.576v.576q0 .096.048.288v.384q0 .192-.24.336-.192.192-.384.192l-.384-.096q-.24-.048-.336-.096h-.048q-.432-.048-.864-.048t-.864-.096h-.24q-.336-.096-.528-.048-.144 0-.384.048-.192.048-.336.144-.096.144-.192.336-.048.144-.048.288-.048.384-.048.768v2.112l.096 1.344q0 .144.048.288v.288q0 .336.048.672.048.288.288.528.24.192.528.24.336.048.672 0h2.208q.192-.048.384-.048t.384.192q.192.24.192.432v.432q-.048.24-.048.384.048.72.048 1.488.048.72.048 1.44.048.816 0 1.632 0 .816-.048 1.632-.048.432-.048.864t-.048.864v6.768q.048.192.144.384.096.144.192.336l.432.288h3.697q1.536 0 3.024-.048h.48q.24 0 .48-.048h.336q.336.048.672 0 .384-.048.624-.288t.24-.576q.048-.336.048-.672v-.336q0-.384.048-.912v-.672q.048-.768.048-1.488v-1.536q0-1.44-.096-2.832l-.096-2.784q0-.672-.048-1.392v-1.392q0-.144-.048-.384-.096-.192-.096-.384 0-.24.192-.432.192-.24.384-.24t.384.048h.048q.096-.048.384-.096zm-10.896-14.88q.048-.096.144-.192l-.48.192-.72.336.768-.288zm-3.6 6.096h.192v.048q.336 0 .576.048h.528l.672-.24v-.672l-.72.24-.768.384zM254.1 31.2l-.528.144h.432q0-.096.096-.144m12.385 1.632q.096-.048.192 0 1.872-.72 3.744-1.248t2.928-.624q.624-.048 1.968.528 1.344.528 2.976 1.44 1.68.864 3.312 1.872t2.88 1.92q1.248.864 1.728 1.392l.096.144q.096.096.096.144.384 1.152.432 2.4.096 1.248.096 2.448v2.784q0 1.392.048 2.736V50.4q.048 1.152.048 2.352 0 1.152-.048 2.304v.144q0 .624-.096 1.2-.048.576-.528 1.008-.48.48-1.008.528-.528.096-1.104.144h-.432l-.384.192-.816.336-.816.336q-.192.096-.288-.096t.096-.288l.816-.384h.048-.24q-.144.048-.384.096l-.72.288q-.192.096-.288-.048l-.672.336q-.144.096-.288-.096-.096-.192.096-.288l.384-.192q-.144.048-.384.144h-.048l-.816.288q-.192.096-.288-.096v-.096l-.72.24q-.192.096-.288-.096v-.192l-.528.24q-.192.096-.288-.096-.048-.048 0-.144l-.672.192q-.192.096-.24-.096-.048-.096-.144-.096l-.816.288q-.192.096-.288-.096-.048-.096 0-.192l-.288.144q-.192.096-.288-.096t.096-.288l.48-.24-.768.24-.72.24q-.192.096-.288-.096v-.096l-.528.24q-.192.096-.288-.096t.096-.288l.816-.384.816-.24.72-.336q-.096-.24-.144-.528-.528.432-1.2.768-1.104.624-2.352.864-1.2.288-2.448.384h-.096l-.384.192q-.144.048-.24-.048l-.48.144h-.144l-.864.288q-.192.096-.288-.096v-.144l-.336.096-.336.192q-.192.096-.288-.096-.048-.048 0-.144 0-.144.144-.192l.336-.144.48-.24-.288.096-.72.24-.816.288q-.192.096-.288-.096-.048-.144-.144-.144l-.816.336q-.192.048-.288-.144-.048-.192.144-.288l.816-.288 1.056-.432-.288-.096-.672.192-.768.336h-.048l-.768.24q-.192.048-.288-.144-.048-.144.096-.24l-.624.288q-.192.048-.288-.144t.096-.288l.816-.288.672-.384h.048l.336-.144q-.096-.048-.24-.096l-.192-.096-.72.336-.768.336-.864.288q-.192.048-.288-.144-.048-.192.144-.288l.816-.24.816-.384.384-.144-.48-.288-.72.24-.768.24-.672.24q-.192.096-.288-.096t.144-.288l.672-.288q.048 0 0 0l.768-.192.432-.144q-.096-.096-.192-.144l-.192-.096-.672.24-.864.288-.768.288q-.24.048-.288-.144-.096-.192.144-.288l.768-.288.864-.24.48-.192q-.192-.144-.336-.288-.048-.048-.048-.096l-.768.24-.816.384-.72.384q-.192.096-.288-.096t.096-.288l.72-.384.864-.384.624-.192q-.144-.24-.24-.528l-.768.24-.672.336-.816.336q-.192.096-.24-.144-.096-.192.096-.24l.768-.336.672-.384h.096l.72-.192q-.096-.288-.144-.624l-.288.096-.768.192-.864.288-.72.288q-.192.096-.288-.096t.096-.288l.768-.336.864-.24v-.048l.816-.192.336-.096q-.048-.288-.096-.624l-.576.192-.816.192-.72.24-.816.336q-.192.096-.288-.096t.144-.288l.768-.336v-.048h.048l.768-.192.816-.24.672-.192v-.576l-.768.192-.672.24h-.048l-.816.24-.72.336q-.192.048-.288-.144t.096-.288l.768-.288v-.048l.864-.192.672-.288.864-.24h.048V50.4l-.72.192-.768.384-.72.24-.816.336q-.192.096-.288-.096t.096-.288l.816-.384h.048l.72-.192.72-.384h.048l.72-.24q.096 0 .192.048.048-.384.096-.72h-.048l-.864.384-.816.24-.816.336-.816.336q-.24.096-.288-.144-.096-.192.096-.24l.864-.336.768-.384h.048l.816-.192.816-.384q.192-.048.288.096.048-.336.096-.624l-.768.336-.72.336-.768.384h-.048l-.816.192q-.24.096-.288-.144-.048-.192.192-.24l.816-.24.768-.336.672-.336.816-.384q.096-.048.192.048.096-.24.144-.48l-.576.192-.864.288-.768.288-.768.336q-.192.096-.288-.096t.096-.288l.768-.336h.048v-.048l.768-.24.864-.336.768-.24h.096q0-.144.048-.24l-.384.096-.816.336-.816.24-.72.336q-.192.096-.288-.096t.096-.288l.768-.384h.048l.768-.24.816-.288.72-.24q.048-.096.048-.144l-.816.192-.816.24-.672.288q-.192.096-.288-.096t.096-.288l.72-.288v-.048q0-.144.192-.192l.624-.192q-.096-.048-.096-.144-.048-.192.144-.24l.864-.24q-.048-.048-.096-.144-.048-.192.144-.24l.384-.144v-.048q-.048-.192.144-.288l.864-.192.336-.144q.864-.576 1.824-1.008 1.008-.432 1.968-.768t1.968-.576 2.064-.432h-1.536q-.096 0-.288.048l-.72.288q-.192.096-.288-.096-.048-.144-.096-.144l-.768.336q-.192.096-.288-.096-.048-.144.096-.288l-.72.192q-.096.048-.144 0l-.72.288q-.192.096-.24-.096-.096-.192.096-.288l.72-.288q-.096-.048-.192-.048l-.336.144-.72.336q-.192.096-.288-.096-.048-.048-.048-.096l-.624.288q-.192.096-.288-.096l-.096-.192-.816.192q-.192.096-.24-.144l-.672.24q-.192.096-.288-.096l-.48.192q-.192.096-.288-.096t.144-.288l.72-.336-.816.336h-.048l-.768.192q-.24.096-.288-.144-.048-.192.144-.24l.816-.24.816-.288.528-.192q-.384-.336-.528-.768l-.672.336-.72.384-.864.288q-.192.096-.288-.096-.048-.192.144-.288l.816-.336.72-.336.72-.384q0-.24.096-.528l-.624.24-.72.288-.768.24q-.192.096-.24-.096-.096-.24.096-.288l.768-.288.672-.24.864-.336.144-.048q.048-.048.048-.096.048-.144.096-.24l-.48.144-.768.384-.864.384q-.192.048-.288-.144t.144-.288l.816-.336.72-.336-.624.192q-.192.048-.288-.144-.048-.24.144-.288l.624-.192q-.048 0-.048-.048-.096-.24.096-.288l.72-.288.768-.336.528-.288q.096-.048.144-.096l-.528.192-.672.336q-.192.096-.288-.096t.096-.288l.528-.288v-.048q-.048-.192.144-.288l.816-.24q-.24.048-.288-.144t.144-.288l.864-.192.72-.24.72-.24.432-.144.384-.192.24-.144q.048 0 .144-.048l.432-.192q.096-.048.192 0 .096-.096.24-.144zm9.936 24.288q.24-.048.288.144v.048h.144l.528-.192q.192-.048.24.144h.287q.144-.048.336-.096.192-.096.288.048h.288q.144-.048.384-.096.144-.048.24.048h.336q.192 0 .384-.048h.144q.912-.048 1.776-.096.912-.048 1.776-.096h.336q.384 0 .72-.048.384-.048.624-.288t.288-.576q.048-.384 0-.72v-.288q.048-1.152.048-2.304t-.048-2.304v-1.584q-.048-1.392-.048-2.784v-2.88q0-1.056-.048-2.16t-.384-2.16q-.48-.432-1.68-1.248t-2.736-1.776-3.072-1.824-2.736-1.392-1.68-.48q-.816.048-2.352.48-1.488.384-3.168 1.008-1.632.576-3.024 1.248-1.344.624-1.92 1.152-.48.528-.96 1.104-.432.576-.672 1.248-.048.048-.096.192-.096.144-.144.336-.048.144-.048.192.144.288.384.528.24.192.48.288.096.048.48 0 .192-.048.24-.048h.432q.24-.048.48-.048.816 0 1.632.048t1.632.048q.288.048.576.048h.624q.144-.048.192.048h.336q.144 0 .384-.048.144-.048.24.048h.24q.192 0 .432-.048h.192q.48-.144 1.008-.432l.288-.192v-.048q-.048-.192.144-.24l.336-.096q.192-.192.48-.288.288-.144.816-.192.192-.096.288.048.48.048.768.24.192-.096.288.096v.144q.336.336.528 1.104v.384q.048.144.048.336v.336q.096.144 0 .336-.048.192-.288.24-.288.048-.624.048.144.24.432.288h-.096q-.096-.048-.144-.096-.144-.048-.24-.192-.864.144-1.728.24-.864.048-1.776.144-1.152.192-2.352.48-1.152.24-2.256.624t-2.208.912q-1.104.48-1.968 1.248-.48.528-.864 1.824-.384 1.248-.576 2.784-.144 1.536-.048 2.832.144 1.296.672 1.824l.048.048q1.104 1.056 2.784 1.776 1.68.672 3.12 1.008h1.536q1.152-.096 2.256-.288 1.104-.24 2.112-.816.624-.336 1.152-.72-.048-.192.24-.24l.096-.096q.288-.24.384-.528.144-.288.576-.288.432-.048.432.24.048.24 0 .528v.288q0 .096-.048.288v.576q.048.288.24.528.144.144.528.144zm-5.904-16.128q.432-.048.912-.096.048-.048.096-.048l.672-.336h.048l.816-.24.72-.24q-.096-.24-.192-.288-.096-.096-.48-.096l-.336.144-.432.144q-.096.048-.192.144l-.24.24-.288.192q-.528.288-1.104.48m2.544-.24q.48-.048.816-.096v-.192l-.672.24zm-.096 10.176v.048h-.048l-1.296.288h-.192q-.336-.096-.672-.096-.336-.048-.624-.288-.624-.48-.72-1.152-.096-.72.432-1.344.192-.24.432-.384l.48-.288q.048-.048.288-.096.336-.096.624-.144.336-.096.672-.144l.288-.096h.144q.096 0 .192-.048.144-.048.336-.096.096-.048.192 0 .096 0 .192-.048t.336-.096q.048-.048.096-.048 0-.144.048.048h.048q.048-.048.144-.048.144-.048.384-.096.144-.096.24.048.288.096.24.432 0 .24-.048.528 0 .288-.048.576t-.144.576q-.096.24-.24.528-.336.624-.768.912-.384.24-1.008.528m.864-2.208-.432.144-.72.336-.72.336q-.192.096-.288-.096-.048-.192.144-.288l.672-.336.72-.336q.048 0 .048-.048l.72-.24v-.048q-.24.096-.528.144l-.576.096q-.384.096-.816.144-.384.048-.768.24l-.288.144q-.144.048-.24.192-.432.48.096.864.096.096.48.144l.624-.24.816-.384.768-.288q.096-.096.192-.288zm-10.224 8.928-.768.24-.672.384h-.048l.672-.192.816-.336v-.048h.096q-.048-.048-.096-.048m33.648-25.056q.192-.048.288.144v.048q2.112-.576 4.464-.912 2.4-.384 4.32-.384t2.592.528q2.064 1.248 4.224 2.784 2.208 1.488 3.888 3.168l.048.096q.048.048.096.048.24.48.432 1.008.24.48.336 1.008.048.048.048.144.096.288.144.576.048.24 0 .528-.096.864-.624 1.392-.24.24-.624.384-.336.096-.672.144-.336.096-.672.096t-.72-.048h-.96l-.48.192-.768.288q-.192.096-.288-.096v-.096l-.672.24q-.24.096-.288-.096 0-.048-.048-.048l-.48.192q-.192.096-.288-.096t.144-.288l-.672.24q-.24.096-.288-.096-.096-.192.288-.336l-.336.096-.768.24q-.192.096-.288-.096v-.048l-.576.144q-.192.096-.24-.144-.048-.048-.096 0l-.72.288q-.192.096-.288-.096l-.48.192q-.24.096-.288-.096-.048-.048-.048-.096l-.576.144q-.192.096-.288-.144-.048-.192.144-.24l.72-.24.384-.144q-.048 0-.288.048l-.768.288-.72.24q-.192.096-.288-.048l-.816.288q-.192.096-.288-.096-.048-.192.144-.288l.768-.336.72-.24.72-.384h.048q-.192-.192-.384-.336-.144-.192-.336-.384l-.432.192-.864.384-.816.384h-.048l-.768.24q-.192.096-.288-.096v-.048.048q-.048.288-.096.624v.576q0 .288-.048.576v1.68q0 .336.096.912.144.576.384 1.056.288.48.768.432.144 0 .48-.096.192-.144.144-.24-.192.096-.288-.096t.144-.288l.72-.288q.048-.096.144-.192.816-.768 1.728-1.152.24-.096.432-.096h.48q.24.048.384.048h.96q.528-.048 1.008-.048 1.2 0 2.352.048 1.2 0 2.4.048.48 0 .96.048.48 0 .96.048h.143q.864.24 1.392.72.528.432.624 1.392 0 .288-.048.624-.048.288-.144.576-.048.096-.048.144-.24.864-.672 1.632-.384.72-.864 1.44l-.048.048-.048.048q-1.056 1.056-2.784 2.16-1.728 1.056-3.6 1.968-1.824.864-3.216 1.296h-.096l-.048.048q-.48.048-1.056.048-.096.048-.192 0h-.432q-.192.048-.528.096-.096.048-.144 0l-.864.288q-.192.048-.24-.096l-.672.288q-.192.096-.288-.096t.096-.288l.432-.24-.624.288-.72.336q-.192.096-.288-.096-.048-.144-.192-.096l-.336.144-.384.096q-.192.096-.288-.096-.048-.192.144-.288l.72-.288.336-.144v-.048l.144-.048h-.096l-.576.144-.768.288-.816.24q-.096 0-.192-.048l-.48.144q-.192.048-.24-.144-.096-.192.144-.288l.672-.192.864-.384q-.192-.048-.336-.048l-.72.288-.864.336-.672.24q-.24.048-.288-.144-.096-.192.144-.288l.672-.192.816-.384q.048 0 .144-.048h-.144l-.672.192-.672.384-.816.336q-.192.048-.288-.144-.048-.192.144-.288l.768-.288.672-.384h.096q-.24-.048-.432-.096l-.528.192-.72.24-.816.288q-.192.096-.288-.096t.144-.288l.816-.336.672-.192q-.096-.048-.24-.096l-.528.24-.768.24-.72.336q-.192.096-.288-.096t.096-.288l.768-.336q0-.048.048-.048l.768-.24q-.144-.048-.336-.144l-.48.24h-.048l-.72.288-.768.336q-.192.096-.288-.096t.096-.288l.768-.384h.048l.816-.288q-.192-.096-.432-.192l-.384.096-.72.288-.72.384q-.192.096-.288-.096t.096-.288l.768-.384.672-.288h.096q-.24-.144-.432-.288l-.432.192-.864.336-.816.384q-.192.048-.288-.144t.096-.288l.864-.336 1.056-.432-.192-.192-.096-.096-.432.192-.816.336h-.048l-.768.24q-.192.048-.288-.144-.048-.192.144-.288l.816-.192.816-.384.24-.096-.384-.48-.432.144-.768.288-.768.384q-.192.096-.288-.144-.096-.192.096-.288l.768-.336h.048l.768-.288.288-.096q-.144-.192-.288-.336l-.576.144-.816.288-.72.336q-.192.096-.288-.096t.096-.288l.72-.384h.048l.816-.288h.048l.384-.096q-.144-.24-.288-.432l-.624.24-.672.336h-.048l-.768.192q-.24.096-.288-.144-.048-.192.144-.24l.768-.24.672-.288h.048l.528-.24-.288-.48-.624.288-.768.288-.816.24q-.192.096-.288-.144-.048-.192.144-.24l.864-.288.72-.24.528-.288-.288-.576-.576.192-.768.288-.768.384q-.192.096-.288-.096t.096-.288l.768-.384.816-.288v-.048l.528-.144q-.096-.24-.192-.432l-.336.096-.864.336-.72.24q-.192.096-.288-.096-.048-.192.144-.288l.72-.288.864-.288.288-.144q-.144-.288-.24-.624v-.144l-.432.144-.768.336-.72.24q-.192.048-.24-.144-.096-.192.144-.24l.672-.24.72-.336v-.048h.048l.48-.144q-.048-.24-.24-.288l-.768.336-.768.336q-.192.096-.288-.096t.096-.288l.768-.336v-.048l.816-.288.288-.144q-.048-.288-.048-.576l-.336.144-.768.384h-.048l-.768.24q-.192.096-.288-.096-.048-.24.144-.288l.768-.288.768-.336.48-.24v-.576l-.24.096-.72.384-.72.288q-.192.048-.24-.144-.096-.192.096-.288l.672-.24.72-.384.432-.192V45.6l-.288.096-.672.288-.672.336q-.192.144-.288-.048-.144-.192.048-.288l.72-.384h.048l.672-.288.432-.192v-.576l-.384.144-.816.288-.672.336q-.192.096-.288-.096t.096-.288l.672-.336h.048v-.048l.816-.24.576-.192q0-.288-.24-.288l-.816.384h-.048l-.672.192q-.192.096-.288-.096-.048-.24.144-.288l.672-.24.816-.336.48-.24q0-.384.048-.72l-.288.096-.864.192-.72.24q-.192.048-.288-.144-.048-.192.144-.288l.768-.192.864-.24.48-.144v-.048l.192-.48-.528.192-.864.336-.72.288q-.192.096-.288-.096t.096-.288l.768-.336.816-.288.912-.336q.096-.24.192-.432l-.528.144-.768.192-.672.288q-.192.096-.288-.144-.096-.192.096-.24l.72-.288.816-.24.864-.24q.048-.144.096-.24l.096-.288-.768.384-.72.288-.768.288q-.192.096-.24-.144-.096-.192.096-.24l.768-.288.672-.336.768-.336h.048v-.048l.432-.096q.096-.144.144-.288l-.768.288-.768.192-.72.384q-.192.096-.288-.096t.096-.288l.768-.384h.048l.72-.24.768-.288.48-.144q.048-.144.144-.288l-.672.192-.864.288-.72.24q-.24.048-.288-.144-.048-.24.144-.288l.768-.24.816-.24.768-.24.384-.144.144-.144-.768.24-.864.336-.768.192q-.192.096-.24-.144-.096-.192.144-.24l.768-.24-.048-.048q-.096-.192.096-.288l.576-.288q-.048-.192.144-.288l.816-.384q-.048 0-.048-.048-.096-.192.096-.288l.528-.24q-.048-.144.144-.24l.768-.336q-.048-.144.144-.24l.768-.288.672-.384q.048 0 .192-.048h.048l.624-.24.768-.336.816-.336h.048zm7.68 24.96q.144-.096.24 0h.48l.288-.144q.144-.048.24.048.048 0 .096-.048 1.344-.384 3.024-1.2 1.728-.864 3.312-1.872t2.544-1.968q.432-.576.768-1.248.384-.672.576-1.392 0-.048.048-.192l.096-.384q.048-.192.048-.384-.096-.528-.336-.72-.24-.24-.768-.336-.48-.048-.96-.048-.432-.048-.912-.048-1.2-.048-2.352-.048-1.152-.048-2.352-.048-.48 0-1.008.048h-.96q-.096 0-.288-.048-.432-.048-.576 0-.528.192-.96.576.048.192-.144.288l-.288.096q-.576.576-.816 1.008-.192.384-1.2.48-.912.096-1.44-.48-.528-.624-.768-1.44-.24-.864-.288-1.584v-1.776q.048-.336.048-.624t.048-.576q.048-.336.048-.624.096-.72.384-1.536.288-.864.816-1.44.576-.576 1.44-.48.816.048 1.344.48l.048.048q.528.528 1.008 1.056l1.056.96q.144.048.528.048h.288q.24 0 .48.048h.528q1.344.144 2.736.144h3.695q.336.048.624.048t.576-.048l.384-.096q.24-.048.384-.192.192-.192.24-.672.048-.144 0-.288-.048-.192-.096-.336t-.048-.192q-.096-.432-.288-.864t-.384-.816q-1.632-1.632-3.792-3.072-2.112-1.488-4.08-2.688l-.048-.048h-.048q-.384-.384-1.824-.336-1.44 0-3.456.336-1.968.288-3.936.768-1.968.432-3.456.912t-1.872.912q-1.2 1.2-2.304 3.168t-1.632 3.6q0 .24-.048.48l.096.096q.048.192-.144.288-.048.24-.048.528.096.048.144.144.096.192-.144.288-.048.288-.048.528.144.048.192.144.096.192-.192.336v.48q.144 0 .192.192.096.192-.192.288v.528q.192 0 .24.144.048.192-.24.288.048.336.048.576.192-.048.24.144.096.192-.192.336.048.336.144.528.192-.048.24.144.096.192-.24.288v.096q.096.288.192.48.192-.096.288.096t-.144.288q.144.288.24.528.192-.048.288.144.048.144-.096.24.144.24.288.528.144 0 .192.144.096.096 0 .192.192.288.336.528.144 0 .192.144.048.096 0 .144.192.288.384.528.144-.048.24.096.048.144 0 .24.24.288.384.432.24-.096.288.096.048.144-.048.24.24.288.48.336.192-.096.288.096t-.048.288q.096.096.192.144.144.048.384.096.24-.096.288.096.096.144 0 .24.288.144.576.192.192-.096.288.096.048.048.048.096.288.144.624.24.096 0 .192.048 1.536.48 3.216.768t2.832.528l.912.048zm-1.44-16.896q-.24-.096-.528-.096-.144-.048-.288 0-.336.144-.624.672l.768-.192zm-1.872 2.064q.048-.048.096-.048l.768-.288.864-.336.816-.384.288-.096q-.144-.144-.336-.288-.144-.144-.432-.24l-.672.384h-.048l-.768.192-.384.192q-.144.432-.192.912m18.095-10.56q.096 0 .192.048.144-.048.432 0h.336q.24-.048.336-.048.048 0 .096-.048l.72-.192.576-.192.384-.144V31.2l-.623.192-.864.24-.768.288q-.192.096-.288-.096-.048-.24.144-.288l.768-.336h.048l.816-.24.768-.24v-.336l-.577.288-.768.336h-.048l-.72.24q-.192.048-.288-.144-.048-.192.144-.288l.72-.192.768-.384.768-.336v-.48l-.576.24-.768.336-.768.288q-.192.048-.288-.144-.048-.192.144-.288l.72-.24.768-.384h.048l.768-.288v-.288l-.72.24-.72.336-.864.384q-.192.096-.288-.144-.096-.192.144-.24l.816-.384.72-.384h.048l.864-.288q0-.192.048-.432l-.864.336-.816.384-.768.288q-.192.048-.288-.144-.048-.192.144-.288l.72-.24.864-.384 1.008-.432q.048-.384-.048-.48l-.864.336-.672.384h-.048l-.816.24q-.24.048-.288-.192-.048-.192.144-.24l.816-.192.672-.384h.048l.816-.384h.048l.24-.096v-.288l-.768.288-.816.336-.768.336q-.192.096-.288-.096t.096-.288l.768-.336v-.048l.864-.288.96-.384q0-.288-.144-.384h-.048l-.816.288-.864.24-.72.24q-.192.096-.288-.096-.048-.24.144-.288l.72-.288h.048l.816-.192.816-.288.432-.192q.048-.24.144-.384l-.768.336-.72.24-.72.336q-.192.096-.288-.096t.096-.288l.528-.24q0-.048-.048-.048-.048-.24.144-.288l.864-.288.816-.192.48-.192q.432-.48 1.344-.72.336-.096.672-.096h.96q.192 0 .336-.048.96-.048 1.872-.048.96-.048 1.92 0 .48 0 .912.048h1.248q.192 0 .384.048.192 0 .384.048 1.536.384 1.824 1.92.048.336 0 .672v.576q-.048.144-.048.288v.336q-.048 1.056-.048 2.112v2.112q-.048.384-.048.864v.048h.912q.864.048 1.68.096.864.048 1.728.048.096 0 .24.048.576 0 1.104.096t.96.528q.288.24.384.576.144.336.192.72.048.144.048.336v.336q-.048.192-.048.288v1.632q-.048.624-.048 1.248v2.208q-.192.864-.624 1.296-.384.432-1.248.576l-.048.048h-.624q-.24 0-.624.048l-.816.384-.72.24q-.192.096-.288-.096-.048-.192.144-.288l.816-.336h-.48l-.48.144-.672.24h-.048l-.672.192q-.192.096-.288-.096-.048-.24.144-.288l.528-.192q.048 0 .192-.048h-.384l-.528.144-.432.192v2.736q0 .624.096 1.2.048.432.096.912.048.432.48.672.24.192.576.192h1.104q.672 0 1.344.048.72.048 1.392.144.672.048 1.248.144.624.096 1.104.576t.528 1.056q.096.528.096 1.152v2.352q.048 1.056.048 2.112v.24q0 .576-.048 1.104t-.528 1.008q-.432.432-.96.48-.528.096-1.104.096h-1.584l-.528.192-.816.336q-.144.096-.24-.048l-.528.144q-.192.096-.288-.144l-.624.192q-.192.096-.24-.096v-.048l-.768.288q-.24.096-.288-.096-.096-.192.096-.288l.816-.288-.384.048-.384.192-.72.336q-.192.096-.288-.096t.096-.288h-.048l-.576.288q-.192.096-.288-.096-.048-.096 0-.192l-.624.144q-.048.048-.096.048-.096 0-.288-.096.048 0 0 0l-.72.24q-.24.048-.288-.144t.144-.288l.576-.144q-.096 0-.192-.048l-.528.192-.816.336q-.192.096-.288-.096-.048-.096 0-.192l-.624.192q-.192.096-.24-.144-.096-.192.096-.24l1.056-.384q-.048 0-.096-.048h-.096l-.048-.048q-.096-.048-.288.048l-.816.336-.864.24q-.192.048-.24-.144-.048-.24.144-.288l.816-.192.672-.336q-.048 0-.096-.048l-.432.192h-.048l-.72.24-.768.336q-.192.096-.288-.096t.096-.288l.768-.336-.672.144-.816.288q-.192.096-.24-.144-.096-.192.144-.24l.768-.288.768-.24.48-.24-.192-.096q-.096-.048-.336-.048h-.048l-.768.24-.768.24-.864.336q-.192.096-.288-.096-.048-.192.144-.288l.816-.384h.048l.816-.24.72-.192q-.144-.096-.288-.24l-.576.288-.768.336-.768.336-.72.288q-.192.048-.288-.144t.144-.288l.72-.288.72-.288.816-.384.336-.144-.336-.336-.528.192-.672.24-.816.384-.768.384q-.192.096-.288-.144-.096-.192.096-.24l.768-.384.816-.384.72-.288.288-.096-.384-.288-.576.144-.72.384-.864.288-.72.24q-.24.048-.288-.144t.144-.288l.72-.192.816-.336.768-.336h.048l.336-.144q-.192-.144-.384-.336l-.528.24-.864.288-.768.336-.768.336q-.192.096-.288-.096t.096-.288l.768-.384.816-.288v-.048l.816-.24.432-.192q-.192-.192-.384-.432l-.384.192-.768.336-.768.336-.768.384q-.192.096-.288-.096t.096-.288l.816-.384.72-.384.816-.288.24-.144q-.24-.24-.432-.528l-.144.048-.672.336h-.048l-.72.24-.672.336q-.192.096-.288-.096t.048-.288l.72-.336.048-.048.72-.192.672-.336h.048l.096-.048-.096-.192q-.048-.144-.096-.24l-.864.24-.672.336h-.048l-.768.24q-.192.048-.288-.144-.048-.24.144-.288l.816-.192.672-.336.912-.288-.096-.288q-.048-.144-.192-.24l-.72.336-.768.24-.72.336q-.192.096-.288-.048-.096-.192.096-.336l.72-.336.048-.048.768-.192.672-.384.24-.096-.096-.576-.72.384-.72.24-.816.288q-.192.048-.24-.144-.096-.192.144-.24l.768-.288.672-.288.72-.336h.048l.096-.048q-.048-.336-.144-.432l-.672.288-.816.336-.768.288q-.192.096-.288-.096t.096-.288l.816-.336.768-.288.72-.288.24-.096v-.288q-.048-.192-.048-.288l-.72.288-.72.336-.72.288q-.192.096-.288-.096t.096-.288l.72-.336.768-.288.864-.336q0-.288-.048-.432l-.816.336-.672.336-.72.384q-.192.096-.288-.096t.096-.288l.72-.384.672-.336.816-.336.192-.096v-.432l-.72.192-.672.288h-.048l-.816.24q-.192.096-.288-.144-.048-.192.144-.24l.816-.288.72-.24v-.048l.816-.24v-.336l-.816.336-.72.384-.768.336q-.192.048-.288-.144t.144-.288l.72-.288.72-.384 1.008-.432q0-.336-.048-.48l-.672.336-.72.288-.768.288q-.192.096-.288-.144-.048-.192.144-.24l.72-.288.768-.288.768-.384.048-.048v-.336l-.816.24-.768.288-.816.336q-.192.096-.288-.096t.096-.288l.816-.336.048-.048.768-.24.912-.336v-.384l-.672.336-.72.192-.672.288q-.192.096-.288-.144-.048-.192.144-.24l.672-.288h.048l.672-.24.816-.384v-.432h-.145l-.48.192-.816.336-.768.24q-.192.096-.288-.096-.048-.24.144-.288l.816-.288h-.288l-.576.288-.768.24q-.192.096-.288-.096v-.048l-.528.144q-.048.048-.144 0l-.72.288q-.192.096-.288-.096t-.048-.192l-.816.288q-.192.096-.288-.096-.048-.192.144-.288l.768-.336.864-.288.288-.144-.144-.144q-.048-.048-.144-.096v.048l-.816.192-.768.336-.72.24q-.192.096-.288-.096-.096-.24.144-.288l.72-.288.72-.288h.048v-.048l.768-.192-.096-.288-.096-.288-.816.24-.672.384-.864.336q-.192.096-.288-.096t.144-.288l.816-.336.672-.384h.048l1.008-.336q0-.192-.048-.288l-.768.384-1.392.432q-.192.096-.288-.144-.048-.192.144-.24l.72-.24.672-.24.72-.336.24-.096q0-.288-.048-.384h-.048l-.816.24-.672.336-.768.336q-.192.096-.288-.144-.096-.192.144-.288l.72-.288.672-.384h.048l1.056-.288q0-.288-.048-.384l-.72.288-.72.24-.72.288q-.192.096-.288-.096t.096-.288l.72-.288v-.048h.048l.72-.192.672-.336q.048 0 .192-.048 0-.24-.048-.384l-.864.384-.672.288h-.048l-.72.192q-.192.096-.288-.144-.048-.192.144-.24l.768-.24.672-.24.816-.384q.048 0 .24-.048 0-.048-.048-.144v-.192l-.72.336-.816.24-.72.24q-.192.048-.288-.144-.048-.192.144-.288l.768-.192.768-.288.864-.336q0-.192-.048-.384l-.72.24-.816.336-.864.384q-.192.048-.288-.144t.144-.288l.816-.336.864-.336.864-.288v-.432l-.576.192-.768.336h-.048l-.816.192q-.24.096-.288-.144-.048-.192.144-.24l.864-.24.768-.288.816-.288q.048-.144.096-.24l-.336.144-.864.336q-.144.096-.24 0l-.528.24q-.192.096-.288-.096t.096-.288l.768-.384h.048l.672-.24.624-.144.336-.144.24-.144q.192-.192.48-.288.336-.096.768-.24zm15.792 24.96h.096l.384-.048h.048q1.152-.048 2.256-.048 1.152-.048 2.256-.048h.96q.336-.048.528-.24.24-.24.24-.576.048-.336 0-.624v-.288q0-1.104-.048-2.16V50.64q0-.336-.048-.672 0-.384-.24-.624t-.624-.288q-.336-.096-.672-.096h-.336q-.672-.096-1.344-.144t-1.344-.048h-.384q-.48 0-.96-.048t-.912-.288q-.672-.432-.864-1.056-.192-.672-.24-1.392-.096-.624-.096-1.248v-3.12q-.096-.144 0-.24-.096-.096-.048-.192v-.048q-.048-.192-.048-.384t.24-.384q.192-.192.384-.192t.384.096q.24.048.336.048.24 0 .432.048h.432l1.248.096h1.296q.384.048.768.048h.816q.528-.144.672-.288.144-.192.24-.72.048-.144 0-.48v-1.536q0-.624.048-1.248v-1.584q0-.096.048-.24v-.48l-.096-.384q-.048-.192-.192-.336-.24-.24-.576-.288t-.672-.048h-.288q-.864 0-1.728-.048-.816-.048-1.68-.096h-.816q-.144 0-.336.048t-.384.048-.384-.24q-.192-.192-.192-.384t.048-.384.048-.336q0-.48.048-.816v-2.16q0-1.056.048-2.112 0-.192.048-.576v-.48q.048-.288 0-.576-.096-.528-.288-.672-.144-.192-.672-.336-.192-.048-.528-.048h-1.248q-.432-.048-.912-.048-.912-.048-1.824 0-.912 0-1.824.048-.144.048-.336.048h-.913q-.288 0-.528.048-.576.144-.768.336-.144.192-.288.768l-.096.576v1.152q-.144 2.304-.144 4.464v.912q.048.432.048.864 0 .048-.048.144t-.096.144q-.192.192-.384.192t-.432-.048-.384 0h-.96q-.48 0-.96.048-.096 0-.288-.048h-.288q-.144 0-.288.048l-.384.096q-.192.048-.336.192-.144.096-.192.336-.048.192-.048.336v.816q.048.384.048.768.048.768.048 1.584.048.768.048 1.536v.24q-.048.24-.048.528.048.288.24.432.144.144.336.192h.384q.192.048.528-.048.192 0 .288-.048.48-.048.912-.048.48-.048.912-.048.096 0 .336-.096.24-.048.432-.048t.384.192q.24.192.24.384t-.048.384-.048.384v.816l.096 2.784q.048 1.344.144 2.736 0 1.008.144 2.016.144.96.576 1.92 1.008 1.296 2.544 2.64t2.976 2.208q.24-.048.288.144v.048q.192.048.432.096l.288-.048q.24-.048.288.144v.048q.192.048.336.096l.336-.144q.192-.048.288.144v.096q.144 0 .336.048l.384-.144q.192-.096.288.096v.096q.144.048.288.048l.384-.192q.192-.096.288.096l.048.048zm-16.56-15.744-.384.192zm10.08 15.696q-.048-.048-.144-.096l-.672.336zM40 0C17.944 0 0 17.944 0 40s17.944 40 40 40 40-17.944 40-40S62.056 0 40 0m0 77.333C19.413 77.333 2.667 60.585 2.667 40S19.413 2.667 40 2.667c20.585 0 37.333 16.748 37.333 37.333S60.585 77.333 40 77.333"/><path fill="#000" fill-opacity=".9" d="M67.31 23.313c-.245-.402-.72-.625-1.154-.639a1.33 1.33 0 0 0-1.139.667l-8.08 13.995L41.56 10.7c8.408.41 16.272 4.173 21.375 10.32a1.334 1.334 0 0 0 2.052-1.704c-6.082-7.324-15.703-11.582-25.784-11.31a1.335 1.335 0 0 0-1.124 2L46.159 24H15.404c4.56-7.076 11.75-12.004 19.625-13.35a1.334 1.334 0 0 0-.449-2.629c-9.384 1.604-17.865 7.837-22.688 16.673a1.333 1.333 0 0 0 1.171 1.972l16.16.002L13.844 53.3c-3.848-7.487-4.521-16.179-1.75-23.67a1.334 1.334 0 0 0-2.501-.925c-3.302 8.927-2.145 19.388 3.098 27.984.24.398.672.639 1.137.639h.016c.47-.005.903-.259 1.139-.667l8.08-13.993L38.44 69.302c-8.408-.41-16.273-4.172-21.375-10.318a1.334 1.334 0 0 0-2.052 1.703c5.915 7.124 15.198 11.319 24.964 11.319q.41 0 .82-.01a1.332 1.332 0 0 0 1.123-2l-8.08-13.993h14.605l.02.003c.01.001.013-.003.02-.003h16.11c-4.56 7.076-11.75 12.006-19.625 13.352a1.333 1.333 0 0 0 .45 2.63c9.383-1.606 17.865-7.84 22.687-16.676a1.333 1.333 0 0 0-1.17-1.972h-16.16l15.378-26.634c3.85 7.487 4.521 16.179 1.75 23.671a1.334 1.334 0 0 0 2.5.925c3.303-8.928 2.146-19.39-3.097-27.985zM47.698 53.336H32.3l-7.697-13.334 7.699-13.334h15.394l7.7 13.334z"/></svg>